<svg width="93" height="29" viewBox="0 0 93 29" fill="none" xmlns="http://www.w3.org/2000/svg">
<path fill-rule="evenodd" clip-rule="evenodd" d="M57.7231 22.0538C52.3231 26.0438 44.5131 28.1438 37.7831 28.1438C28.7877 28.1921 20.0979 24.883 13.4131 18.8638C12.9131 18.4138 13.3631 17.7838 13.9731 18.1438C21.3953 22.3824 29.7958 24.6092 38.3431 24.6038C44.3231 24.6038 50.8931 23.3638 56.9431 20.8038C57.8431 20.4138 58.6131 21.4038 57.7231 22.0538Z" fill="#EFA82E"/>
<path fill-rule="evenodd" clip-rule="evenodd" d="M59.9631 19.5033C59.2731 18.6233 55.4031 19.0833 53.6631 19.2933C53.1431 19.3533 53.0631 18.8933 53.5331 18.5633C56.6231 16.3933 61.6831 17.0233 62.2631 17.7433C62.8631 18.4833 62.1131 23.5433 59.2231 25.9533C58.7731 26.3333 58.3531 26.1333 58.5531 25.6433C59.2031 24.0133 60.6531 20.3833 59.9631 19.5033Z" fill="#EFA82E"/>
<path fill-rule="evenodd" clip-rule="evenodd" d="M53.7933 3.27312V1.17312C53.7933 0.843124 54.0333 0.633124 54.3233 0.633124H63.7733C64.0733 0.633124 64.3133 0.853125 64.3133 1.16313V2.96312C64.3133 3.26312 64.0533 3.66312 63.6033 4.29312L58.7033 11.2631C60.5233 11.2231 62.4433 11.4931 64.1033 12.4231C64.4633 12.6231 64.5733 12.9331 64.6033 13.2431V15.4831C64.6033 15.7931 64.2633 16.1531 63.9033 15.9631C62.3586 15.1707 60.6469 14.7591 58.9108 14.7626C57.1748 14.7661 55.4647 15.1845 53.9233 15.9831C53.5933 16.1531 53.2533 15.8031 53.2533 15.4931V13.3631C53.2533 13.0231 53.2533 12.4331 53.6033 11.9131L59.2733 3.80312H54.3333C54.2628 3.80445 54.1928 3.79173 54.1274 3.76569C54.0619 3.73965 54.0023 3.70082 53.952 3.65147C53.9017 3.60212 53.8618 3.54325 53.8345 3.47828C53.8073 3.41332 53.7932 3.34357 53.7933 3.27312ZM19.3433 16.4031H16.4633C16.3368 16.3945 16.2175 16.3417 16.1261 16.2539C16.0347 16.1662 15.977 16.0491 15.9633 15.9231V1.20312C15.9633 0.903125 16.2033 0.673124 16.5133 0.673124H19.1833C19.4633 0.683124 19.6833 0.903124 19.7033 1.17312V3.09312H19.7633C20.4633 1.23312 21.7633 0.363125 23.5433 0.363125C25.3433 0.363125 26.4633 1.23312 27.2733 3.09312C27.559 2.27724 28.0965 1.5732 28.8082 1.08254C29.5199 0.591882 30.3691 0.339965 31.2333 0.363125C32.4333 0.363125 33.7533 0.863124 34.5633 1.97312C35.4633 3.21312 35.2833 5.01313 35.2833 6.59313V15.8731C35.2833 16.1731 35.0333 16.4031 34.7333 16.4031H31.8633C31.7269 16.3982 31.5975 16.3418 31.5011 16.2453C31.4046 16.1489 31.3482 16.0195 31.3433 15.8831V8.08313C31.3433 7.45313 31.4033 5.90312 31.2633 5.32312C31.0433 4.32312 30.4033 4.05312 29.5733 4.05312C28.8733 4.05312 28.1533 4.51313 27.8533 5.25313C27.5633 6.00313 27.5933 7.24312 27.5933 8.07312V15.8731C27.5933 16.1731 27.3433 16.4031 27.0333 16.4031H24.1633C24.0287 16.3957 23.9018 16.3383 23.8074 16.2421C23.713 16.1458 23.658 16.0178 23.6533 15.8831V8.08313C23.6533 6.43313 23.9133 4.02312 21.8833 4.02312C19.8133 4.02312 19.8933 6.37312 19.8933 8.07312V15.8731C19.8933 16.1731 19.6433 16.4031 19.3433 16.4031ZM72.4533 3.37312C70.3433 3.37312 70.2033 6.25312 70.2033 8.04312C70.2033 9.84312 70.1833 13.6831 72.4333 13.6831C74.6533 13.6831 74.7633 10.5831 74.7633 8.69312C74.7633 7.45312 74.7133 5.97312 74.3333 4.79312C74.0133 3.77312 73.3733 3.37312 72.4533 3.37312ZM72.4333 0.363125C76.6933 0.363125 79.0033 4.02313 79.0033 8.66313C79.0033 13.1631 76.4533 16.7131 72.4333 16.7131C68.2433 16.7131 65.9733 13.0631 65.9733 8.51313C65.9733 3.92313 68.2733 0.363125 72.4333 0.363125ZM84.5333 16.4031H81.6633C81.5287 16.3957 81.4018 16.3383 81.3074 16.2421C81.213 16.1458 81.158 16.0178 81.1533 15.8831V1.14312C81.1704 1.0097 81.2358 0.887174 81.3371 0.798723C81.4385 0.710273 81.5687 0.662032 81.7033 0.663125H84.3633C84.6133 0.673125 84.8233 0.843125 84.8733 1.07312V3.32312H84.9233C85.7333 1.31312 86.8633 0.353125 88.8433 0.353125C90.1333 0.353125 91.3933 0.823124 92.1933 2.09312C92.9433 3.26312 92.9433 5.25313 92.9433 6.67313V15.9331C92.9217 16.0629 92.8544 16.1807 92.7535 16.2651C92.6526 16.3495 92.5248 16.3949 92.3933 16.3931H89.5133C89.3898 16.3853 89.2729 16.3353 89.1818 16.2516C89.0908 16.1679 89.0313 16.0555 89.0133 15.9331V7.93313C89.0133 6.33313 89.1933 3.98312 87.2133 3.98312C86.5133 3.98312 85.8633 4.44312 85.5433 5.15312C85.1433 6.05312 85.0833 6.95312 85.0833 7.94312V15.8631C85.0833 16.1631 84.8333 16.3931 84.5333 16.3931M49.1533 16.3631C49.0594 16.4411 48.9441 16.4885 48.8226 16.4993C48.7011 16.51 48.5793 16.4834 48.4733 16.4231C47.5133 15.6331 47.3433 15.2731 46.8233 14.5231C45.2533 16.1231 44.1233 16.6031 42.0933 16.6031C39.6733 16.6031 37.7933 15.1031 37.7933 12.1331C37.7587 11.1315 38.0341 10.1437 38.5817 9.30431C39.1294 8.46496 39.9226 7.81501 40.8533 7.44312C42.4133 6.76312 44.5933 6.64312 46.2533 6.44312V6.08313C46.2533 5.39313 46.3133 4.58312 45.9033 4.00312C45.5533 3.47312 44.8833 3.25312 44.2933 3.25312C43.1933 3.25312 42.2233 3.81312 41.9833 4.97312C41.9333 5.23312 41.7433 5.49313 41.4833 5.50313L38.7033 5.20312C38.4633 5.15312 38.2033 4.96312 38.2733 4.60312C38.9133 1.23312 41.9633 0.203125 44.6933 0.203125C46.0933 0.203125 47.9233 0.583125 49.0233 1.64312C50.4233 2.94312 50.2833 4.68312 50.2833 6.57312V11.0431C50.2833 12.3831 50.8433 12.9731 51.3733 13.7031C51.5533 13.9631 51.5933 14.2731 51.3633 14.4631C50.7733 14.9531 49.7333 15.8631 49.1633 16.3631H49.1533ZM46.2533 9.36312C46.2533 10.4831 46.2833 11.4131 45.7133 12.4131C45.2633 13.2131 44.5333 13.7131 43.7333 13.7131C42.6333 13.7131 41.9833 12.8731 41.9833 11.6331C41.9833 9.19312 44.1833 8.75313 46.2533 8.75313V9.36312ZM11.4933 16.3631C11.3994 16.4411 11.2841 16.4885 11.1626 16.4993C11.0411 16.51 10.9193 16.4834 10.8133 16.4231C9.86326 15.6331 9.69326 15.2731 9.16326 14.5231C7.59326 16.1231 6.47326 16.6031 4.43326 16.6031C2.01326 16.6031 0.13326 15.1031 0.13326 12.1331C0.0987503 11.1315 0.374095 10.1437 0.921728 9.30431C1.46936 8.46496 2.26261 7.81501 3.19326 7.44312C4.75326 6.76312 6.93326 6.64312 8.59326 6.44312V6.08313C8.59326 5.39313 8.65326 4.58312 8.24326 4.00312C7.90326 3.47312 7.22326 3.25312 6.64326 3.25312C5.54326 3.25312 4.56326 3.81312 4.32326 4.97312C4.27326 5.23312 4.08326 5.49313 3.82326 5.50313L1.04326 5.20312C0.81326 5.15312 0.54326 4.96312 0.61326 4.60312C1.25326 1.23312 4.31326 0.203125 7.04326 0.203125C8.44326 0.203125 10.2633 0.583125 11.3633 1.64312C12.7633 2.94312 12.6333 4.68312 12.6333 6.57312V11.0431C12.6333 12.3831 13.1833 12.9731 13.7133 13.7031C13.8933 13.9631 13.9333 14.2731 13.7033 14.4631C13.1133 14.9531 12.0733 15.8631 11.5033 16.3631H11.4933ZM8.59326 9.36312C8.59326 10.4831 8.62326 11.4131 8.06326 12.4131C7.60326 13.2131 6.88326 13.7131 6.06326 13.7131C4.96326 13.7131 4.32326 12.8731 4.32326 11.6331C4.32326 9.19312 6.52326 8.75313 8.60326 8.75313V9.36312H8.59326Z" fill="#1B1A19"/>
</svg>
