<svg width="41" height="41" viewBox="0 0 41 41" fill="none" xmlns="http://www.w3.org/2000/svg">
<path d="M31.995 20.143C31.995 26.693 26.693 31.995 20.143 31.995V20.143H31.995ZM20.143 8.29102V20.143H8.29102C8.29102 13.593 13.593 8.29102 20.143 8.29102Z" fill="#0166B1"/>
<path d="M20.143 8.29102C26.693 8.29102 31.995 13.593 31.995 20.141H20.143V8.29102ZM8.29102 20.141H20.143V31.994C13.593 31.994 8.29102 26.691 8.29102 20.141Z" fill="white"/>
<path d="M20.1431 8.29058V8.94058C26.3191 8.94058 31.3451 13.9656 31.3451 20.1426H31.9941C31.9941 13.5976 26.6891 8.29058 20.1431 8.29058ZM20.1431 31.3446C13.9671 31.3446 8.94106 26.3196 8.94106 20.1426H8.29107C8.29107 26.6876 13.5971 31.9946 20.1431 31.9946M20.1431 0.142578C9.09807 0.142578 0.143066 9.09758 0.143066 20.1426C0.143066 31.1876 9.09807 40.1426 20.1431 40.1426C31.1881 40.1426 40.1431 31.1876 40.1431 20.1426C40.1431 9.09758 31.1881 0.142578 20.1431 0.142578ZM38.8431 20.1426C38.8431 30.4696 30.4711 38.8426 20.1431 38.8426C9.81507 38.8426 1.44307 30.4696 1.44307 20.1426C1.44307 9.81558 9.81607 1.44258 20.1431 1.44258C30.4701 1.44258 38.8431 9.81558 38.8431 20.1426Z" fill="#6F6F6F"/>
<path d="M11.5959 10.4933C12.2359 9.82533 12.5969 9.05333 11.9589 8.31533C11.6109 7.91533 11.0259 7.82833 10.5429 8.02533L10.4939 8.04333L10.5099 8.00133C10.5809 7.81133 10.6269 7.20433 10.1059 6.78633C9.98062 6.68802 9.83713 6.61549 9.68369 6.57292C9.53024 6.53036 9.36989 6.5186 9.21188 6.53833C8.61188 6.59833 8.14988 7.00633 6.89388 8.39833C6.45588 8.88833 6.03388 9.39233 5.62988 9.90933L9.08289 13.1623C10.2269 11.9043 10.6929 11.4383 11.5959 10.4933ZM7.09088 9.69833C7.78688 8.85233 8.52489 8.08633 8.85989 7.78333C8.96489 7.68733 9.07989 7.59333 9.21989 7.55433C9.44689 7.49233 9.67989 7.65233 9.73389 7.88433C9.78689 8.11633 9.63988 8.33633 9.47688 8.51833C9.10888 8.93033 7.75988 10.3313 7.75988 10.3313L7.08988 9.69733L7.09088 9.69833ZM8.44289 10.9723C8.44289 10.9723 9.75588 9.59233 10.1849 9.15233C10.3549 8.97733 10.4649 8.87133 10.5819 8.81333C10.7339 8.74033 10.8989 8.72533 11.0479 8.82333C11.1175 8.86852 11.1716 8.93396 11.2029 9.01085C11.2342 9.08773 11.2412 9.17236 11.2229 9.25333C11.1799 9.44933 11.0179 9.63733 10.8829 9.78133L9.14288 11.6313L8.44289 10.9723ZM20.5379 6.61433L21.6429 4.15433L21.7139 3.93633L21.6939 4.16433L21.8099 7.45033C22.2059 7.48833 22.6009 7.54033 22.9929 7.60633L22.8129 2.73833C22.264 2.67848 21.7134 2.63613 21.1619 2.61133L20.0729 5.29533L20.0349 5.49533L19.9949 5.29533L18.9069 2.61133C18.3569 2.63433 17.8069 2.67733 17.2549 2.73833L17.0749 7.60633C17.4679 7.54133 17.8629 7.48933 18.2589 7.45033L18.3749 4.16433L18.3549 3.93633L18.4249 4.15633L19.5309 6.61433H20.5379ZM29.7189 11.7023C29.9909 11.9923 30.3819 12.4583 30.6019 12.7423L34.6469 10.1913C34.399 9.87164 34.1439 9.55756 33.8819 9.24933L31.3199 10.9313L31.1459 11.0813L31.2759 10.8913L32.4079 8.64933L31.6079 7.85433L29.3479 8.97833L29.1579 9.10733L29.3089 8.93333L31.0049 6.39033C30.6942 6.12852 30.3771 5.87444 30.0539 5.62833L27.4859 9.64233C27.8109 9.89033 28.2399 10.2563 28.5139 10.5043L30.9309 9.25833L31.0869 9.14533L30.9729 9.29833L29.7189 11.7023Z" fill="#6F6F6F"/>
</svg>
