<svg width="102" height="34" viewBox="0 0 102 34" fill="none" xmlns="http://www.w3.org/2000/svg">
<path d="M43.7432 17.7935C43.7567 18.9002 43.5481 19.9985 43.1299 21.0233C42.7117 22.048 42.0922 22.9786 41.3082 23.7598C40.5241 24.5411 39.5914 25.1572 38.5651 25.5718C37.5389 25.9863 36.4399 26.191 35.3332 26.1735C34.2273 26.1896 33.1294 25.984 32.1043 25.5688C31.0792 25.1536 30.1477 24.5373 29.3647 23.7562C28.5817 22.9751 27.9632 22.045 27.5455 21.0209C27.1279 19.9968 26.9197 18.8994 26.9332 17.7935C26.9155 16.6865 27.1209 15.5872 27.5371 14.5612C27.9532 13.5352 28.5716 12.6035 29.3555 11.8215C30.1393 11.0396 31.0725 10.4234 32.0995 10.0097C33.1264 9.59598 34.2262 9.39322 35.3332 9.41349C39.9632 9.41349 43.7332 12.9335 43.7332 17.7935H43.7432ZM40.0532 17.7935C40.0532 14.7735 37.8632 12.7135 35.3332 12.7135C32.7932 12.7135 30.6032 14.7735 30.6032 17.7935C30.6032 20.7735 32.7932 22.8635 35.3332 22.8635C37.8632 22.8635 40.0532 20.7635 40.0532 17.7935Z" fill="#EA4335"/>
<path d="M61.8729 17.7933C61.8864 18.9001 61.6779 19.9983 61.2596 21.0231C60.8414 22.0479 60.2219 22.9784 59.4379 23.7596C58.6538 24.5409 57.7211 25.157 56.6948 25.5716C55.6686 25.9862 54.5696 26.1908 53.4629 26.1733C52.357 26.1894 51.2591 25.9838 50.234 25.5686C49.2089 25.1535 48.2774 24.5371 47.4944 23.756C46.7114 22.9749 46.0929 22.0448 45.6753 21.0207C45.2576 19.9966 45.0494 18.8992 45.0629 17.7933C45.0467 16.6867 45.253 15.588 45.6696 14.5627C46.0863 13.5373 46.7047 12.6061 47.4883 11.8244C48.2718 11.0428 49.2045 10.4265 50.2308 10.0123C51.2572 9.59814 52.3563 9.39443 53.4629 9.41331C58.0929 9.41331 61.8629 12.9333 61.8629 17.7933H61.8729ZM58.1929 17.7933C58.1929 14.7733 55.9929 12.7133 53.4629 12.7133C50.9229 12.7133 48.7329 14.7733 48.7329 17.7933C48.7329 20.7733 50.9329 22.8633 53.4629 22.8633C56.0029 22.8633 58.1929 20.7633 58.1929 17.7933Z" fill="#FBBC05"/>
<path d="M79.2431 9.91211V24.9621C79.2431 31.1421 75.5931 33.6721 71.2831 33.6721C69.6935 33.6824 68.137 33.2177 66.8132 32.3375C65.4894 31.4574 64.4587 30.2019 63.8531 28.7321L67.0531 27.4021C67.383 28.2616 67.9616 29.0033 68.7151 29.5323C69.4686 30.0613 70.3626 30.3537 71.2831 30.3721C74.0431 30.3721 75.7531 28.6721 75.7531 25.4721V24.2621H75.6231C75.0705 24.8806 74.3896 25.371 73.6279 25.6992C72.8663 26.0273 72.0421 26.1853 71.2131 26.1621C67.0131 26.1621 63.1831 22.5121 63.1831 17.8221C63.1831 13.0921 67.0231 9.41211 71.2131 9.41211C73.2131 9.41211 74.7931 10.2921 75.6231 11.2821H75.7531V9.92211H79.2531L79.2431 9.91211ZM76.0131 17.8121C76.0131 14.8721 74.0431 12.7121 71.5431 12.7121C69.0031 12.7121 66.8731 14.8721 66.8731 17.8121C66.8731 20.7421 69.0031 22.8621 71.5431 22.8621C74.0431 22.8621 76.0131 20.7421 76.0131 17.8221V17.8121Z" fill="#4285F4"/>
<path d="M85.0031 1.10352V25.6435H81.4131V1.10352H85.0031Z" fill="#34A853"/>
<path d="M98.9933 20.5423L101.853 22.4423C101.088 23.5931 100.048 24.5355 98.8279 25.1848C97.6078 25.8341 96.2454 26.17 94.8633 26.1623C93.7619 26.1774 92.6688 25.9704 91.6491 25.5537C90.6295 25.137 89.7043 24.5191 88.9287 23.737C88.1531 22.9549 87.5431 22.0245 87.1349 21.0014C86.7268 19.9784 86.529 18.8836 86.5533 17.7823C86.5533 12.8023 90.1333 9.40234 94.4533 9.40234C98.8033 9.40234 100.933 12.8623 101.623 14.7323L102.003 15.6923L90.8033 20.3223C91.1474 21.1039 91.7186 21.7639 92.4425 22.2169C93.1665 22.6698 94.0099 22.8947 94.8633 22.8623C96.7433 22.8623 98.0433 21.9423 98.9933 20.5423ZM90.1933 17.5323L97.6933 14.4223C97.2733 13.3723 96.0433 12.6423 94.5833 12.6423C93.9727 12.6703 93.3739 12.8197 92.8217 13.0817C92.2695 13.3437 91.7751 13.7132 91.3673 14.1684C90.9596 14.6237 90.6466 15.1556 90.4467 15.7332C90.2469 16.3108 90.1641 16.9224 90.2033 17.5323H90.1933Z" fill="#EA4335"/>
<path d="M13.3431 15.6126V12.0426H25.3231C25.4331 12.6626 25.4931 13.3926 25.4931 14.1926C25.4931 16.8526 24.7631 20.1526 22.4131 22.5026C20.1331 24.8826 17.2131 26.1526 13.3431 26.1526C6.17307 26.1526 0.143066 20.3126 0.143066 13.1526C0.143066 5.97258 6.17307 0.142578 13.3431 0.142578C17.3131 0.142578 20.1431 1.70258 22.2631 3.73258L19.7531 6.23258C18.0347 4.5742 15.731 3.66135 13.3431 3.69258C12.106 3.69113 10.881 3.93572 9.73927 4.41211C8.59758 4.88851 7.56203 5.58719 6.69288 6.46751C5.82372 7.34783 5.13832 8.39221 4.67654 9.53988C4.21476 10.6876 3.98583 11.9156 4.00307 13.1526C4.00307 18.3926 8.10307 22.6126 13.3431 22.6126C14.5591 22.6629 15.7722 22.4574 16.9039 22.0096C18.0356 21.5617 19.0607 20.8814 19.9131 20.0126C20.9131 19.0026 21.5731 17.5626 21.8331 15.6126H13.3331H13.3431Z" fill="#4285F4"/>
</svg>
