<svg width="52" height="41" viewBox="0 0 52 41" fill="none" xmlns="http://www.w3.org/2000/svg">
<path d="M48.7218 36.1084H47.2028V35.3354H51.0788V36.1084H49.5598V40.0244H48.7218V36.1084ZM43.4168 36.1084H41.9108V35.3354H45.7748V36.1084H44.2688V40.0244H43.4168V36.1084ZM34.1178 35.3354H33.2798V40.0254H34.1178V35.3354ZM29.3508 37.4444C29.5598 37.4444 29.7298 37.3794 29.8478 37.2484C29.9695 37.1165 30.0354 36.9428 30.0318 36.7634C30.0354 36.5802 29.9697 36.4023 29.8478 36.2654C29.7843 36.2029 29.7085 36.1543 29.6252 36.1228C29.5418 36.0913 29.4528 36.0775 29.3638 36.0824H28.4728V37.4444H29.3508ZM27.6608 35.3354H29.3508C29.6258 35.3354 29.8748 35.3754 30.0708 35.4664C30.2436 35.5389 30.3985 35.6479 30.5251 35.786C30.6516 35.9241 30.7467 36.088 30.8038 36.2664C30.8568 36.4364 30.8828 36.5934 30.8828 36.7364C30.8828 37.0254 30.8178 37.3004 30.6998 37.5234C30.5673 37.7558 30.3723 37.9463 30.1368 38.0734L31.1708 40.0374H30.2148L29.3108 38.1914H28.4728V40.0374H27.6608V35.3354ZM23.9408 37.4444C24.1508 37.4444 24.3208 37.3794 24.4388 37.2484C24.5601 37.1164 24.6257 36.9426 24.6218 36.7634C24.6256 36.5803 24.5603 36.4025 24.4388 36.2654C24.3752 36.2028 24.2992 36.1542 24.2157 36.1227C24.1321 36.0912 24.043 36.0775 23.9538 36.0824H23.0638V37.4444H23.9408ZM22.2388 35.3354H23.9288C24.2028 35.3354 24.4518 35.3754 24.6488 35.4664C24.8448 35.5584 25.0018 35.6634 25.1198 35.8064C25.2378 35.9514 25.3298 36.0954 25.3818 36.2664C25.4489 36.4724 25.4741 36.6896 25.4561 36.9055C25.4381 37.1213 25.3771 37.3314 25.2768 37.5234C25.1445 37.756 24.9494 37.9466 24.7138 38.0734L25.7488 40.0374H24.7928L23.8888 38.1914H23.0378V40.0374H22.2248V35.3354H22.2388ZM18.9118 38.0994L18.3218 36.2794L17.7198 38.0994H18.9118ZM17.9028 35.3354H18.7678L20.4578 40.0254H19.5138L19.1208 38.8324H17.4578L17.0648 40.0244H16.1868L17.9028 35.3354ZM10.0708 35.3354H10.8568L12.1928 37.5494L13.5158 35.3354H14.3008L14.5108 40.0254H13.6988L13.5418 36.7764L12.3758 38.6884H11.9698L10.7908 36.8154L10.6468 40.0254H9.86084L10.0708 35.3354ZM38.4798 39.3174C38.6832 39.3225 38.885 39.2801 39.0691 39.1937C39.2533 39.1072 39.4148 38.9791 39.5408 38.8194C39.6718 38.6624 39.7628 38.4914 39.8288 38.2824C39.8938 38.0854 39.9338 37.8764 39.9338 37.6534C39.9338 37.4304 39.8938 37.2214 39.8288 37.0114C39.7698 36.8191 39.6717 36.6411 39.5408 36.4884C39.4191 36.3347 39.2615 36.2131 39.0818 36.1344C38.8944 36.0435 38.6881 35.9986 38.4798 36.0034C38.2568 36.0034 38.0608 36.0434 37.8768 36.1334C37.7025 36.2238 37.5479 36.348 37.4221 36.4987C37.2963 36.6495 37.2017 36.8237 37.1438 37.0114C37.0047 37.4233 37.0047 37.8695 37.1438 38.2814C37.2088 38.4784 37.3008 38.6614 37.4318 38.8194C37.5628 38.9764 37.7068 39.0944 37.8768 39.1864C38.0608 39.2644 38.2568 39.3174 38.4798 39.3174ZM38.4798 40.1424C38.1518 40.1424 37.8508 40.0764 37.5628 39.9454C37.2876 39.8181 37.0387 39.6403 36.8288 39.4214C36.6144 39.1936 36.4457 38.9268 36.3318 38.6354C36.0876 38.0125 36.0876 37.3203 36.3318 36.6974C36.4498 36.3964 36.6198 36.1344 36.8288 35.9114C37.0388 35.6894 37.2748 35.5184 37.5628 35.3874C37.8508 35.2574 38.1518 35.1914 38.4798 35.1914C38.8068 35.1914 39.1078 35.2564 39.3968 35.3874C39.6718 35.5184 39.9198 35.6894 40.1298 35.9114C40.3398 36.1344 40.5098 36.3964 40.6278 36.6974C40.8721 37.3203 40.8721 38.0125 40.6278 38.6354C40.514 38.927 40.3449 39.1939 40.1298 39.4214C39.9239 39.6443 39.6744 39.8227 39.3968 39.9454C39.1091 40.0768 38.7962 40.1441 38.4798 40.1424Z" fill="black"/>
<path d="M32.6771 30.6466H40.2081L27.6091 0.626578L21.2831 3.69258L25.6831 14.1446L23.6401 19.0046L15.7551 0.142578L9.36407 3.06258L14.4981 15.1126L14.4721 15.1656C11.3021 22.7756 7.42507 24.8576 7.04507 25.0016C5.84001 25.4977 4.5283 25.678 3.23407 25.5256L0.143066 32.1536C1.16507 32.7426 2.31706 33.0836 3.53506 33.0836C5.08106 33.0836 6.49506 32.5456 7.67506 31.6556L7.66106 31.6816C7.66106 31.6816 10.5811 30.2016 13.7121 22.0936C13.7121 22.0806 14.8651 19.5006 15.4801 17.8506L15.5461 17.6676L21.0461 30.6596H28.5651L24.6881 21.5176L26.7441 16.6586L32.6771 30.6466Z" fill="#A11D2B"/>
</svg>
