<svg width="58" height="41" viewBox="0 0 58 41" fill="none" xmlns="http://www.w3.org/2000/svg">
<path d="M23.9231 4.51658C25.7691 2.60458 28.3411 1.39558 31.1761 1.39558C34.9561 1.39558 38.2311 3.50558 39.9891 6.62558C41.5588 5.92542 43.2592 5.56618 44.9781 5.57158C51.7911 5.57158 57.2861 11.1316 57.2861 17.9886C57.2861 24.8456 51.7691 30.4066 44.9781 30.4066C44.1664 30.4055 43.3568 30.3245 42.5611 30.1646C41.7784 31.5642 40.6366 32.7297 39.2534 33.5409C37.8702 34.3521 36.2956 34.7797 34.6921 34.7796C33.3298 34.7787 31.9852 34.4711 30.7581 33.8796C29.1981 37.5496 25.5501 40.1426 21.3081 40.1426C16.8901 40.1426 13.1101 37.3516 11.6591 33.4176C11.0155 33.5498 10.3601 33.6161 9.70306 33.6156C4.42906 33.6156 0.165062 29.3076 0.165062 23.9666C0.161349 22.2792 0.599772 20.6203 1.43668 19.1551C2.27358 17.6899 3.47975 16.4696 4.93506 15.6156C4.32176 14.2236 4.00699 12.7186 4.01106 11.1976C3.98906 5.10958 8.97806 0.142578 15.0881 0.142578C18.6921 0.142578 21.9011 1.85658 23.9231 4.51658Z" fill="#00A1E0"/>
<path d="M8.42901 20.8896L8.67101 20.2526C8.71501 20.1426 8.78101 20.1866 8.82401 20.2086C8.89001 20.2526 8.93401 20.2746 9.02201 20.3406C9.70401 20.7806 10.341 20.7806 10.539 20.7806C11.044 20.7806 11.374 20.5166 11.374 20.1426V20.1206C11.374 19.7246 10.89 19.5706 10.319 19.3956L10.187 19.3516C9.41701 19.1316 8.58301 18.8016 8.58301 17.8346V17.8126C8.58301 16.8896 9.33001 16.2306 10.407 16.2306H10.517C11.154 16.2306 11.747 16.4066 12.187 16.6916C12.231 16.7136 12.275 16.7576 12.253 16.8236C12.231 16.8896 12.033 17.3956 12.011 17.4616C11.967 17.5716 11.857 17.5056 11.857 17.5056C11.3949 17.2663 10.8833 17.1382 10.363 17.1316C9.90101 17.1316 9.61601 17.3736 9.61601 17.7026V17.7246C9.61601 18.0986 10.121 18.2746 10.693 18.4506L10.803 18.4726C11.572 18.7136 12.385 19.0436 12.385 19.9886V20.0106C12.385 21.0216 11.66 21.6376 10.495 21.6376C9.92301 21.6376 9.37401 21.5496 8.78001 21.2416C8.67001 21.1756 8.56001 21.1316 8.45001 21.0436C8.42901 20.9996 8.38501 20.9776 8.42901 20.8896ZM25.572 20.8896L25.813 20.2526C25.857 20.1426 25.945 20.1866 25.967 20.2086C26.033 20.2526 26.077 20.2746 26.165 20.3406C26.846 20.7806 27.484 20.7806 27.682 20.7806C28.187 20.7806 28.517 20.5166 28.517 20.1426V20.1206C28.517 19.7246 28.033 19.5706 27.462 19.3956L27.33 19.3516C26.56 19.1316 25.726 18.8016 25.726 17.8346V17.8126C25.726 16.8896 26.473 16.2306 27.55 16.2306H27.66C28.297 16.2306 28.89 16.4066 29.33 16.6916C29.374 16.7136 29.418 16.7576 29.396 16.8236C29.374 16.8896 29.176 17.3956 29.154 17.4616C29.11 17.5716 29 17.5056 29 17.5056C28.5379 17.2663 28.0263 17.1382 27.506 17.1316C27.044 17.1316 26.759 17.3736 26.759 17.7026V17.7246C26.759 18.0986 27.264 18.2746 27.835 18.4506L27.945 18.4726C28.715 18.7136 29.528 19.0436 29.528 19.9886V20.0106C29.528 21.0216 28.802 21.6376 27.638 21.6376C27.066 21.6376 26.517 21.5496 25.923 21.2416C25.813 21.1756 25.703 21.1316 25.593 21.0436C25.593 20.9996 25.55 20.9776 25.572 20.8896ZM38.275 17.8796C38.363 18.2086 38.429 18.5596 38.429 18.9336C38.429 19.3076 38.385 19.6586 38.275 19.9886C38.187 20.3186 38.033 20.6036 37.835 20.8456C37.638 21.0876 37.374 21.2856 37.088 21.4176C36.7535 21.5548 36.3945 21.6222 36.033 21.6156C35.638 21.6156 35.286 21.5496 34.978 21.4176C34.686 21.2908 34.4295 21.0944 34.231 20.8456C34.0246 20.5949 33.8748 20.3026 33.792 19.9886C33.6947 19.6452 33.6429 19.2905 33.638 18.9336C33.638 18.5606 33.682 18.2086 33.792 17.8786C33.879 17.5486 34.033 17.2636 34.231 17.0216C34.429 16.7796 34.693 16.5816 34.978 16.4506C35.286 16.3186 35.638 16.2306 36.033 16.2306C36.429 16.2306 36.781 16.2966 37.088 16.4506C37.396 16.5826 37.638 16.7806 37.835 17.0216C38.033 17.2636 38.187 17.5506 38.275 17.8796ZM37.286 18.9116C37.286 18.3406 37.176 17.9016 36.978 17.5936C36.781 17.2856 36.451 17.1316 36.033 17.1316C35.594 17.1316 35.286 17.2856 35.088 17.5936C34.89 17.9006 34.781 18.3406 34.781 18.9116C34.781 19.4836 34.89 19.9226 35.088 20.2516C35.286 20.5606 35.594 20.7136 36.033 20.7136C36.473 20.7136 36.781 20.5606 36.978 20.2526C37.198 19.9446 37.286 19.4826 37.286 18.9126V18.9116ZM46.319 20.5606L46.561 21.2196C46.583 21.3076 46.517 21.3296 46.517 21.3296C46.143 21.4836 45.638 21.5716 45.132 21.5716C44.275 21.5716 43.638 21.3296 43.198 20.8456C42.759 20.3626 42.539 19.7026 42.539 18.8896C42.539 18.5166 42.583 18.1646 42.693 17.8346C42.803 17.5046 42.956 17.2196 43.176 16.9776C43.396 16.7356 43.66 16.5376 43.967 16.4066C44.3148 16.2599 44.6886 16.1851 45.066 16.1866C45.352 16.1866 45.594 16.2086 45.792 16.2306C46.011 16.2746 46.319 16.3406 46.451 16.4066C46.473 16.4066 46.539 16.4506 46.517 16.5166C46.429 16.7796 46.363 16.9566 46.275 17.1756C46.231 17.2856 46.165 17.2416 46.165 17.2416C45.8319 17.132 45.4826 17.0799 45.132 17.0876C44.649 17.0876 44.275 17.2416 44.055 17.5716C43.814 17.8786 43.682 18.2966 43.682 18.8676C43.682 19.4836 43.835 19.9226 44.099 20.2076C44.363 20.4946 44.737 20.6266 45.22 20.6266C45.418 20.6266 45.594 20.6046 45.748 20.5826C45.901 20.5606 46.055 20.5166 46.209 20.4506C46.187 20.4946 46.275 20.4726 46.319 20.5606ZM51.308 17.6806C51.528 18.4286 51.418 19.0656 51.396 19.1096C51.396 19.1976 51.308 19.1976 51.308 19.1976H47.989C48.011 19.7026 48.121 20.0546 48.385 20.2966C48.627 20.5386 49 20.6916 49.528 20.6916C50.319 20.6916 50.649 20.5386 50.89 20.4506C50.89 20.4506 50.978 20.4286 51.022 20.5166L51.242 21.1316C51.286 21.2416 51.242 21.2636 51.22 21.2856C51.022 21.3956 50.517 21.6156 49.55 21.6156C49.088 21.6156 48.671 21.5496 48.341 21.4176C48.0244 21.3003 47.7388 21.1122 47.506 20.8676C47.2908 20.6241 47.1263 20.3403 47.022 20.0326C46.914 19.6915 46.862 19.3353 46.868 18.9776C46.868 18.6036 46.912 18.2526 47.022 17.9226C47.11 17.5926 47.264 17.3076 47.462 17.0656C47.66 16.8236 47.923 16.6256 48.231 16.4946C48.539 16.3406 48.912 16.2746 49.33 16.2746C49.682 16.2746 50.011 16.3406 50.275 16.4726C50.473 16.5606 50.693 16.7136 50.912 16.9556C51.022 17.0436 51.22 17.3726 51.308 17.6806ZM48.011 18.3846H50.363C50.341 18.0766 50.275 17.8126 50.143 17.5936C49.945 17.2856 49.66 17.1096 49.22 17.1096C48.781 17.1096 48.473 17.2856 48.275 17.5936C48.143 17.7906 48.077 18.0546 48.011 18.3836V18.3846ZM24.781 17.6806C25.001 18.4286 24.891 19.0656 24.891 19.1096C24.891 19.1976 24.802 19.1976 24.802 19.1976H21.484C21.506 19.7026 21.616 20.0546 21.879 20.2966C22.121 20.5386 22.495 20.6916 23.022 20.6916C23.813 20.6916 24.143 20.5386 24.385 20.4506C24.385 20.4506 24.473 20.4286 24.517 20.5166L24.737 21.1316C24.78 21.2416 24.737 21.2636 24.715 21.2856C24.517 21.3956 24.011 21.6156 23.045 21.6156C22.583 21.6156 22.165 21.5496 21.835 21.4176C21.5184 21.3003 21.2328 21.1122 21 20.8676C20.7852 20.6241 20.621 20.3402 20.517 20.0326C20.409 19.6915 20.357 19.3353 20.363 18.9776C20.363 18.6036 20.407 18.2526 20.517 17.9226C20.605 17.5926 20.759 17.3076 20.957 17.0656C21.154 16.8236 21.417 16.6256 21.726 16.4946C22.033 16.3406 22.406 16.2746 22.824 16.2746C23.176 16.2746 23.506 16.3406 23.77 16.4726C23.967 16.5606 24.187 16.7136 24.407 16.9556C24.495 17.0436 24.715 17.3736 24.78 17.6816L24.781 17.6806ZM21.484 18.3846H23.857C23.835 18.0766 23.77 17.8126 23.637 17.5936C23.44 17.2856 23.154 17.1096 22.715 17.1096C22.275 17.1096 21.967 17.2856 21.77 17.5936C21.616 17.7906 21.55 18.0546 21.484 18.3836V18.3846ZM15.66 18.2086C15.66 18.2086 15.923 18.2306 16.21 18.2746V18.1426C16.21 17.7026 16.121 17.4826 15.945 17.3516C15.77 17.2196 15.484 17.1316 15.132 17.1316C15.132 17.1316 14.319 17.1316 13.682 17.4616C13.66 17.4836 13.638 17.4836 13.638 17.4836C13.638 17.4836 13.55 17.5056 13.528 17.4396L13.286 16.8016C13.242 16.7136 13.308 16.6696 13.308 16.6696C13.616 16.4286 14.319 16.2966 14.319 16.2966C14.6098 16.2455 14.9039 16.216 15.199 16.2086C15.858 16.2086 16.363 16.3626 16.715 16.6706C17.066 16.9776 17.242 17.4606 17.242 18.1426V21.1756C17.242 21.1756 17.242 21.2636 17.176 21.2856C17.176 21.2856 17.044 21.3296 16.934 21.3516C16.824 21.3736 16.429 21.4616 16.099 21.5056C15.769 21.5716 15.439 21.5936 15.089 21.5936C14.759 21.5936 14.473 21.5716 14.209 21.5056C13.967 21.4508 13.7365 21.354 13.528 21.2196C13.3422 21.0803 13.1915 20.8995 13.088 20.6916C12.978 20.4946 12.934 20.2306 12.934 19.9446C12.934 19.6596 13 19.3946 13.11 19.1756C13.22 18.9556 13.396 18.7796 13.594 18.6256C13.792 18.4726 14.034 18.3846 14.275 18.2956C14.5404 18.2256 14.8135 18.189 15.088 18.1866C15.352 18.2086 15.528 18.2086 15.66 18.2086ZM14.341 20.5386C14.341 20.5386 14.649 20.7796 15.308 20.7356C15.791 20.7136 16.209 20.6256 16.209 20.6256V19.1096C16.209 19.1096 15.791 19.0436 15.308 19.0436C14.627 19.0436 14.341 19.2856 14.341 19.2856C14.143 19.4176 14.055 19.6376 14.055 19.9226C14.055 20.0986 14.099 20.2526 14.165 20.3626C14.187 20.4066 14.209 20.4506 14.341 20.5386ZM42.363 16.5166C42.341 16.6036 42.165 17.0666 42.121 17.2196C42.099 17.2856 42.055 17.3076 41.989 17.3076C41.989 17.3076 41.792 17.2636 41.616 17.2636C41.506 17.2636 41.33 17.2856 41.176 17.3296C41.0214 17.3796 40.8792 17.4622 40.759 17.5716C40.627 17.6816 40.539 17.8566 40.473 18.0546C40.407 18.2526 40.363 18.5826 40.363 18.9346V21.3946C40.363 21.4616 40.319 21.5046 40.253 21.5046H39.374C39.308 21.5046 39.264 21.4616 39.264 21.3946V16.4506C39.264 16.3846 39.308 16.3406 39.352 16.3406H40.209C40.275 16.3406 40.297 16.3846 40.297 16.4506V16.8456C40.429 16.6696 40.649 16.5156 40.846 16.4286C41.044 16.3406 41.286 16.2746 41.704 16.2966C41.923 16.3186 42.209 16.3626 42.253 16.3846C42.341 16.4066 42.385 16.4286 42.363 16.5166ZM34.209 14.2306C34.231 14.2306 34.297 14.2746 34.275 14.3406L34.011 15.0436C33.989 15.0876 33.967 15.1316 33.857 15.0876C33.835 15.0876 33.792 15.0656 33.682 15.0436C33.616 15.0216 33.506 15.0216 33.418 15.0216C33.2995 15.024 33.1815 15.0387 33.066 15.0656C32.9553 15.0938 32.8558 15.1552 32.781 15.2416C32.6782 15.3417 32.596 15.4609 32.539 15.5926C32.4513 15.8342 32.3923 16.0852 32.363 16.3406H33.418C33.506 16.3406 33.528 16.3846 33.528 16.4506L33.396 17.1316C33.374 17.2416 33.286 17.2196 33.286 17.2196H32.187L31.484 21.4616C31.396 21.9016 31.308 22.2746 31.198 22.5816C31.088 22.8896 30.956 23.1096 30.759 23.3296C30.583 23.5276 30.385 23.6806 30.143 23.7466C29.923 23.8346 29.638 23.8786 29.33 23.8786C29.176 23.8786 29.022 23.8786 28.846 23.8346C28.7404 23.8184 28.6372 23.7888 28.539 23.7466C28.495 23.7246 28.473 23.6806 28.495 23.6146C28.517 23.5496 28.715 23.0216 28.737 22.9346C28.78 22.8456 28.847 22.8896 28.847 22.8896C28.912 22.9116 28.957 22.9336 29.022 22.9556C29.11 22.9776 29.198 22.9776 29.286 22.9776C29.44 22.9776 29.572 22.9556 29.682 22.9116C29.814 22.8676 29.901 22.7796 29.989 22.6696C30.077 22.5596 30.143 22.4066 30.231 22.2086C30.3123 21.9415 30.3784 21.6701 30.429 21.3956L31.176 17.2416H30.451C30.363 17.2416 30.341 17.1976 30.341 17.1316L30.473 16.4506C30.495 16.3406 30.583 16.3626 30.583 16.3626H31.33L31.374 16.1426C31.484 15.4826 31.704 14.9776 32.033 14.6476C32.363 14.3176 32.846 14.1426 33.44 14.1426C33.616 14.1426 33.77 14.1646 33.901 14.1866C34.0058 14.17 34.1131 14.1853 34.209 14.2306ZM19.396 21.3726C19.396 21.4386 19.352 21.4826 19.308 21.4826H18.428C18.363 21.4826 18.341 21.4386 18.341 21.3726V14.3176C18.341 14.2736 18.385 14.2076 18.429 14.2076H19.308C19.374 14.2076 19.396 14.2516 19.396 14.3176V21.3726Z" fill="white"/>
</svg>
