<svg width="119" height="35" viewBox="0 0 119 35" fill="none" xmlns="http://www.w3.org/2000/svg">
<path d="M25.3891 6.29819C25.5061 6.31819 25.6621 6.39619 25.6821 6.57219C25.7021 6.72819 29.2971 31.0562 29.2971 31.0562L20.4841 33.2432L0.143066 29.7272C0.143066 29.7272 2.56607 10.9492 2.66307 10.3042C2.78107 9.42419 2.82007 9.40519 3.73807 9.11219C3.75207 9.09819 4.40807 8.89619 5.44707 8.57719L6.88407 8.13519C7.08007 6.72819 7.76407 4.91119 8.68207 3.46519C9.99207 1.39419 11.5741 0.241192 13.1761 0.202192C13.9971 0.182192 14.6811 0.456191 15.2281 1.04219C15.2681 1.10019 15.3061 1.14019 15.3451 1.17919C15.4241 1.15919 15.5211 1.15919 15.5991 1.15919C16.8491 1.15919 17.8661 1.86319 18.5691 3.21119C18.7841 3.62119 18.9411 4.03119 19.0391 4.36419L20.0351 4.05119C20.1911 4.01119 20.5621 3.95319 20.7581 4.14919C20.9531 4.34419 22.9271 6.25919 22.9271 6.25919C22.9271 6.25919 25.2721 6.27919 25.3891 6.29919V6.29819ZM17.2311 4.92019C17.5111 4.83219 17.7751 4.74819 18.0221 4.67619C17.7681 3.85619 17.1821 2.48819 15.9511 2.25319C16.3221 3.23019 16.4201 4.36319 16.4401 5.16519C16.7161 5.08219 16.9811 4.99919 17.2311 4.92019ZM14.5611 5.75119L15.3841 5.49719C15.3841 4.61719 15.3061 3.30819 14.8571 2.39019C14.3871 2.58619 13.9971 2.91819 13.7041 3.23019C12.9421 4.05119 12.3171 5.30219 11.9841 6.55219C12.842 6.28168 13.701 6.01468 14.5611 5.75119ZM14.1531 1.53119C13.8801 1.35419 13.5671 1.27619 13.1961 1.27619C10.7341 1.35419 8.58407 5.20419 7.99807 7.78319L8.25407 7.70319C9.05807 7.45319 9.90906 7.18819 10.7921 6.92319C11.1051 5.28319 11.8871 3.60219 12.9021 2.50719C13.2941 2.07719 13.7241 1.74619 14.1531 1.53119ZM14.5831 14.6612L15.5991 10.8312C15.5991 10.8312 14.7201 10.3822 12.9611 10.5382C8.48707 10.8312 6.45507 13.9582 6.65007 17.0452C6.78207 19.0962 7.99707 19.9592 9.06207 20.7152C9.89406 21.3062 10.6351 21.8322 10.6951 22.8102C10.7341 23.3572 10.4021 24.1192 9.46407 24.1772C8.03707 24.2562 6.24007 22.9072 6.24007 22.9072L5.55606 25.8192C5.55606 25.8192 7.33407 27.7142 10.5781 27.5192C13.2741 27.3432 15.1501 25.1932 14.9551 22.0282C14.8011 19.6062 13.0981 18.5132 11.7491 17.6472C10.8661 17.0812 10.1351 16.6112 10.0891 15.9312C10.0691 15.5992 10.0891 14.3492 12.0821 14.2312C12.9376 14.1821 13.793 14.3292 14.5831 14.6612Z" fill="#95BF47"/>
<path d="M25.3929 6.30344C25.2729 6.28344 22.9229 6.26344 22.9229 6.26344L20.7529 4.14344C20.6821 4.06957 20.5852 4.02648 20.4829 4.02344V33.2434L29.2929 31.0534C29.2929 31.0534 25.6929 6.75344 25.6829 6.57344C25.6669 6.50297 25.6295 6.43918 25.5757 6.39084C25.522 6.3425 25.4547 6.31196 25.3829 6.30344H25.3929Z" fill="#5E8E3E"/>
<path d="M15.6032 10.8322L14.5832 14.6622C14.5832 14.6622 13.4532 14.1322 12.0832 14.2322C10.0832 14.3522 10.0732 15.6022 10.0832 15.9322C10.2032 17.6522 14.7032 18.0222 14.9532 22.0322C15.1532 25.1922 13.2732 27.3422 10.5732 27.5222C9.66437 27.6018 8.74891 27.4918 7.88479 27.1991C7.02067 26.9065 6.22672 26.4376 5.55322 25.8222L6.24322 22.9022C6.24322 22.9022 8.04322 24.2522 9.46322 24.1722C9.63491 24.1687 9.80406 24.1301 9.96029 24.0588C10.1165 23.9875 10.2565 23.885 10.3717 23.7577C10.4869 23.6303 10.5748 23.4807 10.6301 23.3181C10.6854 23.1556 10.7069 22.9834 10.6932 22.8122C10.5532 20.5822 6.89322 20.7022 6.65322 17.0422C6.45322 13.9522 8.48322 10.8322 12.9532 10.5422C14.7232 10.3822 15.6032 10.8322 15.6032 10.8322Z" fill="white"/>
<path d="M41.2429 19.0029C40.2229 18.4529 39.6929 17.9829 39.6929 17.3429C39.6929 16.5129 40.4129 15.9929 41.5729 15.9929C42.8929 15.9929 44.0729 16.5329 44.0729 16.5329L45.0029 13.6829C45.0029 13.6829 44.1429 13.0229 41.6229 13.0229C38.1129 13.0229 35.6628 15.0329 35.6628 17.8629C35.6628 19.4629 36.8029 20.7029 38.3229 21.5829C39.5529 22.2829 39.9828 22.7729 39.9828 23.5129C39.9828 24.2729 39.3829 24.8829 38.2229 24.8829C36.5229 24.8829 34.9229 24.0029 34.9229 24.0029L33.9229 26.8529C33.9229 26.8529 35.4129 27.8529 37.8929 27.8529C41.5129 27.8529 44.1129 26.0729 44.1129 22.8729C44.1329 21.1329 42.8128 19.9029 41.2328 19.0029H41.2429ZM55.6529 12.9829C53.8829 12.9829 52.4729 13.8229 51.3929 15.1129L51.3428 15.0929L52.8829 6.99289H48.8428L44.9429 27.5729H48.9629L50.3129 20.5429C50.8429 17.8829 52.2129 16.2429 53.4929 16.2429C54.3929 16.2429 54.7429 16.8429 54.7429 17.7329C54.7429 18.2729 54.6929 18.9629 54.5729 19.5029L53.0429 27.5529H57.0729L58.6529 19.2329C58.8329 18.3529 58.9529 17.3029 58.9529 16.6129C58.9529 14.3729 57.7329 12.9829 55.6529 12.9829ZM68.0629 12.9829C63.2229 12.9829 60.0129 17.3529 60.0129 22.2429C60.0129 25.3729 61.9529 27.8729 65.5629 27.8729C70.3129 27.8729 73.5329 23.6129 73.5329 18.6129C73.5129 15.7329 71.8129 12.9829 68.0629 12.9829ZM66.0629 24.7829C64.7029 24.7829 64.1129 23.6129 64.1129 22.1629C64.1129 19.8629 65.3129 16.0829 67.5029 16.0829C68.9229 16.0829 69.4029 17.3229 69.4029 18.5129C69.4029 20.9929 68.2029 24.7829 66.0729 24.7829H66.0629ZM83.8129 12.9829C81.1029 12.9829 79.5529 15.3629 79.5529 15.3629H79.4929L79.7328 13.1929H76.1729C75.9615 14.9819 75.688 16.7629 75.3529 18.5329L72.5529 33.2629H76.5829L77.7029 27.3029H77.7729C77.7729 27.3029 78.5929 27.8329 80.1429 27.8329C84.8729 27.8329 87.9529 22.9829 87.9529 18.0829C87.9729 15.4029 86.7629 12.9829 83.8129 12.9829ZM79.9629 24.8429C78.9129 24.8429 78.3029 24.2529 78.3029 24.2529L78.9729 20.4829C79.4329 17.9829 80.7429 16.3029 82.1529 16.3029C83.3829 16.3029 83.7529 17.4329 83.7529 18.5329C83.7529 21.1329 82.2129 24.8329 79.9629 24.8329V24.8429ZM93.7229 7.21289C93.4166 7.21282 93.1133 7.27392 92.831 7.39262C92.5486 7.51132 92.2928 7.68523 92.0786 7.90413C91.8643 8.12302 91.696 8.38251 91.5834 8.66736C91.4708 8.9522 91.4162 9.25667 91.4229 9.56289C91.4229 10.7529 92.1729 11.5729 93.3129 11.5729H93.3728C94.6228 11.5729 95.7128 10.7329 95.7328 9.23289C95.7328 8.05289 94.9529 7.21289 93.7229 7.21289ZM88.0928 27.5729H92.1228L94.8529 13.3129H90.7928L88.0928 27.5729ZM105.093 13.2729H102.293L102.433 12.6129C102.673 11.2429 103.493 10.0129 104.823 10.0129C105.543 10.0129 106.113 10.2129 106.113 10.2129L106.893 7.06289C106.893 7.06289 106.193 6.71289 104.703 6.71289C103.273 6.71289 101.853 7.11289 100.753 8.05289C99.3829 9.23289 98.7429 10.9129 98.4129 12.6129L98.2928 13.2729H96.4129L95.8329 16.3029H97.7029L95.5728 27.5729H99.6029L101.733 16.3029H104.503L105.103 13.2729H105.093ZM114.793 13.3129C114.793 13.3129 112.263 19.6629 111.133 23.1129H111.073C110.993 22.0129 110.073 13.3129 110.073 13.3129H105.853L108.283 26.4229C108.333 26.7229 108.303 26.8929 108.203 27.0929C107.672 28.0631 106.918 28.8927 106.003 29.5129C105.253 30.0629 104.403 30.4129 103.723 30.6429L104.843 34.0629C105.663 33.8929 107.343 33.2229 108.783 31.8729C110.623 30.1529 112.323 27.5029 114.063 23.8829L118.983 13.3129H114.783H114.793Z" fill="black"/>
</svg>
