<svg width="46" height="41" viewBox="0 0 46 41" fill="none" xmlns="http://www.w3.org/2000/svg">
<path fill-rule="evenodd" clip-rule="evenodd" d="M0.143066 40.1426H45.8401V0.142578H0.143066V40.1426ZM22.0151 12.4966C21.9911 14.2526 21.9911 15.9146 20.5061 17.4596C18.7001 19.3566 15.3361 19.9876 12.6891 19.9876C11.4493 19.9955 10.2127 19.8623 9.00307 19.5906C8.16307 19.4036 7.07407 19.0756 5.98607 18.3966C3.23907 16.6406 3.21606 14.4626 3.21606 12.4966V2.89858H7.56907V12.6146C7.56907 14.0886 7.89007 15.3286 9.54807 16.0786C10.9581 16.7116 12.2191 16.6646 13.5061 16.6176C15.1631 16.4756 16.2271 16.0546 16.9201 15.3066C17.3401 14.8376 17.7121 14.2996 17.6611 12.6366V2.89858H22.0161L22.0151 12.4966ZM22.1791 32.5966C22.1791 33.5556 21.9461 34.5626 21.3531 35.3816C19.9361 37.3256 17.5901 37.3256 15.8121 37.3476H3.30807V20.8226H15.1151C16.9971 20.8686 19.2911 20.9156 20.5291 22.5306C21.1731 23.3736 21.2511 24.2866 21.2511 24.8716C21.2511 25.3166 21.1991 26.2536 20.5291 27.0716C19.7811 27.9616 18.8021 28.2426 18.2351 28.3826C19.3691 28.6646 22.1791 29.2956 22.1791 32.5976V32.5966ZM37.5381 12.5206L42.8321 19.4256H37.6871L33.0111 12.7776H28.0391V19.4256H23.6601V2.89858H35.6821C37.6621 2.89858 39.4671 3.06258 40.9271 4.65458C41.8181 5.63758 42.0651 6.87858 42.0651 7.83858C42.0651 9.10258 41.6201 10.6016 40.3831 11.4906C39.4431 12.1696 38.2301 12.4026 37.5381 12.5206ZM42.9311 37.3736H38.6021L29.9441 28.0566C29.1674 27.2137 28.4167 26.3473 27.6931 25.4586C27.8171 26.7226 27.8171 27.0036 27.8411 28.2676V37.3736H23.6861V20.8466H28.0401L36.5981 30.0466C37.6371 31.1936 37.8351 31.4286 38.9241 32.7166C38.7761 31.1466 38.7761 30.7256 38.7511 29.2976V20.8466H42.9311V37.3736ZM37.6371 7.88558C37.6371 7.55758 37.5871 6.99558 37.2911 6.59758C36.9691 6.19958 36.5481 5.80158 34.8171 5.80158H28.0391V9.85158H35.0151C35.9541 9.85158 37.6371 9.73458 37.6371 7.88558ZM17.6161 32.1976C17.6161 30.2076 15.8891 30.2076 15.2191 30.2076H7.82007V34.4456H14.6521C15.6821 34.4456 17.6161 34.4686 17.6161 32.1976ZM16.8941 25.4796C16.8941 23.7236 15.4241 23.6996 14.7021 23.6996H7.82007V27.3296H14.3421C14.8831 27.3296 15.3981 27.3056 15.8121 27.1646C16.8941 26.7666 16.8941 25.6666 16.8941 25.4796Z" fill="black"/>
</svg>
