<svg width="130" height="31" viewBox="0 0 130 31" fill="none" xmlns="http://www.w3.org/2000/svg">
<path d="M15.1331 0.14263C6.94007 0.14263 0.271067 6.81063 0.267067 15.0066C0.267067 17.6266 0.951068 20.1846 2.25207 22.4386L0.143066 30.1426L8.02307 28.0756C10.2027 29.2627 12.6451 29.8847 15.1271 29.8846H15.1331C23.3261 29.8846 29.9951 23.2146 29.9991 15.0196C30.0054 13.0661 29.6243 11.1306 28.8776 9.32538C28.1309 7.52013 27.0336 5.88091 25.6491 4.50263C24.2719 3.11628 22.6332 2.01704 20.8281 1.26862C19.0229 0.520198 17.0872 0.137475 15.1331 0.14263ZM15.1331 27.3736H15.1281C12.9121 27.3736 10.7361 26.7766 8.84007 25.6516L8.38906 25.3846L3.71307 26.6106L4.96107 22.0516L4.66706 21.5846C3.42935 19.6148 2.77413 17.335 2.77707 15.0086C2.78007 8.19563 8.32306 2.65363 15.1391 2.65363C18.4391 2.65463 21.5411 3.94163 23.8731 6.27763C25.0236 7.42308 25.9356 8.78532 26.5563 10.2855C27.177 11.7857 27.494 13.3941 27.4891 15.0176C27.4871 21.8306 21.9441 27.3736 15.1331 27.3736ZM21.9101 18.1206C21.5401 17.9346 19.7131 17.0356 19.3721 16.9116C19.0321 16.7876 18.7841 16.7256 18.5361 17.0976C18.2891 17.4696 17.5771 18.3066 17.3611 18.5546C17.1441 18.8026 16.9271 18.8336 16.5561 18.6476C16.1851 18.4616 14.9871 18.0676 13.5691 16.8036C12.4651 15.8186 11.7191 14.6016 11.5031 14.2306C11.2871 13.8586 11.4801 13.6576 11.6661 13.4726C11.8331 13.3066 12.0371 13.0386 12.2231 12.8216C12.4091 12.6046 12.4711 12.4496 12.5941 12.2016C12.7181 11.9536 12.6561 11.7366 12.5641 11.5506C12.4701 11.3646 11.7271 9.53563 11.4181 8.79263C11.1161 8.06863 10.8101 8.16563 10.5821 8.15463C10.3449 8.14435 10.1075 8.14002 9.87007 8.14163C9.62307 8.14163 9.22007 8.23463 8.88007 8.60663C8.53907 8.97863 7.58007 9.87663 7.58007 11.7046C7.58007 13.5336 8.91007 15.2996 9.09607 15.5476C9.28207 15.7956 11.7151 19.5476 15.4411 21.1556C16.3271 21.5386 17.0191 21.7666 17.5591 21.9376C18.4491 22.2206 19.2591 22.1806 19.8981 22.0846C20.6111 21.9776 22.0961 21.1866 22.4051 20.3176C22.7151 19.4506 22.7151 18.7076 22.6211 18.5516C22.5281 18.3966 22.2811 18.3036 21.9101 18.1176V18.1206ZM48.2091 17.8936H48.1691L45.7041 7.95063H42.7341L40.2291 17.7726H40.1891L37.9061 7.95163H34.7351L38.5531 22.3806H41.7651L44.1691 12.5586H44.2091L46.6541 22.3806H49.8061L53.6851 7.95063H50.5731L48.2091 17.8936ZM63.3611 12.8316C63.0781 12.4616 62.6911 12.1716 62.2001 11.9616C61.7081 11.7546 61.0781 11.6506 60.3101 11.6506C59.7721 11.6506 59.2201 11.7876 58.6541 12.0646C58.0881 12.3406 57.6241 12.7816 57.2601 13.3886H57.1991V7.95163H54.3311V22.3796H57.1991V16.9026C57.1991 15.8376 57.3741 15.0736 57.7251 14.6086C58.0751 14.1436 58.6411 13.9116 59.4221 13.9116C60.1081 13.9116 60.5861 14.1236 60.8561 14.5486C61.1261 14.9726 61.2611 15.6156 61.2611 16.4776V22.3776H64.1301V15.9526C64.1301 15.3056 64.0721 14.7166 63.9581 14.1836C63.8431 13.6536 63.6441 13.2026 63.3611 12.8316ZM75.1791 20.0556V14.6206C75.1791 13.9856 75.0391 13.4776 74.7551 13.0946C74.4713 12.7095 74.0969 12.4003 73.6651 12.1946C73.1991 11.9729 72.7009 11.8265 72.1891 11.7606C71.6605 11.6873 71.1276 11.6503 70.5941 11.6496C70.0151 11.6496 69.4391 11.7056 68.8671 11.8216C68.3231 11.9255 67.8004 12.1202 67.3211 12.3976C66.8678 12.6636 66.4813 13.0296 66.1911 13.4676C65.8941 13.9126 65.7251 14.4716 65.6851 15.1456H68.5541C68.6081 14.5806 68.7971 14.1756 69.1201 13.9326C69.4431 13.6906 69.8881 13.5696 70.4531 13.5696C70.7091 13.5696 70.9481 13.5866 71.1701 13.6196C71.3921 13.6546 71.5871 13.7196 71.7561 13.8216C71.9241 13.9226 72.0591 14.0646 72.1601 14.2466C72.2611 14.4286 72.3111 14.6746 72.3111 14.9836C72.3241 15.2806 72.2361 15.5046 72.0491 15.6606C71.8591 15.8156 71.6041 15.9346 71.2801 16.0146C70.9149 16.1032 70.5435 16.1637 70.1691 16.1956C69.7511 16.2376 69.3271 16.2926 68.8971 16.3586C68.4651 16.4256 68.0381 16.5166 67.6141 16.6306C67.2099 16.7359 66.827 16.9101 66.4821 17.1456C66.1521 17.3756 65.8821 17.6816 65.6731 18.0656C65.4651 18.4496 65.3601 18.9396 65.3601 19.5306C65.3601 20.0696 65.4511 20.5346 65.6331 20.9246C65.8151 21.3166 66.0681 21.6386 66.3911 21.8946C66.7141 22.1516 67.0911 22.3406 67.5221 22.4616C67.9521 22.5826 68.4181 22.6436 68.9161 22.6436C69.5596 22.6437 70.1995 22.5483 70.8151 22.3606C71.43 22.1742 71.9868 21.833 72.4321 21.3696C72.4566 21.7134 72.5242 22.0527 72.6331 22.3796H75.5431C75.4081 22.1646 75.3131 21.8416 75.2591 21.4096C75.2039 20.9604 75.1779 20.5082 75.1791 20.0556ZM72.3111 18.3376C72.3111 18.5006 72.2951 18.7166 72.2611 18.9856C72.2281 19.2556 72.1361 19.5206 71.9881 19.7836C71.8391 20.0466 71.6101 20.2736 71.3001 20.4606C70.9911 20.6506 70.5531 20.7436 69.9871 20.7436C69.7581 20.7436 69.5361 20.7236 69.3201 20.6826C69.1198 20.6481 68.9278 20.5761 68.7541 20.4706C68.5918 20.3684 68.4594 20.2253 68.3701 20.0556C68.2703 19.8553 68.2219 19.6333 68.2291 19.4096C68.2291 19.1406 68.2761 18.9176 68.3701 18.7426C68.4609 18.5717 68.5891 18.4233 68.7451 18.3086C68.9106 18.1884 69.0947 18.0962 69.2901 18.0356C69.4981 17.9686 69.7101 17.9146 69.9271 17.8736C70.1551 17.8336 70.3851 17.7986 70.6131 17.7736C70.8431 17.7466 71.0611 17.7126 71.2701 17.6716C71.4791 17.6316 71.6741 17.5816 71.8571 17.5206C72.0381 17.4596 72.1891 17.3766 72.3111 17.2676V18.3376ZM80.5341 8.80063H77.6651V11.9316H75.9281V13.8516H77.6651V20.0156C77.6651 20.5416 77.7531 20.9656 77.9281 21.2886C78.1041 21.6116 78.3431 21.8626 78.6451 22.0366C78.9699 22.2197 79.3266 22.3394 79.6961 22.3896C80.0931 22.4496 80.5151 22.4806 80.9591 22.4806C81.2431 22.4806 81.5321 22.4736 81.8291 22.4616C82.0998 22.4506 82.3696 22.4236 82.6371 22.3806V20.1576C82.4967 20.1857 82.3548 20.2058 82.2121 20.2176C82.0579 20.2324 81.903 20.2394 81.7481 20.2386C81.2641 20.2386 80.9401 20.1576 80.7781 19.9956C80.6171 19.8336 80.5371 19.5106 80.5371 19.0256V13.8516H82.6381V11.9316H80.5371V8.79963H80.5341V8.80063ZM92.3921 17.8036C92.206 17.4762 91.9512 17.193 91.6451 16.9736C91.3194 16.7445 90.9619 16.5642 90.5841 16.4386C90.1828 16.3038 89.7749 16.1893 89.3621 16.0956C88.9659 16.0027 88.5685 15.915 88.1701 15.8326C87.8182 15.7616 87.4707 15.6708 87.1291 15.5606C86.8606 15.4775 86.6107 15.3434 86.3931 15.1656C86.3016 15.0896 86.2287 14.9937 86.1798 14.8852C86.1309 14.7767 86.1074 14.6585 86.1111 14.5396C86.1111 14.3236 86.1631 14.1516 86.2721 14.0246C86.3793 13.8979 86.5141 13.7973 86.6661 13.7306C86.8221 13.6636 86.9921 13.6206 87.1811 13.5996C87.3691 13.5796 87.5451 13.5696 87.7061 13.5696C88.2171 13.5696 88.6621 13.6676 89.0401 13.8626C89.4171 14.0586 89.6261 14.4326 89.6651 14.9836H92.3931C92.3391 14.3376 92.1741 13.8016 91.8981 13.3766C91.6325 12.9627 91.277 12.6141 90.8581 12.3566C90.4191 12.0917 89.9366 11.9068 89.4331 11.8106C88.8915 11.7022 88.3404 11.6482 87.7881 11.6496C87.2231 11.6496 86.6691 11.6996 86.1321 11.7996C85.6206 11.8911 85.1285 12.0693 84.6771 12.3266C84.2492 12.5728 83.8909 12.9238 83.6361 13.3466C83.3731 13.7766 83.2421 14.3296 83.2421 15.0036C83.2421 15.4616 83.3361 15.8496 83.5261 16.1666C83.7131 16.4836 83.9631 16.7446 84.2711 16.9546C84.5831 17.1626 84.9361 17.3326 85.3331 17.4596C85.7301 17.5896 86.1381 17.6996 86.5551 17.7936C87.5801 18.0096 88.3781 18.2246 88.9501 18.4416C89.5231 18.6566 89.8081 18.9796 89.8081 19.4116C89.8081 19.6676 89.7481 19.8776 89.6271 20.0466C89.5076 20.2137 89.3521 20.3518 89.1721 20.4506C88.9825 20.555 88.7782 20.6299 88.5661 20.6726C88.3568 20.7186 88.1433 20.7424 87.9291 20.7436C87.6461 20.7436 87.3741 20.7096 87.1111 20.6436C86.8614 20.5818 86.6249 20.4754 86.4131 20.3296C86.2099 20.1863 86.0409 19.9998 85.9181 19.7836C85.785 19.5392 85.7188 19.2639 85.7261 18.9856H82.9991C83.0271 19.6856 83.1841 20.2686 83.4751 20.7336C83.7534 21.1884 84.1333 21.5724 84.5851 21.8556C85.0361 22.1376 85.5521 22.3406 86.1321 22.4616C87.2942 22.7014 88.4926 22.7048 89.6561 22.4716C90.1971 22.3697 90.7143 22.1676 91.1811 21.8756C91.6256 21.5935 91.9963 21.2091 92.2621 20.7546C92.5381 20.2886 92.6761 19.7136 92.6761 19.0256C92.6761 18.5406 92.5821 18.1336 92.3941 17.8046L92.3921 17.8036ZM98.0891 7.95063L92.6341 22.3806H95.8261L96.9571 19.1666H102.351L103.441 22.3806H106.735L101.341 7.95063H98.0891ZM97.7861 16.8036L99.6651 11.5086H99.7051L101.524 16.8036H97.7861ZM116.655 13.3476C116.261 12.8325 115.757 12.4116 115.18 12.1156C114.588 11.8056 113.881 11.6506 113.06 11.6506C112.413 11.6506 111.821 11.7776 111.282 12.0336C110.742 12.2896 110.299 12.7006 109.949 13.2666H109.908V11.9316H107.18V26.0386H110.051V21.0876H110.09C110.44 21.5996 110.889 21.9866 111.435 22.2476C111.993 22.5136 112.605 22.6487 113.223 22.6426C113.991 22.6426 114.661 22.4926 115.233 22.1976C115.793 21.9109 116.283 21.5034 116.667 21.0046C117.058 20.4908 117.35 19.9085 117.527 19.2876C117.713 18.6406 117.809 17.9676 117.809 17.2666C117.809 16.5256 117.713 15.8156 117.527 15.1336C117.354 14.4877 117.058 13.8808 116.657 13.3456L116.655 13.3476ZM114.817 18.4196C114.735 18.8246 114.597 19.1776 114.403 19.4796C114.207 19.7836 113.952 20.0296 113.634 20.2186C113.318 20.4066 112.924 20.5026 112.453 20.5026C111.982 20.5026 111.605 20.4076 111.282 20.2186C110.967 20.0386 110.7 19.7855 110.504 19.4806C110.299 19.1557 110.156 18.7962 110.08 18.4196C109.992 18.0149 109.948 17.6018 109.949 17.1876C109.949 16.7716 109.988 16.3376 110.069 15.9346C110.141 15.5549 110.282 15.1915 110.485 14.8626C110.678 14.5526 110.935 14.3016 111.253 14.1056C111.569 13.9106 111.962 13.8116 112.434 13.8116C112.905 13.8116 113.28 13.9106 113.595 14.1056C113.912 14.3006 114.172 14.5556 114.373 14.8736C114.575 15.1906 114.719 15.5506 114.808 15.9536C114.895 16.3595 114.939 16.7735 114.938 17.1886C114.938 17.6066 114.898 18.0166 114.817 18.4186V18.4196ZM128.958 15.1356C128.786 14.4894 128.491 13.8824 128.089 13.3476C127.695 12.8328 127.192 12.4119 126.615 12.1156C126.022 11.8056 125.314 11.6506 124.493 11.6506C123.847 11.6506 123.254 11.7776 122.716 12.0336C122.177 12.2896 121.732 12.7006 121.382 13.2666H121.343V11.9316H118.615V26.0386H121.484V21.0876H121.525C121.875 21.5996 122.323 21.9866 122.868 22.2476C123.426 22.5134 124.038 22.6485 124.656 22.6426C125.424 22.6426 126.093 22.4926 126.666 22.1976C127.227 21.9112 127.716 21.5037 128.1 21.0046C128.485 20.5056 128.77 19.9346 128.959 19.2876C129.148 18.6406 129.242 17.9676 129.242 17.2666C129.242 16.5256 129.148 15.8156 128.959 15.1336L128.958 15.1356ZM126.25 18.4196C126.181 18.7962 126.041 19.1561 125.836 19.4796C125.64 19.7836 125.385 20.0296 125.068 20.2186C124.752 20.4066 124.358 20.5026 123.886 20.5026C123.415 20.5026 123.038 20.4076 122.714 20.2186C122.399 20.0386 122.132 19.7855 121.936 19.4806C121.732 19.1555 121.588 18.796 121.512 18.4196C121.424 18.0149 121.38 17.6018 121.38 17.1876C121.38 16.7716 121.421 16.3376 121.502 15.9346C121.574 15.5549 121.714 15.1916 121.917 14.8626C122.111 14.5526 122.368 14.3016 122.685 14.1056C123 13.9106 123.395 13.8116 123.866 13.8116C124.338 13.8116 124.711 13.9106 125.027 14.1056C125.345 14.3006 125.604 14.5556 125.806 14.8736C126.008 15.1906 126.154 15.5506 126.24 15.9536C126.329 16.3586 126.372 16.7706 126.372 17.1886C126.372 17.6066 126.331 18.0166 126.25 18.4186V18.4196Z" fill="#25D366"/>
</svg>
