<svg width="23" height="36" viewBox="0 0 23 36" fill="none" xmlns="http://www.w3.org/2000/svg">
<path d="M12.5431 1.00336L20.9431 9.27336C21.3222 9.645 21.6236 10.0884 21.8296 10.5777C22.0356 11.067 22.1422 11.5924 22.1431 12.1234V32.6234C22.1431 33.419 21.827 34.1821 21.2644 34.7447C20.7018 35.3073 19.9387 35.6234 19.1431 35.6234H3.14307C2.34742 35.6234 1.58435 35.3073 1.02175 34.7447C0.459137 34.1821 0.143066 33.419 0.143066 32.6234V12.1234C0.143939 11.5924 0.250495 11.067 0.45652 10.5777C0.662545 10.0884 0.963918 9.645 1.34307 9.27336L9.74306 1.00336C10.1169 0.636901 10.6196 0.431641 11.1431 0.431641C11.6666 0.431641 12.1692 0.636901 12.5431 1.00336ZM11.1431 6.62336C10.3474 6.62336 9.58436 6.93943 9.02175 7.50204C8.45914 8.06465 8.14307 8.82771 8.14307 9.62336C8.14307 10.419 8.45914 11.1821 9.02175 11.7447C9.58436 12.3073 10.3474 12.6234 11.1431 12.6234C11.9387 12.6234 12.7018 12.3073 13.2644 11.7447C13.827 11.1821 14.1431 10.419 14.1431 9.62336C14.1431 8.82771 13.827 8.06465 13.2644 7.50204C12.7018 6.93943 11.9387 6.62336 11.1431 6.62336Z" fill="#7A73FF"/>
</svg>
