<svg width="34" height="33" viewBox="0 0 34 33" fill="none" xmlns="http://www.w3.org/2000/svg">
<path d="M32.9352 2.37942L33.0271 14.1669C33.0324 14.6978 32.932 15.2244 32.7316 15.7161C32.5313 16.2078 32.2351 16.6546 31.8603 17.0307L17.3647 31.5264C16.802 32.089 16.039 32.4051 15.2433 32.4051C14.4477 32.4051 13.6846 32.089 13.122 31.5264L1.8083 20.2127C1.24569 19.6501 0.929619 18.887 0.92962 18.0913C0.929621 17.2957 1.24569 16.5326 1.8083 15.97L16.304 1.47433C16.68 1.09953 17.1269 0.803342 17.6186 0.60303C18.1103 0.402718 18.6369 0.30229 19.1678 0.3076L30.9553 0.399521C31.4787 0.404756 31.9793 0.615034 32.3495 0.985208C32.7196 1.35538 32.9299 1.85594 32.9352 2.37942ZM27.9713 5.36341C27.4087 4.8008 26.6456 4.48474 25.8499 4.48474C25.0543 4.48474 24.2912 4.8008 23.7286 5.36341C23.166 5.92602 22.8499 6.68909 22.8499 7.48473C22.8499 8.28038 23.166 9.04345 23.7286 9.60606C24.2912 10.1687 25.0543 10.4847 25.8499 10.4847C26.6456 10.4847 27.4087 10.1687 27.9713 9.60606C28.5339 9.04345 28.8499 8.28038 28.8499 7.48473C28.8499 6.68909 28.5339 5.92602 27.9713 5.36341Z" fill="#80E9FF"/>
</svg>
