<svg width="33" height="41" viewBox="0 0 33 41" fill="none" xmlns="http://www.w3.org/2000/svg">
<path d="M5.27307 0.623047H22.0131C23.8031 0.623047 24.4431 0.813048 25.0931 1.15305C25.7531 1.50305 26.2631 2.01305 26.6131 2.67305C26.9531 3.32305 27.1431 3.97305 27.1431 5.75305V30.493C27.1431 32.283 26.9531 32.923 26.6131 33.573C26.2715 34.2216 25.7416 34.7515 25.0931 35.093C24.4431 35.433 23.7931 35.623 22.0131 35.623H5.27307C3.48307 35.623 2.84307 35.433 2.19307 35.093C1.54456 34.7515 1.01466 34.2216 0.673067 33.573C0.333067 32.923 0.143066 32.273 0.143066 30.493V5.75305C0.143066 3.96305 0.333067 3.32305 0.673067 2.67305C1.02307 2.01305 1.53307 1.50305 2.19307 1.15305C2.84307 0.813048 3.49307 0.623047 5.27307 0.623047Z" fill="#80E9FF"/>
<path d="M30.093 6.15305C30.753 6.50305 31.263 7.01305 31.613 7.67305C31.953 8.32305 32.143 8.97305 32.143 10.753V35.493C32.143 37.283 31.953 37.923 31.613 38.573C31.2714 39.2215 30.7415 39.7515 30.093 40.093C29.443 40.433 28.793 40.623 27.013 40.623H10.273C8.48301 40.623 7.84301 40.433 7.19301 40.093C6.54451 39.7515 6.0146 39.2215 5.67301 38.573C5.33301 37.923 5.14301 37.273 5.14301 35.493V20.623C5.14301 17.623 4.14301 13.623 14.143 14.623C14.143 12.623 13.143 5.62305 18.643 5.62305H27.143C28.923 5.62305 29.443 5.81305 30.093 6.15305Z" fill="#7A73FF"/>
<mask id="mask0_4031_2" style="mask-type:luminance" maskUnits="userSpaceOnUse" x="0" y="0" width="28" height="36">
<path d="M5.27307 0.623047H22.0131C23.8031 0.623047 24.4431 0.813048 25.0931 1.15305C25.7531 1.50305 26.2631 2.01305 26.6131 2.67305C26.9531 3.32305 27.1431 3.97305 27.1431 5.75305V30.493C27.1431 32.283 26.9531 32.923 26.6131 33.573C26.2715 34.2216 25.7416 34.7515 25.0931 35.093C24.4431 35.433 23.7931 35.623 22.0131 35.623H5.27307C3.48307 35.623 2.84307 35.433 2.19307 35.093C1.54456 34.7515 1.01466 34.2216 0.673067 33.573C0.333067 32.923 0.143066 32.273 0.143066 30.493V5.75305C0.143066 3.96305 0.333067 3.32305 0.673067 2.67305C1.02307 2.01305 1.53307 1.50305 2.19307 1.15305C2.84307 0.813048 3.49307 0.623047 5.27307 0.623047Z" fill="white"/>
</mask>
<g mask="url(#mask0_4031_2)">
<path d="M30.093 6.15305C30.753 6.50305 31.263 7.01305 31.613 7.67305C31.953 8.32305 32.143 8.97305 32.143 10.753V35.493C32.143 37.283 31.953 37.923 31.613 38.573C31.2714 39.2215 30.7415 39.7515 30.093 40.093C29.443 40.433 28.793 40.623 27.013 40.623H10.273C8.48301 40.623 7.84301 40.433 7.19301 40.093C6.54451 39.7515 6.0146 39.2215 5.67301 38.573C5.33301 37.923 5.14301 37.273 5.14301 35.493V20.623C5.14301 17.623 4.14301 13.623 14.143 14.623C14.143 12.623 13.143 5.62305 18.643 5.62305H27.143C28.923 5.62305 29.443 5.81305 30.093 6.15305Z" fill="#0048E5"/>
</g>
</svg>
