<svg width="11" height="101" viewBox="0 0 11 101" fill="none" xmlns="http://www.w3.org/2000/svg">
<g clip-path="url(#clip0_4003_11872)">
<mask id="mask0_4003_11872" style="mask-type:alpha" maskUnits="userSpaceOnUse" x="0" y="0" width="11" height="101">
<g clip-path="url(#clip1_4003_11872)">
<path d="M10.2627 0.0351562L5.50011 7.17904L0.737515 0.0351562M10.2627 13.1323L5.50011 20.2762L0.737515 13.1323M10.2627 26.2294L5.50011 33.3733L0.737515 26.2294M10.2627 39.3265L5.50011 46.4704L0.737515 39.3265M10.2627 52.4236L5.50011 59.5675L0.737515 52.4236M10.2627 65.5208L5.50011 72.6646L0.737515 65.5208M10.2627 78.6179L5.50011 85.7618L0.737515 78.6179M10.2627 91.715L5.50011 98.8589L0.737515 91.715M10.2627 104.812L5.50011 111.956L0.737515 104.812M10.2627 117.909L5.50011 125.053L0.737515 117.909M10.2627 131.006L5.50011 138.15L0.737515 131.006M10.2627 144.104L5.50011 151.247L0.737515 144.104M10.2627 157.201L5.50011 164.345L0.737515 157.201M10.2627 170.298L5.50011 177.442L0.737515 170.298M10.2627 183.395L5.50011 190.539L0.737515 183.395M10.2627 196.492L5.50011 203.636L0.737515 196.492" fill="black"/>
</g>
</mask>
<g mask="url(#mask0_4003_11872)">
<rect x="10.2627" y="0.0351562" width="100.014" height="9.52518" transform="rotate(90 10.2627 0.0351562)" fill="url(#paint0_linear_4003_11872)"/>
</g>
</g>
<defs>
<linearGradient id="paint0_linear_4003_11872" x1="10.2627" y1="4.79775" x2="110.277" y2="4.79775" gradientUnits="userSpaceOnUse">
<stop stop-color="#0073E6"/>
<stop offset="1" stop-color="#3DC9C9"/>
</linearGradient>
<clipPath id="clip0_4003_11872">
<rect width="100.014" height="9.52518" fill="white" transform="matrix(0 1 -1 0 10.2627 0.0351562)"/>
</clipPath>
<clipPath id="clip1_4003_11872">
<rect width="100.014" height="9.52518" fill="white" transform="matrix(0 1 -1 0 10.2627 0.0351562)"/>
</clipPath>
</defs>
</svg>
