<svg width="21" height="21" viewBox="0 0 21 21" fill="none" xmlns="http://www.w3.org/2000/svg">
<path d="M6.37806 0.648193C4.70572 0.754097 3.13876 1.50127 2.00373 2.734C0.868694 3.96674 0.253153 5.58993 0.285384 7.26531C0.317616 8.94069 0.995132 10.539 2.17674 11.7272C3.35835 12.9153 4.95289 13.6017 6.62806 13.6432H11.9031C12.5881 13.6432 13.1431 13.0932 13.1431 12.4032V7.14819C13.1445 6.27163 12.9685 5.40385 12.6256 4.59713C12.2828 3.7904 11.7802 3.06142 11.1481 2.45411C10.516 1.84679 9.76754 1.3737 8.94776 1.06333C8.12798 0.752968 7.25387 0.611753 6.37806 0.648193Z" fill="url(#paint0_linear_4003_699)"/>
<path d="M13.9081 20.6376C15.5804 20.5317 17.1474 19.7845 18.2824 18.5518C19.4174 17.319 20.033 15.6958 20.0008 14.0205C19.9685 12.3451 19.291 10.7468 18.1094 9.5586C16.9278 8.37043 15.3333 7.68408 13.6581 7.64258H8.38307C8.05421 7.64258 7.73881 7.77322 7.50626 8.00577C7.27372 8.23831 7.14308 8.55371 7.14308 8.88258V14.1376C7.14164 15.0141 7.31766 15.8819 7.66051 16.6886C8.00337 17.4954 8.50598 18.2243 9.13805 18.8317C9.77013 19.439 10.5186 19.9121 11.3384 20.2224C12.1582 20.5328 13.0323 20.674 13.9081 20.6376Z" fill="#0073E6"/>
<path d="M13.1431 7.64172V12.4017C13.1431 12.7306 13.0124 13.046 12.7799 13.2785C12.5473 13.5111 12.2319 13.6417 11.9031 13.6417H7.14307V8.88172C7.14241 8.56625 7.26202 8.2624 7.47753 8.03202C7.69304 7.80164 7.98826 7.66207 8.30307 7.64172L8.38307 7.63672H13.1431V7.64172Z" fill="url(#paint1_linear_4003_699)"/>
<defs>
<linearGradient id="paint0_linear_4003_699" x1="6.64306" y1="1.49819" x2="6.64306" y2="8.26819" gradientUnits="userSpaceOnUse">
<stop stop-color="#11EFE3"/>
<stop offset="0.33" stop-color="#15E8E2"/>
<stop offset="0.74" stop-color="#1FD3E0"/>
<stop offset="1" stop-color="#21CFE0"/>
</linearGradient>
<linearGradient id="paint1_linear_4003_699" x1="10.1431" y1="8.50172" x2="10.1431" y2="14.2617" gradientUnits="userSpaceOnUse">
<stop stop-color="#00299C"/>
<stop offset="1" stop-color="#0073E6"/>
</linearGradient>
</defs>
</svg>
