<svg width="16" height="21" viewBox="0 0 16 21" fill="none" xmlns="http://www.w3.org/2000/svg">
<path d="M15.4481 6.2835C15.3057 6.04933 15.0919 5.86705 14.8381 5.7635L2.41311 0.743496C2.2172 0.663641 2.00461 0.633391 1.7942 0.65543C1.58379 0.677469 1.38209 0.751116 1.20698 0.869832C1.03187 0.988549 0.888783 1.14866 0.790417 1.33596C0.692051 1.52326 0.64145 1.73195 0.643106 1.9435V8.1435C0.643106 8.6685 0.963106 9.1435 1.44811 9.3435L4.66811 10.6435L15.4481 15.0035C15.5781 14.8035 15.6481 14.5635 15.6431 14.3235V6.9635C15.6431 6.7235 15.5781 6.4835 15.4481 6.2785V6.2835Z" fill="url(#paint0_linear_4024_9)"/>
<path d="M15.4581 6.2832L4.67308 10.6432L1.44807 11.9432C1.20944 12.04 1.00525 12.2061 0.861786 12.4199C0.718321 12.6338 0.642148 12.8857 0.643075 13.1432V19.3532C0.643462 19.5639 0.69545 19.7713 0.794495 19.9573C0.89354 20.1432 1.03663 20.3021 1.21125 20.42C1.38587 20.5379 1.58671 20.6112 1.79622 20.6336C2.00572 20.6559 2.21751 20.6266 2.41307 20.5482L14.8431 15.5232C15.0931 15.4182 15.3081 15.2382 15.4481 15.0032C15.5781 14.7982 15.6481 14.5632 15.6431 14.3232V6.9632C15.6431 6.7232 15.5831 6.4882 15.4581 6.2832Z" fill="#9966FF"/>
<path d="M15.4529 6.2832L15.5029 6.3682C15.5929 6.5532 15.6429 6.7532 15.6429 6.9632V6.9482V14.3232C15.6429 14.5632 15.5779 14.7982 15.4479 15.0032L4.67285 10.6432L15.4529 6.2832Z" fill="url(#paint1_linear_4024_9)"/>
<defs>
<linearGradient id="paint0_linear_4024_9" x1="8.14311" y1="2.7085" x2="8.14311" y2="11.2085" gradientUnits="userSpaceOnUse">
<stop stop-color="#11EFE3"/>
<stop offset="1" stop-color="#21CFE0"/>
</linearGradient>
<linearGradient id="paint1_linear_4024_9" x1="15.6429" y1="6.2832" x2="15.6429" y2="15.0032" gradientUnits="userSpaceOnUse">
<stop stop-color="#0048E5"/>
<stop offset="1" stop-color="#9B66FF"/>
</linearGradient>
</defs>
</svg>
