<svg width="21" height="21" viewBox="0 0 21 21" fill="none" xmlns="http://www.w3.org/2000/svg">
<path d="M13.1431 1.87258C13.1431 1.19258 12.5931 0.642578 11.9081 0.642578H1.37807C1.05139 0.642575 0.738022 0.772005 0.506557 1.00253C0.275093 1.23306 0.144394 1.5459 0.143071 1.87258V16.9126C0.142494 17.1183 0.193528 17.3209 0.291503 17.5018C0.389478 17.6827 0.531264 17.8361 0.703881 17.9481C0.876498 18.06 1.07443 18.1268 1.27957 18.1425C1.4847 18.1581 1.69048 18.122 1.87807 18.0376L6.97807 15.7726L12.4081 13.3576C12.8581 13.1576 13.1431 12.7226 13.1431 12.2326V1.87258Z" fill="url(#paint0_linear_4003_658)"/>
<path d="M13.3931 20.1426C15.1833 20.1426 16.9002 19.4314 18.166 18.1655C19.4319 16.8997 20.1431 15.1828 20.1431 13.3926C20.1431 11.6024 19.4319 9.88548 18.166 8.61961C16.9002 7.35374 15.1833 6.64258 13.3931 6.64258C11.6029 6.64258 9.88597 7.35374 8.6201 8.61961C7.35422 9.88548 6.64307 11.6024 6.64307 13.3926C6.64307 15.1828 7.35422 16.8997 8.6201 18.1655C9.88597 19.4314 11.6029 20.1426 13.3931 20.1426Z" fill="#00D924"/>
<path d="M13.1433 6.64258V12.2326C13.1433 12.7226 12.8583 13.1626 12.4083 13.3576L7.05828 15.7376C6.68647 14.7361 6.55766 13.6607 6.68244 12.5997C6.80722 11.5388 7.18204 10.5226 7.77607 9.63473C8.3701 8.74686 9.16638 8.01266 10.0994 7.49248C11.0325 6.97231 12.0757 6.68103 13.1433 6.64258Z" fill="url(#paint1_linear_4003_658)"/>
<defs>
<linearGradient id="paint0_linear_4003_658" x1="6.64307" y1="3.81758" x2="6.64307" y2="18.1576" gradientUnits="userSpaceOnUse">
<stop stop-color="#FFD748"/>
<stop offset="1" stop-color="#FFC148"/>
</linearGradient>
<linearGradient id="paint1_linear_4003_658" x1="9.89328" y1="6.64758" x2="9.89328" y2="15.7376" gradientUnits="userSpaceOnUse">
<stop stop-color="#00A600"/>
<stop offset="1" stop-color="#00D924"/>
</linearGradient>
</defs>
</svg>
