<svg width="9" height="10" viewBox="0 0 9 10" fill="none" xmlns="http://www.w3.org/2000/svg">
<path opacity="0.15" d="M4.55116 9.06424C6.79098 9.06424 8.60672 7.2485 8.60672 5.00868C8.60672 2.76886 6.79098 0.953125 4.55116 0.953125C2.31134 0.953125 0.495605 2.76886 0.495605 5.00868C0.495605 7.2485 2.31134 9.06424 4.55116 9.06424Z" fill="#9966FF"/>
<path fill-rule="evenodd" clip-rule="evenodd" d="M6.2793 3.45292L3.86117 5.78993L3.22242 5.10049C3.16201 5.04778 3.08553 5.01709 3.00544 5.01341C2.92535 5.00973 2.84638 5.03327 2.78138 5.08021C2.7185 5.12439 2.67431 5.19039 2.65745 5.26537C2.64058 5.34034 2.65223 5.41891 2.69013 5.48577L3.45055 6.72778C3.52659 6.83931 3.65839 6.91028 3.80034 6.91028C3.94228 6.91028 4.06902 6.83931 4.14506 6.72778C4.26673 6.57063 6.58853 3.79764 6.58853 3.79764C6.8927 3.49347 6.52263 3.21465 6.28437 3.45292H6.2793Z" fill="#9966FF"/>
</svg>
