<svg width="17" height="17" viewBox="0 0 17 17" fill="none" xmlns="http://www.w3.org/2000/svg">
<path d="M8.82205 16.605C13.3017 16.605 16.9332 12.9736 16.9332 8.49392C16.9332 4.01428 13.3017 0.382812 8.82205 0.382812C4.34241 0.382812 0.710938 4.01428 0.710938 8.49392C0.710938 12.9736 4.34241 16.605 8.82205 16.605Z" fill="url(#paint0_linear_4003_11704)"/>
<path d="M6.75402 10.4146C8.27681 11.3927 10.3042 10.9513 11.2824 9.42846C12.2606 7.90567 11.8191 5.87823 10.2963 4.90006C8.77353 3.92188 6.74609 4.36337 5.76791 5.88616C4.78974 7.40895 5.23123 9.43639 6.75402 10.4146Z" stroke="white" stroke-width="1.62222"/>
<path d="M8.00534 8.46728C8.45245 8.75448 9.04773 8.62486 9.33493 8.17775C9.62214 7.73064 9.49251 7.13536 9.0454 6.84815C8.59829 6.56095 8.00301 6.69058 7.71581 7.13769C7.42861 7.5848 7.55823 8.18008 8.00534 8.46728Z" fill="white"/>
<path d="M6.5791 10.3027L10.2854 12.6835" stroke="white" stroke-width="1.62222" stroke-linecap="round"/>
<defs>
<linearGradient id="paint0_linear_4003_11704" x1="8.82205" y1="-1.31692" x2="19.5867" y2="6.40123" gradientUnits="userSpaceOnUse">
<stop stop-color="#BF9EFF"/>
<stop offset="0.958333" stop-color="#6D2BF0"/>
</linearGradient>
</defs>
</svg>
