<svg width="93" height="29" viewBox="0 0 93 29" fill="none" xmlns="http://www.w3.org/2000/svg">
<path fill-rule="evenodd" clip-rule="evenodd" d="M57.7231 22.5343C52.3231 26.5243 44.5131 28.6243 37.7831 28.6243C28.7877 28.6725 20.0979 25.3635 13.4131 19.3443C12.9131 18.8943 13.3631 18.2643 13.9731 18.6243C21.3953 22.8629 29.7958 25.0897 38.3431 25.0843C44.3231 25.0843 50.8931 23.8443 56.9431 21.2843C57.8431 20.8943 58.6131 21.8843 57.7231 22.5343Z" fill="#EFA82E"/>
<path fill-rule="evenodd" clip-rule="evenodd" d="M59.9631 19.9838C59.2731 19.1038 55.4031 19.5638 53.6631 19.7738C53.1431 19.8338 53.0631 19.3738 53.5331 19.0438C56.6231 16.8738 61.6831 17.5038 62.2631 18.2238C62.8631 18.9638 62.1131 24.0238 59.2231 26.4338C58.7731 26.8138 58.3531 26.6138 58.5531 26.1238C59.2031 24.4938 60.6531 20.8638 59.9631 19.9838Z" fill="#EFA82E"/>
<path fill-rule="evenodd" clip-rule="evenodd" d="M53.7933 3.75359V1.65359C53.7933 1.32359 54.0333 1.11359 54.3233 1.11359H63.7733C64.0733 1.11359 64.3133 1.33359 64.3133 1.64359V3.44359C64.3133 3.74359 64.0533 4.14359 63.6033 4.77359L58.7033 11.7436C60.5233 11.7036 62.4433 11.9736 64.1033 12.9036C64.4633 13.1036 64.5733 13.4136 64.6033 13.7236V15.9636C64.6033 16.2736 64.2633 16.6336 63.9033 16.4436C62.3586 15.6512 60.6469 15.2396 58.9108 15.2431C57.1748 15.2465 55.4647 15.665 53.9233 16.4636C53.5933 16.6336 53.2533 16.2836 53.2533 15.9736V13.8436C53.2533 13.5036 53.2533 12.9136 53.6033 12.3936L59.2733 4.28359H54.3333C54.2628 4.28492 54.1928 4.2722 54.1274 4.24616C54.0619 4.22012 54.0023 4.18129 53.952 4.13194C53.9017 4.08259 53.8618 4.02372 53.8345 3.95875C53.8073 3.89379 53.7932 3.82404 53.7933 3.75359ZM19.3433 16.8836H16.4633C16.3368 16.875 16.2175 16.8221 16.1261 16.7344C16.0347 16.6466 15.977 16.5296 15.9633 16.4036V1.68359C15.9633 1.38359 16.2033 1.15359 16.5133 1.15359H19.1833C19.4633 1.16359 19.6833 1.38359 19.7033 1.65359V3.57359H19.7633C20.4633 1.71359 21.7633 0.843594 23.5433 0.843594C25.3433 0.843594 26.4633 1.71359 27.2733 3.57359C27.559 2.75771 28.0965 2.05367 28.8082 1.56301C29.5199 1.07235 30.3691 0.820434 31.2333 0.843594C32.4333 0.843594 33.7533 1.34359 34.5633 2.45359C35.4633 3.69359 35.2833 5.49359 35.2833 7.07359V16.3536C35.2833 16.6536 35.0333 16.8836 34.7333 16.8836H31.8633C31.7269 16.8786 31.5975 16.8223 31.5011 16.7258C31.4046 16.6293 31.3482 16.4999 31.3433 16.3636V8.56359C31.3433 7.93359 31.4033 6.38359 31.2633 5.80359C31.0433 4.80359 30.4033 4.53359 29.5733 4.53359C28.8733 4.53359 28.1533 4.99359 27.8533 5.73359C27.5633 6.48359 27.5933 7.72359 27.5933 8.55359V16.3536C27.5933 16.6536 27.3433 16.8836 27.0333 16.8836H24.1633C24.0287 16.8762 23.9018 16.8187 23.8074 16.7225C23.713 16.6263 23.658 16.4983 23.6533 16.3636V8.56359C23.6533 6.91359 23.9133 4.50359 21.8833 4.50359C19.8133 4.50359 19.8933 6.85359 19.8933 8.55359V16.3536C19.8933 16.6536 19.6433 16.8836 19.3433 16.8836ZM72.4533 3.85359C70.3433 3.85359 70.2033 6.73359 70.2033 8.52359C70.2033 10.3236 70.1833 14.1636 72.4333 14.1636C74.6533 14.1636 74.7633 11.0636 74.7633 9.17359C74.7633 7.93359 74.7133 6.45359 74.3333 5.27359C74.0133 4.25359 73.3733 3.85359 72.4533 3.85359ZM72.4333 0.843594C76.6933 0.843594 79.0033 4.50359 79.0033 9.14359C79.0033 13.6436 76.4533 17.1936 72.4333 17.1936C68.2433 17.1936 65.9733 13.5436 65.9733 8.99359C65.9733 4.40359 68.2733 0.843594 72.4333 0.843594ZM84.5333 16.8836H81.6633C81.5287 16.8762 81.4018 16.8187 81.3074 16.7225C81.213 16.6263 81.158 16.4983 81.1533 16.3636V1.62359C81.1704 1.49017 81.2358 1.36764 81.3371 1.27919C81.4385 1.19074 81.5687 1.1425 81.7033 1.14359H84.3633C84.6133 1.15359 84.8232 1.32359 84.8733 1.55359V3.80359H84.9233C85.7333 1.79359 86.8633 0.833593 88.8433 0.833593C90.1333 0.833593 91.3933 1.30359 92.1933 2.57359C92.9433 3.74359 92.9433 5.73359 92.9433 7.15359V16.4136C92.9217 16.5434 92.8544 16.6611 92.7535 16.7455C92.6526 16.8299 92.5248 16.8754 92.3933 16.8736H89.5133C89.3898 16.8658 89.2729 16.8158 89.1818 16.7321C89.0908 16.6484 89.0313 16.5359 89.0133 16.4136V8.41359C89.0133 6.81359 89.1933 4.46359 87.2133 4.46359C86.5133 4.46359 85.8633 4.92359 85.5433 5.63359C85.1432 6.53359 85.0833 7.43359 85.0833 8.42359V16.3436C85.0833 16.6436 84.8333 16.8736 84.5333 16.8736M49.1533 16.8436C49.0594 16.9215 48.9441 16.969 48.8226 16.9797C48.7011 16.9904 48.5793 16.9639 48.4733 16.9036C47.5133 16.1136 47.3433 15.7536 46.8233 15.0036C45.2533 16.6036 44.1233 17.0836 42.0933 17.0836C39.6733 17.0836 37.7933 15.5836 37.7933 12.6136C37.7587 11.612 38.0341 10.6241 38.5817 9.78478C39.1294 8.94543 39.9226 8.29548 40.8533 7.92359C42.4133 7.24359 44.5933 7.12359 46.2533 6.92359V6.56359C46.2533 5.87359 46.3133 5.06359 45.9033 4.48359C45.5533 3.95359 44.8833 3.73359 44.2933 3.73359C43.1933 3.73359 42.2233 4.29359 41.9833 5.45359C41.9333 5.71359 41.7433 5.97359 41.4833 5.98359L38.7033 5.68359C38.4633 5.63359 38.2033 5.44359 38.2733 5.08359C38.9133 1.71359 41.9633 0.683594 44.6933 0.683594C46.0933 0.683594 47.9233 1.06359 49.0233 2.12359C50.4233 3.42359 50.2833 5.16359 50.2833 7.05359V11.5236C50.2833 12.8636 50.8433 13.4536 51.3733 14.1836C51.5533 14.4436 51.5933 14.7536 51.3633 14.9436C50.7733 15.4336 49.7333 16.3436 49.1633 16.8436H49.1533ZM46.2533 9.84359C46.2533 10.9636 46.2833 11.8936 45.7133 12.8936C45.2633 13.6936 44.5333 14.1936 43.7333 14.1936C42.6333 14.1936 41.9833 13.3536 41.9833 12.1136C41.9833 9.67359 44.1833 9.23359 46.2533 9.23359V9.84359ZM11.4933 16.8436C11.3994 16.9215 11.2841 16.969 11.1626 16.9797C11.0411 16.9904 10.9193 16.9639 10.8133 16.9036C9.86326 16.1136 9.69326 15.7536 9.16326 15.0036C7.59326 16.6036 6.47326 17.0836 4.43326 17.0836C2.01326 17.0836 0.13326 15.5836 0.13326 12.6136C0.0987503 11.612 0.374095 10.6241 0.921728 9.78478C1.46936 8.94543 2.26261 8.29548 3.19326 7.92359C4.75326 7.24359 6.93326 7.12359 8.59326 6.92359V6.56359C8.59326 5.87359 8.65326 5.06359 8.24326 4.48359C7.90326 3.95359 7.22326 3.73359 6.64326 3.73359C5.54326 3.73359 4.56326 4.29359 4.32326 5.45359C4.27326 5.71359 4.08326 5.97359 3.82326 5.98359L1.04326 5.68359C0.81326 5.63359 0.54326 5.44359 0.61326 5.08359C1.25326 1.71359 4.31326 0.683594 7.04326 0.683594C8.44326 0.683594 10.2633 1.06359 11.3633 2.12359C12.7633 3.42359 12.6333 5.16359 12.6333 7.05359V11.5236C12.6333 12.8636 13.1833 13.4536 13.7133 14.1836C13.8933 14.4436 13.9333 14.7536 13.7033 14.9436C13.1133 15.4336 12.0733 16.3436 11.5033 16.8436H11.4933ZM8.59326 9.84359C8.59326 10.9636 8.62326 11.8936 8.06326 12.8936C7.60326 13.6936 6.88326 14.1936 6.06326 14.1936C4.96326 14.1936 4.32326 13.3536 4.32326 12.1136C4.32326 9.67359 6.52326 9.23359 8.60326 9.23359V9.84359H8.59326Z" fill="#1B1A19"/>
</svg>
