<svg width="93" height="29" viewBox="0 0 93 29" fill="none" xmlns="http://www.w3.org/2000/svg">
<path fill-rule="evenodd" clip-rule="evenodd" d="M57.7358 22.4737C52.3358 26.4637 44.5258 28.5637 37.7958 28.5637C28.8004 28.612 20.1106 25.3029 13.4258 19.2837C12.9258 18.8337 13.3758 18.2037 13.9858 18.5637C21.408 22.8023 29.8085 25.0291 38.3558 25.0237C44.3358 25.0237 50.9058 23.7837 56.9558 21.2237C57.8558 20.8337 58.6258 21.8237 57.7358 22.4737Z" fill="white"/>
<path fill-rule="evenodd" clip-rule="evenodd" d="M59.9758 19.9232C59.2858 19.0432 55.4158 19.5032 53.6758 19.7132C53.1558 19.7732 53.0758 19.3132 53.5458 18.9832C56.6358 16.8132 61.6958 17.4432 62.2758 18.1632C62.8758 18.9032 62.1258 23.9632 59.2358 26.3732C58.7858 26.7532 58.3658 26.5532 58.5658 26.0632C59.2158 24.4332 60.6658 20.8032 59.9758 19.9232Z" fill="white"/>
<path fill-rule="evenodd" clip-rule="evenodd" d="M53.806 3.69305V1.59305C53.806 1.26305 54.046 1.05305 54.336 1.05305H63.7859C64.0859 1.05305 64.326 1.27305 64.326 1.58305V3.38305C64.326 3.68305 64.066 4.08305 63.616 4.71305L58.716 11.683C60.5359 11.643 62.456 11.913 64.116 12.843C64.476 13.043 64.586 13.353 64.616 13.663V15.903C64.616 16.213 64.276 16.573 63.916 16.383C62.3713 15.5906 60.6596 15.179 58.9235 15.1825C57.1875 15.186 55.4774 15.6045 53.936 16.403C53.6059 16.573 53.266 16.223 53.266 15.913V13.783C53.266 13.443 53.266 12.853 53.616 12.333L59.2859 4.22305H54.346C54.2755 4.22438 54.2055 4.21165 54.1401 4.18561C54.0746 4.15957 54.015 4.12074 53.9647 4.07139C53.9144 4.02204 53.8745 3.96317 53.8472 3.89821C53.82 3.83324 53.8059 3.7635 53.806 3.69305ZM19.356 16.823H16.476C16.3495 16.8144 16.2302 16.7616 16.1388 16.6739C16.0474 16.5861 15.9897 16.469 15.976 16.343V1.62305C15.976 1.32305 16.216 1.09305 16.526 1.09305H19.196C19.476 1.10305 19.696 1.32305 19.716 1.59305V3.51305H19.776C20.476 1.65305 21.776 0.783047 23.556 0.783047C25.356 0.783047 26.476 1.65305 27.286 3.51305C27.5717 2.69717 28.1092 1.99312 28.8209 1.50246C29.5326 1.0118 30.3818 0.759887 31.246 0.783047C32.4459 0.783047 33.7659 1.28305 34.576 2.39305C35.476 3.63305 35.296 5.43305 35.296 7.01305V16.293C35.296 16.593 35.0459 16.823 34.7459 16.823H31.876C31.7396 16.8181 31.6102 16.7617 31.5138 16.6652C31.4173 16.5688 31.3609 16.4394 31.356 16.303V8.50305C31.356 7.87305 31.416 6.32305 31.276 5.74305C31.056 4.74305 30.416 4.47305 29.586 4.47305C28.886 4.47305 28.166 4.93305 27.866 5.67305C27.576 6.42305 27.606 7.66305 27.606 8.49305V16.293C27.606 16.593 27.356 16.823 27.046 16.823H24.176C24.0414 16.8156 23.9145 16.7582 23.8201 16.662C23.7257 16.5658 23.6707 16.4377 23.666 16.303V8.50305C23.666 6.85305 23.926 4.44305 21.896 4.44305C19.826 4.44305 19.906 6.79305 19.906 8.49305V16.293C19.906 16.593 19.656 16.823 19.356 16.823ZM72.466 3.79305C70.3559 3.79305 70.216 6.67305 70.216 8.46305C70.216 10.263 70.196 14.103 72.446 14.103C74.666 14.103 74.7759 11.003 74.7759 9.11305C74.7759 7.87305 74.726 6.39305 74.346 5.21305C74.026 4.19305 73.3859 3.79305 72.466 3.79305ZM72.446 0.783047C76.706 0.783047 79.016 4.44305 79.016 9.08305C79.016 13.583 76.466 17.133 72.446 17.133C68.256 17.133 65.986 13.483 65.986 8.93305C65.986 4.34305 68.2859 0.783047 72.446 0.783047ZM84.546 16.823H81.676C81.5414 16.8156 81.4145 16.7582 81.3201 16.662C81.2257 16.5658 81.1707 16.4377 81.1659 16.303V1.56305C81.1831 1.42962 81.2485 1.3071 81.3498 1.21865C81.4512 1.13019 81.5814 1.08195 81.716 1.08305H84.376C84.626 1.09305 84.8359 1.26305 84.8859 1.49305V3.74305H84.936C85.7459 1.73305 86.8759 0.773046 88.8559 0.773046C90.146 0.773046 91.406 1.24305 92.206 2.51305C92.956 3.68305 92.956 5.67305 92.956 7.09305V16.353C92.9344 16.4828 92.8671 16.6006 92.7662 16.685C92.6653 16.7694 92.5375 16.8148 92.406 16.813H89.5259C89.4025 16.8052 89.2855 16.7553 89.1945 16.6715C89.1035 16.5878 89.044 16.4754 89.0259 16.353V8.35305C89.0259 6.75305 89.206 4.40305 87.226 4.40305C86.526 4.40305 85.8759 4.86305 85.5559 5.57305C85.1559 6.47305 85.096 7.37305 85.096 8.36305V16.283C85.096 16.583 84.846 16.813 84.546 16.813M49.166 16.783C49.0721 16.861 48.9568 16.9085 48.8353 16.9192C48.7138 16.9299 48.592 16.9033 48.486 16.843C47.526 16.053 47.356 15.693 46.836 14.943C45.266 16.543 44.1359 17.023 42.1059 17.023C39.686 17.023 37.806 15.523 37.806 12.553C37.7714 11.5514 38.0468 10.5636 38.5944 9.72423C39.1421 8.88489 39.9353 8.23493 40.866 7.86305C42.426 7.18305 44.606 7.06305 46.266 6.86305V6.50305C46.266 5.81305 46.326 5.00305 45.916 4.42305C45.566 3.89305 44.896 3.67305 44.306 3.67305C43.206 3.67305 42.236 4.23305 41.9959 5.39305C41.9459 5.65305 41.7559 5.91305 41.4959 5.92305L38.716 5.62305C38.4759 5.57305 38.216 5.38305 38.2859 5.02305C38.9259 1.65305 41.976 0.623047 44.706 0.623047C46.106 0.623047 47.936 1.00305 49.0359 2.06305C50.436 3.36305 50.296 5.10305 50.296 6.99305V11.463C50.296 12.803 50.856 13.393 51.386 14.123C51.566 14.383 51.606 14.693 51.376 14.883C50.786 15.373 49.7459 16.283 49.1759 16.783H49.166ZM46.266 9.78305C46.266 10.903 46.296 11.833 45.726 12.833C45.276 13.633 44.5459 14.133 43.7459 14.133C42.646 14.133 41.9959 13.293 41.9959 12.053C41.9959 9.61305 44.196 9.17305 46.266 9.17305V9.78305ZM11.506 16.783C11.4121 16.861 11.2968 16.9085 11.1753 16.9192C11.0538 16.9299 10.932 16.9033 10.826 16.843C9.87595 16.053 9.70595 15.693 9.17595 14.943C7.60595 16.543 6.48595 17.023 4.44595 17.023C2.02595 17.023 0.145956 15.523 0.145956 12.553C0.111446 11.5514 0.38679 10.5636 0.934423 9.72423C1.48206 8.88489 2.27531 8.23493 3.20595 7.86305C4.76595 7.18305 6.94596 7.06305 8.60596 6.86305V6.50305C8.60596 5.81305 8.66595 5.00305 8.25595 4.42305C7.91595 3.89305 7.23595 3.67305 6.65595 3.67305C5.55595 3.67305 4.57595 4.23305 4.33595 5.39305C4.28595 5.65305 4.09595 5.91305 3.83595 5.92305L1.05596 5.62305C0.825955 5.57305 0.555955 5.38305 0.625955 5.02305C1.26596 1.65305 4.32596 0.623047 7.05596 0.623047C8.45596 0.623047 10.276 1.00305 11.376 2.06305C12.776 3.36305 12.646 5.10305 12.646 6.99305V11.463C12.646 12.803 13.196 13.393 13.726 14.123C13.906 14.383 13.946 14.693 13.716 14.883C13.126 15.373 12.086 16.283 11.516 16.783H11.506ZM8.60596 9.78305C8.60596 10.903 8.63595 11.833 8.07595 12.833C7.61595 13.633 6.89595 14.133 6.07595 14.133C4.97595 14.133 4.33595 13.293 4.33595 12.053C4.33595 9.61305 6.53595 9.17305 8.61595 9.17305V9.78305H8.60596Z" fill="white"/>
</svg>
