<svg width="41" height="41" viewBox="0 0 41 41" fill="none" xmlns="http://www.w3.org/2000/svg">
<path d="M31.995 20.6235C31.995 27.1735 26.693 32.4755 20.143 32.4755V20.6235H31.995ZM20.143 8.77148V20.6235H8.29102C8.29102 14.0735 13.593 8.77148 20.143 8.77148Z" fill="#AAB4C1"/>
<path d="M20.143 8.77148C26.693 8.77148 31.995 14.0735 31.995 20.6215H20.143V8.77148ZM8.29102 20.6215H20.143V32.4745C13.593 32.4745 8.29102 27.1715 8.29102 20.6215Z" fill="white"/>
<path d="M20.1431 8.77105V9.42105C26.3191 9.42105 31.3451 14.446 31.3451 20.623H31.9941C31.9941 14.078 26.6891 8.77105 20.1431 8.77105ZM20.1431 31.825C13.9671 31.825 8.94106 26.8 8.94106 20.623H8.29107C8.29107 27.168 13.5971 32.475 20.1431 32.475M20.1431 0.623047C9.09807 0.623047 0.143066 9.57805 0.143066 20.623C0.143066 31.668 9.09807 40.623 20.1431 40.623C31.1881 40.623 40.1431 31.668 40.1431 20.623C40.1431 9.57805 31.1881 0.623047 20.1431 0.623047ZM38.8431 20.623C38.8431 30.95 30.4711 39.323 20.1431 39.323C9.81507 39.323 1.44307 30.95 1.44307 20.623C1.44307 10.296 9.81607 1.92305 20.1431 1.92305C30.4701 1.92305 38.8431 10.296 38.8431 20.623Z" fill="#AAB4C1"/>
<path d="M11.5959 10.9738C12.2359 10.3058 12.5969 9.5338 11.9589 8.7958C11.6109 8.3958 11.0259 8.3088 10.5429 8.5058L10.4939 8.5238L10.5099 8.4818C10.5809 8.2918 10.6269 7.6848 10.1059 7.2668C9.98062 7.16849 9.83713 7.09596 9.68369 7.05339C9.53024 7.01082 9.36989 6.99907 9.21188 7.0188C8.61188 7.0788 8.14988 7.4868 6.89388 8.8788C6.45588 9.3688 6.03388 9.8728 5.62988 10.3898L9.08289 13.6428C10.2269 12.3848 10.6929 11.9188 11.5959 10.9738ZM7.09088 10.1788C7.78688 9.3328 8.52489 8.5668 8.85989 8.2638C8.96489 8.1678 9.07989 8.0738 9.21989 8.0348C9.44689 7.9728 9.67989 8.1328 9.73389 8.3648C9.78689 8.5968 9.63988 8.8168 9.47688 8.9988C9.10888 9.4108 7.75988 10.8118 7.75988 10.8118L7.08988 10.1778L7.09088 10.1788ZM8.44289 11.4528C8.44289 11.4528 9.75588 10.0728 10.1849 9.6328C10.3549 9.4578 10.4649 9.3518 10.5819 9.2938C10.7339 9.2208 10.8989 9.2058 11.0479 9.3038C11.1175 9.34899 11.1716 9.41443 11.2029 9.49132C11.2342 9.5682 11.2412 9.65283 11.2229 9.7338C11.1799 9.9298 11.0179 10.1178 10.8829 10.2618L9.14288 12.1118L8.44289 11.4528ZM20.5379 7.0948L21.6429 4.6348L21.7139 4.4168L21.6939 4.6448L21.8099 7.9308C22.2059 7.9688 22.6009 8.0208 22.9929 8.0868L22.8129 3.2188C22.264 3.15895 21.7134 3.1166 21.1619 3.0918L20.0729 5.7758L20.0349 5.9758L19.9949 5.7758L18.9069 3.0918C18.3569 3.1148 17.8069 3.1578 17.2549 3.2188L17.0749 8.0868C17.4679 8.0218 17.8629 7.9698 18.2589 7.9308L18.3749 4.6448L18.3549 4.4168L18.4249 4.6368L19.5309 7.0948H20.5379ZM29.7189 12.1828C29.9909 12.4728 30.3819 12.9388 30.6019 13.2228L34.6469 10.6718C34.399 10.3521 34.1439 10.038 33.8819 9.7298L31.3199 11.4118L31.1459 11.5618L31.2759 11.3718L32.4079 9.1298L31.6079 8.3348L29.3479 9.4588L29.1579 9.5878L29.3089 9.4138L31.0049 6.8708C30.6942 6.60899 30.3771 6.35491 30.0539 6.1088L27.4859 10.1228C27.8109 10.3708 28.2399 10.7368 28.5139 10.9848L30.9309 9.7388L31.0869 9.6258L30.9729 9.7788L29.7189 12.1828Z" fill="#AAB4C1"/>
</svg>
