<svg width="20" height="19" viewBox="0 0 20 19" fill="none" xmlns="http://www.w3.org/2000/svg">
<path d="M17.0432 0.892813C18.6632 0.892813 19.9632 2.19281 19.9632 3.80281V16.9028C19.9632 17.7028 19.3132 18.3528 18.5032 18.3528H3.56324C1.41324 18.3528 0.323242 17.3028 0.323242 15.5228V7.02281C0.323242 4.57281 2.50324 3.82281 4.44324 3.82281C4.44324 2.19281 5.74324 0.882812 7.35324 0.882812H17.0532L17.0432 0.892813ZM7.97324 4.17281C7.81771 4.1517 7.65947 4.16411 7.50914 4.20921C7.3588 4.25432 7.21986 4.33108 7.10165 4.43432C6.98344 4.53757 6.88869 4.66492 6.82376 4.80782C6.75884 4.95072 6.72526 5.10586 6.72526 5.26281C6.72526 5.41977 6.75884 5.5749 6.82376 5.7178C6.88869 5.8607 6.98344 5.98805 7.10165 6.0913C7.21986 6.19455 7.3588 6.2713 7.50914 6.31641C7.65947 6.36152 7.81771 6.37393 7.97324 6.35281H13.4232C13.5788 6.37393 13.737 6.36152 13.8873 6.31641C14.0377 6.2713 14.1766 6.19455 14.2948 6.0913C14.413 5.98805 14.5078 5.8607 14.5727 5.7178C14.6376 5.5749 14.6712 5.41977 14.6712 5.26281C14.6712 5.10586 14.6376 4.95072 14.5727 4.80782C14.5078 4.66492 14.413 4.53757 14.2948 4.43432C14.1766 4.33108 14.0377 4.25432 13.8873 4.20921C13.737 4.16411 13.5788 4.1517 13.4232 4.17281H7.96324H7.97324ZM7.97324 8.53281C7.81771 8.5117 7.65947 8.52411 7.50914 8.56921C7.3588 8.61432 7.21986 8.69108 7.10165 8.79432C6.98344 8.89757 6.88869 9.02492 6.82376 9.16782C6.75884 9.31072 6.72526 9.46586 6.72526 9.62281C6.72526 9.77977 6.75884 9.9349 6.82376 10.0778C6.88869 10.2207 6.98344 10.3481 7.10165 10.4513C7.21986 10.5545 7.3588 10.6313 7.50914 10.6764C7.65947 10.7215 7.81771 10.7339 7.97324 10.7128H16.7032C16.9669 10.677 17.2087 10.5468 17.3837 10.3464C17.5588 10.146 17.6553 9.88892 17.6553 9.62281C17.6553 9.35671 17.5588 9.09963 17.3837 8.89921C17.2087 8.69878 16.9669 8.56861 16.7032 8.53281H7.96324H7.97324ZM7.97324 12.8928C7.81771 12.8717 7.65947 12.8841 7.50914 12.9292C7.3588 12.9743 7.21986 13.0511 7.10165 13.1543C6.98344 13.2576 6.88869 13.3849 6.82376 13.5278C6.75884 13.6707 6.72526 13.8259 6.72526 13.9828C6.72526 14.1398 6.75884 14.2949 6.82376 14.4378C6.88869 14.5807 6.98344 14.7081 7.10165 14.8113C7.21986 14.9145 7.3588 14.9913 7.50914 15.0364C7.65947 15.0815 7.81771 15.0939 7.97324 15.0728H16.7032C16.8588 15.0939 17.017 15.0815 17.1673 15.0364C17.3177 14.9913 17.4566 14.9145 17.5748 14.8113C17.693 14.7081 17.7878 14.5807 17.8527 14.4378C17.9176 14.2949 17.9512 14.1398 17.9512 13.9828C17.9512 13.8259 17.9176 13.6707 17.8527 13.5278C17.7878 13.3849 17.693 13.2576 17.5748 13.1543C17.4566 13.0511 17.3177 12.9743 17.1673 12.9292C17.017 12.8841 16.8588 12.8717 16.7032 12.8928H7.96324H7.97324ZM4.14324 6.35281C3.24324 6.35281 2.50324 7.08281 2.50324 7.98281V15.0828C2.50324 15.6828 3.00324 16.1728 3.60324 16.1728H4.69324V6.35281H4.14324Z" fill="white"/>
</svg>
