<svg width="21" height="21" viewBox="0 0 21 21" fill="none" xmlns="http://www.w3.org/2000/svg">
<path d="M6.37806 0.948974C4.70572 1.05488 3.13876 1.80205 2.00373 3.03479C0.868694 4.26752 0.253153 5.89071 0.285384 7.56609C0.317616 9.24147 0.995132 10.8398 2.17674 12.028C3.35835 13.2161 4.95289 13.9025 6.62806 13.944H11.9031C12.5881 13.944 13.1431 13.394 13.1431 12.704V7.44897C13.1445 6.57242 12.9685 5.70464 12.6256 4.89791C12.2828 4.09118 11.7802 3.3622 11.1481 2.75489C10.516 2.14757 9.76754 1.67448 8.94776 1.36411C8.12798 1.05375 7.25387 0.912534 6.37806 0.948974Z" fill="url(#paint0_linear_4003_911)"/>
<path d="M13.9081 20.9384C15.5804 20.8325 17.1474 20.0853 18.2824 18.8525C19.4174 17.6198 20.033 15.9966 20.0008 14.3212C19.9685 12.6459 19.291 11.0475 18.1094 9.85938C16.9278 8.67122 15.3333 7.98486 13.6581 7.94336H8.38307C8.05421 7.94336 7.73881 8.074 7.50626 8.30655C7.27372 8.53909 7.14308 8.85449 7.14308 9.18336V14.4384C7.14164 15.3149 7.31766 16.1827 7.66051 16.9894C8.00337 17.7962 8.50598 18.5251 9.13805 19.1324C9.77013 19.7398 10.5186 20.2129 11.3384 20.5232C12.1582 20.8336 13.0323 20.9748 13.9081 20.9384Z" fill="#0073E6"/>
<path d="M13.1431 7.9425V12.7025C13.1431 13.0314 13.0124 13.3468 12.7799 13.5793C12.5473 13.8119 12.2319 13.9425 11.9031 13.9425H7.14307V9.1825C7.14241 8.86703 7.26202 8.56318 7.47753 8.3328C7.69304 8.10243 7.98826 7.96285 8.30307 7.9425L8.38307 7.9375H13.1431V7.9425Z" fill="url(#paint1_linear_4003_911)"/>
<defs>
<linearGradient id="paint0_linear_4003_911" x1="6.64306" y1="1.79897" x2="6.64306" y2="8.56897" gradientUnits="userSpaceOnUse">
<stop stop-color="#11EFE3"/>
<stop offset="0.33" stop-color="#15E8E2"/>
<stop offset="0.74" stop-color="#1FD3E0"/>
<stop offset="1" stop-color="#21CFE0"/>
</linearGradient>
<linearGradient id="paint1_linear_4003_911" x1="10.1431" y1="8.8025" x2="10.1431" y2="14.5625" gradientUnits="userSpaceOnUse">
<stop stop-color="#00299C"/>
<stop offset="1" stop-color="#0073E6"/>
</linearGradient>
</defs>
</svg>
