<svg width="143" height="33" viewBox="0 0 143 33" fill="none" xmlns="http://www.w3.org/2000/svg">
<path fill-rule="evenodd" clip-rule="evenodd" d="M43.7031 23.3697V9.51467H47.4191L52.1261 19.8687L56.7631 9.51367H60.3221V23.3687H57.2581V15.3087L53.7241 23.3687H50.4591L46.8791 15.3527V23.3687L43.7031 23.3697ZM72.6501 18.0057L70.0871 12.1317L67.5821 18.0047L72.6501 18.0057ZM65.2911 23.3697H61.6881L67.8811 9.51467H72.3161L78.5531 23.3697H74.9971L73.7701 20.6097H66.4801L65.2911 23.3697ZM79.9901 23.3697V9.51467H93.3191V12.2847H83.2091V15.0367H91.8781V17.7407H83.2091V20.5987H93.3441V23.3697H79.9901ZM99.2011 15.8767H106.205V12.2837H99.2011V15.8767ZM95.9361 23.3697V9.51467H107.091C108.581 9.51467 109.446 10.3697 109.446 11.8377V16.4927C109.446 17.5637 108.491 18.5317 106.638 18.5317C106.533 18.5367 106.426 18.5317 106.316 18.5317L109.563 23.3697H105.98L102.901 18.6327H99.2011V23.3697H95.9361ZM115.32 23.3777H114.215C112.772 23.3777 112.077 22.5507 112.077 21.3457V19.5357H115.32V20.6077H122.21V17.7717H114.307C113.045 17.7717 112.136 16.9297 112.136 15.7617V11.6477C112.136 10.4027 113.125 9.52267 114.329 9.52267H123.364C124.585 9.52267 125.429 10.4277 125.429 11.7357V13.3887H122.21V12.2937H115.32V15.0227H123.2C124.364 15.0227 125.429 15.7867 125.429 17.2567V21.2117C125.429 22.5587 124.677 23.3777 123.269 23.3777H115.32ZM128.541 23.3777V9.52067H131.851V15.0627L138.155 9.52067H142.636L135.116 15.9577L142.907 23.3777H138.267L131.851 17.0757V23.3777H128.541Z" fill="#AAB4C1"/>
<path fill-rule="evenodd" clip-rule="evenodd" d="M26.5401 0.623047H3.75108C2.79208 0.623047 1.87308 1.00305 1.19608 1.67805C0.861136 2.01166 0.595625 2.40834 0.414887 2.84517C0.234149 3.28199 0.141767 3.75031 0.14308 4.22305V28.53C0.14308 30.511 1.75808 32.118 3.75108 32.118H26.5411C28.5361 32.118 30.1541 30.508 30.1541 28.524V4.21705C30.1541 2.23205 28.5361 0.623047 26.5401 0.623047ZM25.8541 8.13005L19.9301 15.487L28.4901 19.566L28.4841 19.595H18.9811L21.0991 28.761L21.0701 28.778L15.1461 21.421L9.22208 28.778L9.19808 28.766L11.3111 19.594H1.81308L1.80208 19.566L10.3621 15.486L4.43808 8.13005L4.45508 8.10705L13.0151 12.186L15.1281 3.01905H15.1631L17.2761 12.186L25.8361 8.10605L25.8541 8.13005Z" fill="#AAB4C1"/>
</svg>
