<svg width="16" height="21" viewBox="0 0 16 21" fill="none" xmlns="http://www.w3.org/2000/svg">
<path d="M15.4481 6.58428C15.3057 6.35011 15.0919 6.16783 14.8381 6.06428L2.41311 1.04428C2.2172 0.964422 2.00461 0.934172 1.7942 0.956211C1.58379 0.97825 1.38209 1.0519 1.20698 1.17061C1.03187 1.28933 0.888783 1.44944 0.790417 1.63674C0.692051 1.82404 0.64145 2.03273 0.643106 2.24428V8.44428C0.643106 8.96928 0.963106 9.44428 1.44811 9.64428L4.66811 10.9443L15.4481 15.3043C15.5781 15.1043 15.6481 14.8643 15.6431 14.6243V7.26428C15.6431 7.02428 15.5781 6.78428 15.4481 6.57928V6.58428Z" fill="url(#paint0_linear_4096_5)"/>
<path d="M15.4581 6.58398L4.67308 10.944L1.44807 12.244C1.20944 12.3408 1.00525 12.5068 0.861786 12.7207C0.718321 12.9346 0.642148 13.1865 0.643075 13.444V19.654C0.643462 19.8647 0.69545 20.0721 0.794495 20.258C0.89354 20.444 1.03663 20.6029 1.21125 20.7208C1.38587 20.8387 1.58671 20.912 1.79622 20.9343C2.00572 20.9567 2.21751 20.9274 2.41307 20.849L14.8431 15.824C15.0931 15.719 15.3081 15.539 15.4481 15.304C15.5781 15.099 15.6481 14.864 15.6431 14.624V7.26398C15.6431 7.02398 15.5831 6.78898 15.4581 6.58398Z" fill="#9966FF"/>
<path d="M15.4529 6.58398L15.5029 6.66898C15.5929 6.85398 15.6429 7.05398 15.6429 7.26398V7.24898V14.624C15.6429 14.864 15.5779 15.099 15.4479 15.304L4.67285 10.944L15.4529 6.58398Z" fill="url(#paint1_linear_4096_5)"/>
<defs>
<linearGradient id="paint0_linear_4096_5" x1="8.14311" y1="3.00928" x2="8.14311" y2="11.5093" gradientUnits="userSpaceOnUse">
<stop stop-color="#11EFE3"/>
<stop offset="1" stop-color="#21CFE0"/>
</linearGradient>
<linearGradient id="paint1_linear_4096_5" x1="15.6429" y1="6.58398" x2="15.6429" y2="15.304" gradientUnits="userSpaceOnUse">
<stop stop-color="#0048E5"/>
<stop offset="1" stop-color="#9B66FF"/>
</linearGradient>
</defs>
</svg>
