<svg width="100" height="31" viewBox="0 0 100 31" fill="none" xmlns="http://www.w3.org/2000/svg">
<path d="M14.5431 11.923C14.5431 13.623 13.1431 15.023 11.4431 15.023C9.74307 15.023 8.34307 13.623 8.34307 11.923C8.34307 10.223 9.74307 8.82305 11.4431 8.82305C13.1431 8.82305 14.5431 10.223 14.5431 11.923ZM11.4431 16.223C9.74307 16.223 8.34307 17.623 8.34307 19.323C8.34307 21.023 9.74307 22.423 11.4431 22.423C13.1431 22.423 14.5431 21.023 14.5431 19.323C14.5431 17.623 13.1431 16.223 11.4431 16.223ZM30.1431 15.623C30.1431 23.923 23.4431 30.623 15.1431 30.623C6.84307 30.623 0.143066 23.923 0.143066 15.623C0.143066 7.32305 6.84307 0.623047 15.1431 0.623047C23.4431 0.623047 30.1431 7.32305 30.1431 15.623ZM26.1431 15.623C26.1431 9.52305 21.2431 4.62305 15.1431 4.62305C9.04307 4.62305 4.14307 9.52305 4.14307 15.623C4.14307 21.723 9.04307 26.623 15.1431 26.623C21.2431 26.623 26.1431 21.723 26.1431 15.623ZM18.8431 16.223C17.1431 16.223 15.7431 17.623 15.7431 19.323C15.7431 21.023 17.1431 22.423 18.8431 22.423C20.5431 22.423 21.9431 21.023 21.9431 19.323C21.9431 17.623 20.5431 16.223 18.8431 16.223ZM18.8431 8.82305C17.1431 8.82305 15.7431 10.223 15.7431 11.923C15.7431 13.623 17.1431 15.023 18.8431 15.023C20.5431 15.023 21.9431 13.623 21.9431 11.923C21.9431 10.223 20.5431 8.82305 18.8431 8.82305ZM70.4431 6.52305C70.5431 6.52305 70.6431 6.62305 70.7431 6.72305V9.92305C70.7431 10.123 70.5431 10.223 70.4431 10.223H65.1431C64.9431 10.223 64.8431 10.023 64.8431 9.92305V6.82305C64.8431 6.62305 65.0431 6.52305 65.1431 6.52305H70.4431ZM70.3431 11.023H60.1431C60.0431 11.023 59.8431 11.123 59.8431 11.323L58.5431 16.323L58.4431 16.623L56.8431 11.323C56.8431 11.223 56.6431 11.023 56.5431 11.023H52.5431C52.4431 11.023 52.2431 11.123 52.2431 11.323L50.7431 16.323L50.6431 16.623L50.5431 16.323L49.9431 13.823L49.3431 11.323C49.3431 11.223 49.1431 11.023 49.0431 11.023H41.0431V6.72305C41.0431 6.62305 40.8431 6.42305 40.6431 6.52305L35.6431 8.12305C35.4431 8.12305 35.3431 8.22305 35.3431 8.42305V11.123H34.0431C33.9431 11.123 33.7431 11.223 33.7431 11.423V15.223C33.7431 15.323 33.8431 15.523 34.0431 15.523H35.3431V20.223C35.3431 23.523 37.1431 25.023 40.4431 25.023C41.8431 25.023 43.1431 24.723 44.0431 24.223V20.223C44.0431 20.023 43.8431 19.923 43.7431 20.023C43.2431 20.223 42.7431 20.323 42.3431 20.323C41.4431 20.323 40.9431 19.923 40.9431 18.923V15.523H43.8431C43.9431 15.523 44.1431 15.423 44.1431 15.223V12.023L47.9431 24.623C47.9431 24.723 48.1431 24.923 48.2431 24.923H52.4431C52.5431 24.923 52.7431 24.823 52.7431 24.623L54.5431 19.023L55.4431 21.923L56.2431 24.623C56.2431 24.723 56.4431 24.923 56.5431 24.923H60.7431C60.8431 24.923 61.0431 24.823 61.0431 24.623L64.8431 12.023V24.623C64.8431 24.723 64.9431 24.923 65.1431 24.923H70.2431C70.3431 24.923 70.5431 24.823 70.5431 24.623V11.323C70.5431 11.223 70.4431 11.023 70.3431 11.023ZM77.0431 6.52305H71.9431C71.8431 6.52305 71.6431 6.62305 71.6431 6.82305V24.523C71.6431 24.623 71.7431 24.823 71.9431 24.823H77.0431C77.1431 24.823 77.3431 24.723 77.3431 24.523V6.72305C77.3431 6.62305 77.2431 6.52305 77.0431 6.52305ZM83.8431 6.52305H78.5431C78.4431 6.52305 78.2431 6.62305 78.2431 6.82305V9.92305C78.2431 10.023 78.3431 10.223 78.5431 10.223H83.8431C83.9431 10.223 84.1431 10.123 84.1431 9.92305V6.72305C84.1431 6.62305 84.0431 6.52305 83.8431 6.52305ZM83.7431 11.023H78.6431C78.5431 11.023 78.3431 11.123 78.3431 11.323V24.423C78.3431 24.523 78.4431 24.723 78.6431 24.723H83.7431C83.8431 24.723 84.0431 24.623 84.0431 24.423V11.323C84.0431 11.223 83.9431 11.023 83.7431 11.023ZM99.8431 17.823C99.8431 21.623 96.6431 24.923 92.1431 24.923C87.7431 24.923 84.5431 21.623 84.5431 17.823C84.5431 14.023 87.7431 10.723 92.2431 10.723C96.6431 10.723 99.8431 14.023 99.8431 17.823ZM94.4431 17.923C94.4431 16.523 93.4431 15.423 92.2431 15.523C90.9431 15.523 90.0431 16.623 90.0431 17.923C90.0431 19.223 91.0431 20.323 92.2431 20.323C93.5431 20.323 94.4431 19.223 94.4431 17.923Z" fill="#AAB4C1"/>
</svg>
