<svg width="31" height="31" viewBox="0 0 31 31" fill="none" xmlns="http://www.w3.org/2000/svg">
<path d="M9.49532 0.901001C6.98681 1.05986 4.63636 2.18062 2.93381 4.02972C1.23126 5.87882 0.307953 8.31361 0.356299 10.8267C0.404646 13.3397 1.42092 15.7372 3.19333 17.5195C4.96574 19.3017 7.35755 20.3312 9.87032 20.3935H17.7828C18.8103 20.3935 19.6428 19.5685 19.6428 18.5335V10.651C19.645 9.33616 19.3809 8.03449 18.8667 6.8244C18.3524 5.61431 17.5985 4.52085 16.6503 3.60987C15.7022 2.69889 14.5795 1.98926 13.3499 1.52371C12.1202 1.05816 10.809 0.84634 9.49532 0.901001Z" fill="url(#paint0_linear_4003_6734)"/>
<path d="M20.7901 30.8851C23.2986 30.7262 25.649 29.6055 27.3516 27.7564C29.0541 25.9073 29.9775 23.4725 29.9291 20.9594C29.8808 18.4463 28.8645 16.0489 27.0921 14.2666C25.3197 12.4844 22.9279 11.4548 20.4151 11.3926H12.5026C12.0093 11.3926 11.5362 11.5885 11.1874 11.9374C10.8386 12.2862 10.6426 12.7593 10.6426 13.2526V21.1351C10.6404 22.4499 10.9045 23.7516 11.4187 24.9617C11.933 26.1718 12.6869 27.2652 13.6351 28.1762C14.5832 29.0872 15.7059 29.7968 16.9355 30.2624C18.1652 30.7279 19.4764 30.9397 20.7901 30.8851Z" fill="#0073E6"/>
<path d="M19.6426 11.3923V18.5323C19.6426 19.0256 19.4466 19.4987 19.0978 19.8475C18.749 20.1963 18.2759 20.3923 17.7826 20.3923H10.6426V13.2523C10.6416 12.7791 10.821 12.3233 11.1443 11.9777C11.4675 11.6322 11.9104 11.4228 12.3826 11.3923L12.5026 11.3848H19.6426V11.3923Z" fill="url(#paint1_linear_4003_6734)"/>
<defs>
<linearGradient id="paint0_linear_4003_6734" x1="9.89282" y1="2.176" x2="9.89282" y2="12.331" gradientUnits="userSpaceOnUse">
<stop stop-color="#11EFE3"/>
<stop offset="0.33" stop-color="#15E8E2"/>
<stop offset="0.74" stop-color="#1FD3E0"/>
<stop offset="1" stop-color="#21CFE0"/>
</linearGradient>
<linearGradient id="paint1_linear_4003_6734" x1="15.1426" y1="12.6823" x2="15.1426" y2="21.3223" gradientUnits="userSpaceOnUse">
<stop stop-color="#00299C"/>
<stop offset="1" stop-color="#0073E6"/>
</linearGradient>
</defs>
</svg>
