<svg width="38" height="38" viewBox="0 0 38 38" fill="none" xmlns="http://www.w3.org/2000/svg">
<path d="M23.4624 5.12717C23.2297 4.93526 22.9294 4.84526 22.6296 4.87753C22.3297 4.90981 22.0555 5.06165 21.869 5.29868L17.7805 10.4605L4.46094 27.2711C4.70325 27.4631 4.93503 27.6681 5.15527 27.8852C5.20783 27.935 5.25486 27.9848 5.30465 28.0373C5.61534 28.3544 5.90025 28.6957 6.15665 29.0581L6.23965 29.177C6.50634 29.5655 6.73866 29.9765 6.93398 30.4052C6.94239 30.4175 6.94979 30.4305 6.9561 30.4439L6.95334 30.4412C7.20687 30.9939 7.3989 31.5727 7.52595 32.1673C7.75882 33.1759 8.65966 33.8883 9.6947 33.8826H35.7224C36.0249 33.8826 36.3147 33.7609 36.5264 33.5449C36.7382 33.3289 36.8542 33.0368 36.8485 32.7344C36.5147 22.0473 31.6468 12.0076 23.4624 5.12717Z" stroke="#C4CCD8"/>
<path d="M26.0583 20.6514C24.0868 16.6835 21.2601 13.2021 17.7817 10.4578C14.499 7.88932 10.7262 6.01886 6.69449 4.96124C6.39565 4.88952 6.08051 4.94121 5.82025 5.10466C5.55998 5.2681 5.37655 5.52951 5.31137 5.82985L1.49393 23.6805C1.25346 24.7181 1.77284 25.7822 2.73875 26.231C3.35104 26.5086 3.92778 26.8587 4.4566 27.2738C4.6989 27.466 4.93068 27.6709 5.15093 27.888C5.20349 27.9378 5.25051 27.9876 5.3003 28.0401C5.61184 28.3562 5.89768 28.6966 6.15508 29.0581L6.23806 29.1771C6.50476 29.5655 6.73708 29.9765 6.93239 30.4053C6.9408 30.4176 6.9482 30.4305 6.95453 30.444L25.5051 22.1895C25.7849 22.0617 26.0013 21.8264 26.1055 21.537C26.2097 21.2475 26.1926 20.9283 26.0583 20.6514Z" stroke="#C4CCD8"/>
</svg>
