<svg width="38" height="38" viewBox="0 0 38 38" fill="none" xmlns="http://www.w3.org/2000/svg">
<path d="M18.3003 1.17875C21.3001 1.45862 24.2268 2.30437 26.9232 3.67825C29.6196 5.05212 32.0242 6.92279 34.0138 9.18525C34.824 10.1064 34.5966 11.5037 33.6041 12.2248L19.6091 22.3927C18.1407 23.4596 16.082 22.4106 16.082 20.5956V3.29688C16.082 2.07004 17.0787 1.06478 18.3003 1.17875Z" stroke="#C4CCD8"/>
<path d="M30.9576 22.7332C30.9576 15.0655 24.7417 8.84961 17.074 8.84961C9.40635 8.84961 3.19043 15.0655 3.19043 22.7332C3.19043 30.4009 9.40635 36.6168 17.074 36.6168C24.7417 36.6168 30.9576 30.4009 30.9576 22.7332Z" stroke="#C4CCD8"/>
</svg>
