<svg width="38" height="38" viewBox="0 0 38 38" fill="none" xmlns="http://www.w3.org/2000/svg">
<path d="M12.4969 2.05469C11.2734 2.05469 10.2815 3.04659 10.2815 4.27016V33.365C10.2815 34.3677 9.60813 35.2044 8.63965 35.4641L33.4527 28.8531C34.4213 28.5936 35.0948 27.7158 35.0948 26.7131V4.27016C35.0948 3.04659 34.1029 2.05469 32.8793 2.05469H12.4969Z" stroke="#C4CCD8"/>
<path d="M2.53001 22.924C1.4703 23.5358 1.10726 24.8906 1.71911 25.9504L6.57267 34.3571C7.07404 35.2255 8.09617 35.6489 9.06475 35.3893L32.236 29.1805L23.2079 13.5437C22.5965 12.484 21.2413 12.1209 20.1815 12.7328L2.53001 22.924Z" stroke="#C4CCD8"/>
</svg>
