<svg width="38" height="38" viewBox="0 0 38 38" fill="none" xmlns="http://www.w3.org/2000/svg">
<path d="M30.8727 18.9709C27.0843 18.9709 22.8195 16.3456 19.1418 13.8199C15.2425 11.1281 10.9556 7.57227 7.41083 7.57227C3.78853 7.57227 1.41797 10.8844 1.41797 13.8199C1.41797 13.9058 1.41797 13.9888 1.41797 14.0747C1.41797 23.8633 9.35318 31.7985 19.1418 31.7985C28.9304 31.7985 36.8656 23.8633 36.8656 14.0747C36.7465 16.4508 35.0655 18.9709 30.8727 18.9709Z" stroke="#C4CCD8"/>
<path d="M30.8727 7.58401C27.328 7.58401 23.041 11.1288 19.1418 13.8206C15.4641 16.3463 11.1993 18.9716 7.41083 18.9716C3.21804 18.9716 1.53706 16.4514 1.41797 14.0754C1.41797 23.864 9.35318 31.7992 19.1418 31.7992C28.9304 31.7992 36.8656 23.864 36.8656 14.0754C36.8656 13.9895 36.8656 13.9065 36.8656 13.8206C36.8656 10.8851 34.495 7.57296 30.8727 7.58401Z" stroke="#C4CCD8"/>
</svg>
