<svg width="38" height="38" viewBox="0 0 38 38" fill="none" xmlns="http://www.w3.org/2000/svg">
<path d="M29.3459 10.0659L21.8138 33.0702L21.7949 33.1562L21.7718 33.2422L21.7439 33.324C21.7368 33.3488 21.7284 33.3733 21.7189 33.3973L21.6596 33.5406L21.5904 33.6793L21.568 33.7187L21.4903 33.8487L21.4033 33.9725L21.3754 34.0091L21.2782 34.1249L21.1743 34.2347L21.1491 34.2545C21.0761 34.3263 20.9977 34.3922 20.9146 34.4519L20.7784 34.5384L20.6353 34.6126L20.6074 34.6294L20.4694 34.6912L20.3282 34.7451H20.2863L20.1397 34.7872C20.1145 34.7924 20.0971 34.7629 20.1137 34.7434L20.1414 34.7108C20.4977 34.2548 20.6628 33.6752 20.5967 33.0957C20.5299 32.5114 20.2108 32.1335 19.7506 31.7949L19.6218 31.7033L10.206 24.8548L10.085 24.7603C10.042 24.7241 10.0006 24.6867 9.96079 24.6478C9.95237 24.6396 9.94315 24.6305 9.93394 24.6212C9.90647 24.5934 9.88006 24.5653 9.85453 24.5366L9.81944 24.4963C9.7987 24.4718 9.77885 24.4474 9.75953 24.4226C9.74509 24.404 9.73056 24.3846 9.71629 24.365L9.6921 24.3309L9.66888 24.2969C9.65603 24.2778 9.64327 24.2581 9.63077 24.2382C9.61606 24.2146 9.60197 24.191 9.58823 24.1671C9.57893 24.151 9.56989 24.1346 9.56103 24.1183C9.54463 24.088 9.52895 24.0573 9.51397 24.0262L9.49111 23.9771C9.47914 23.9506 9.46745 23.9234 9.45637 23.896C9.44884 23.8773 9.44166 23.8589 9.43475 23.8404C9.42252 23.8077 9.41091 23.7743 9.40018 23.7407C9.39558 23.7264 9.39128 23.7126 9.38711 23.6986C9.37792 23.6679 9.36929 23.6365 9.36134 23.605L9.34747 23.5466C9.34128 23.5189 9.3357 23.4914 9.33064 23.4639L9.31986 23.4002C9.30717 23.3178 9.29911 23.2346 9.29574 23.1512C9.29307 23.0849 9.29337 23.0182 9.2967 22.9516C9.30211 22.8477 9.3139 22.749 9.33248 22.6509C9.33776 22.623 9.34364 22.5949 9.35007 22.567C9.35492 22.5459 9.36004 22.5251 9.36548 22.5042L9.38637 22.4296C9.39406 22.4039 9.40222 22.3782 9.41091 22.3526L9.41676 22.3356C9.44822 22.1138 9.51229 21.8942 9.61074 21.6842L9.69103 21.5287L16.1417 10.0305M29.3459 10.0659L29.3498 10.0636C29.6484 9.1473 29.3203 8.14293 28.5384 7.57955L22.7227 3.39507C22.2143 3.02959 21.5749 2.89634 20.9628 3.02825L20.7981 3.07043C20.2565 3.23143 19.7946 3.59426 19.5103 4.0874L16.1377 10.0299M29.3459 10.0659L29.3599 10.0304" stroke="#C4CCD8"/>
<path d="M33.7645 10.0312H4.52016C3.29659 10.0312 2.30469 11.0232 2.30469 12.2467V32.6291C2.30469 33.8527 3.29659 34.8446 4.52016 34.8446H33.7645C34.988 34.8446 35.9799 33.8527 35.9799 32.6291V12.2467C35.9799 11.0232 34.988 10.0312 33.7645 10.0312Z" stroke="#C4CCD8"/>
</svg>
