<svg width="38" height="38" viewBox="0 0 38 38" fill="none" xmlns="http://www.w3.org/2000/svg">
<path d="M27.1175 14.0193C27.1175 13.7023 27.0518 13.3889 26.9247 13.0993L23.4497 5.1728C23.091 4.35509 22.2908 3.82812 21.4078 3.82812H3.65271C2.4185 3.82812 1.41797 4.84207 1.41797 6.09284V21.9458C1.41797 23.1965 2.4185 24.2105 3.65271 24.2105H21.4078C22.2908 24.2105 23.091 23.6836 23.4497 22.8658L26.9247 14.9394C27.0518 14.6498 27.1175 14.3363 27.1175 14.0193Z" stroke="#C4CCD8"/>
<path d="M11.167 23.7674C11.167 24.0844 11.2327 24.3978 11.3597 24.6874L14.8348 32.6138C15.1935 33.4316 15.9937 33.9586 16.8767 33.9586H34.6318C35.866 33.9586 36.8665 32.9446 36.8665 31.6938V15.8409C36.8665 14.5902 35.866 13.5762 34.6318 13.5762H16.8767C15.9937 13.5762 15.1935 14.1031 14.8348 14.9209L11.3597 22.8473C11.2327 23.1369 11.167 23.4504 11.167 23.7674Z" stroke="#C4CCD8"/>
</svg>
