<svg width="31" height="31" viewBox="0 0 31 31" fill="none" xmlns="http://www.w3.org/2000/svg">
<path d="M26.1001 9.35298C25.8865 9.00172 25.5658 8.72831 25.1851 8.57298L6.54764 1.04298C6.25378 0.923196 5.93489 0.87782 5.61928 0.910879C5.30367 0.943937 5.00111 1.05441 4.73845 1.23248C4.47578 1.41056 4.26115 1.65073 4.1136 1.93168C3.96605 2.21262 3.89015 2.52565 3.89264 2.84298V12.143C3.89264 12.9305 4.37264 13.643 5.10014 13.943L9.93014 15.893L26.1001 22.433C26.2951 22.133 26.4001 21.773 26.3926 21.413V10.373C26.3926 10.013 26.2951 9.65298 26.1001 9.34548V9.35298Z" fill="url(#paint0_linear_4003_6774)"/>
<path d="M26.1151 9.35352L9.93759 15.8935L5.10009 17.8435C4.74214 17.9887 4.43586 18.2378 4.22066 18.5586C4.00546 18.8794 3.8912 19.2572 3.89259 19.6435V28.9585C3.89317 29.2746 3.97115 29.5856 4.11972 29.8646C4.26829 30.1435 4.48292 30.3818 4.74485 30.5587C5.00678 30.7355 5.30804 30.8455 5.6223 30.879C5.93656 30.9126 6.25424 30.8686 6.54759 30.751L25.1926 23.2135C25.5676 23.056 25.8901 22.786 26.1001 22.4335C26.2951 22.126 26.4001 21.7735 26.3926 21.4135V10.3735C26.3926 10.0135 26.3026 9.66102 26.1151 9.35352Z" fill="#9966FF"/>
<path d="M26.1075 9.35352L26.1825 9.48102C26.3175 9.75852 26.3925 10.0585 26.3925 10.3735V10.351V21.4135C26.3925 21.7735 26.295 22.126 26.1 22.4335L9.9375 15.8935L26.1075 9.35352Z" fill="url(#paint1_linear_4003_6774)"/>
<defs>
<linearGradient id="paint0_linear_4003_6774" x1="15.1426" y1="3.99048" x2="15.1426" y2="16.7405" gradientUnits="userSpaceOnUse">
<stop stop-color="#11EFE3"/>
<stop offset="1" stop-color="#21CFE0"/>
</linearGradient>
<linearGradient id="paint1_linear_4003_6774" x1="26.3925" y1="9.35352" x2="26.3925" y2="22.4335" gradientUnits="userSpaceOnUse">
<stop stop-color="#0048E5"/>
<stop offset="1" stop-color="#9B66FF"/>
</linearGradient>
</defs>
</svg>
