<svg width="38" height="38" viewBox="0 0 38 38" fill="none" xmlns="http://www.w3.org/2000/svg">
<path d="M8.55625 4.71484H30.8542C31.5884 4.71484 32.1835 5.30998 32.1835 6.04413C32.1835 6.37509 32.0601 6.69413 31.8373 6.93889L20.1495 19.7801L6.59375 5.53056C6.83674 5.27994 7.11679 5.08133 7.43388 4.93473C7.75096 4.78814 8.1251 4.71484 8.55625 4.71484Z" stroke="#C4CCD8"/>
<path d="M5.84961 7.37709C5.84961 6.66012 6.13342 6.00943 6.59483 5.53125L20.1496 19.7797L20.1328 19.8015L20.1527 19.7797L31.8335 32.6201C32.0567 32.865 32.1805 33.1844 32.1805 33.5157C32.1805 34.2498 31.5854 34.845 30.8512 34.845H8.50818C7.0399 34.845 5.84961 33.6547 5.84961 32.1864V7.37709Z" stroke="#C4CCD8"/>
<path d="M8.39694 34.8445H30.8507C31.5849 34.8445 32.18 34.2494 32.18 33.5153C32.18 33.1839 32.0563 32.8645 31.833 32.6197L20.1257 19.7793L7.74208 33.3612C7.41233 33.723 7.4382 34.2835 7.79986 34.6132C7.9631 34.762 8.17604 34.8445 8.39694 34.8445Z" stroke="#C4CCD8"/>
</svg>
