<svg width="38" height="38" viewBox="0 0 38 38" fill="none" xmlns="http://www.w3.org/2000/svg">
<path d="M29.3647 4.71484H11.9084C11.1621 4.71453 10.4666 5.096 10.0611 5.72801C9.6557 6.36001 9.59561 7.15632 9.90161 7.84295L14.421 17.9954C14.6768 18.5666 14.6768 19.2212 14.421 19.7924L8.50781 33.0729H29.3647C30.2305 33.0717 31.0149 32.5582 31.3688 31.7613L36.6744 19.8007C36.9297 19.2245 36.9297 18.566 36.6744 17.9899L31.3688 6.02654C31.0149 5.22952 30.2305 4.71607 29.3647 4.71484Z" stroke="#C4CCD8"/>
<path d="M7.82326 33.0717C7.5599 33.0727 7.29875 33.0228 7.05375 32.9245C6.57063 32.7109 6.12195 32.2736 5.90222 31.7866L1.60989 22.0231C1.30638 21.3364 1.36573 20.54 1.76754 19.9077C2.16935 19.2753 2.85888 18.8932 3.59915 18.8926H20.8858C21.7352 18.8932 22.5053 19.4005 22.8532 20.1886L27.1019 29.8023C27.2766 30.202 27.6013 30.9291 27.7077 31.1594C27.7992 31.3491 27.9137 31.5263 28.0488 31.6868C28.4819 32.2607 29.1138 32.8425 29.8011 33.03C29.7761 33.023 29.5405 33.0717 29.3177 33.0717C29.1321 33.0717 29.0559 33.0696 29.0078 33.0689H28.9587C28.9434 33.0693 28.9274 33.0701 28.9056 33.0717H7.82326Z" stroke="#C4CCD8"/>
</svg>
