<svg width="38" height="38" viewBox="0 0 38 38" fill="none" xmlns="http://www.w3.org/2000/svg">
<path d="M24.4589 3.3542C24.4589 2.14785 23.4789 1.16992 22.27 1.16992H3.60688C2.39797 1.16992 1.41797 2.14785 1.41797 3.3542V30.0023C1.41797 30.7417 1.79288 31.431 2.41423 31.8339C3.03559 32.2367 3.81901 32.2986 4.49612 31.9982L13.5254 27.99L23.1592 23.7089C23.9496 23.3583 24.4589 22.5761 24.4589 21.7131V11.1739V3.3542Z" stroke="#C4CCD8"/>
<path d="M24.902 35.7299C31.5093 35.7299 36.8656 30.3736 36.8656 23.7663C36.8656 17.159 31.5093 11.8027 24.902 11.8027C18.2948 11.8027 12.9385 17.159 12.9385 23.7663C12.9385 30.3736 18.2948 35.7299 24.902 35.7299Z" stroke="#C4CCD8"/>
</svg>
