<svg width="38" height="38" viewBox="0 0 38 38" fill="none" xmlns="http://www.w3.org/2000/svg">
<path d="M13.744 6.4286C14.0491 4.99336 15.488 3.82812 16.9554 3.82812H34.6677C36.135 3.82812 37.0786 4.99336 36.7735 6.4286L31.2903 32.2249C31.0869 33.1818 30.1276 33.9586 29.1495 33.9586H7.91211L13.744 6.4286Z" stroke="#C4CCD8"/>
<path d="M1.51042 20.6083C1.20535 19.1731 2.14894 18.0078 3.61624 18.0078H21.3285C22.7959 18.0078 24.2348 19.1731 24.5399 20.6083L27.0092 32.2256C27.2126 33.1824 28.1719 33.9592 29.1502 33.9592H6.12063C5.14243 33.9592 4.18314 33.1824 3.97976 32.2256L1.51042 20.6083Z" stroke="#C4CCD8"/>
</svg>
