<svg width="38" height="38" viewBox="0 0 38 38" fill="none" xmlns="http://www.w3.org/2000/svg">
<path d="M4.31929 8.60934C3.62075 9.01266 3.19043 9.75797 3.19043 10.5646V23.0652C3.19043 23.8718 3.62075 24.6171 4.31929 25.0204L15.1446 31.2706C15.8432 31.6739 16.7039 31.6739 17.4024 31.2706L28.2278 25.0204C28.9264 24.6171 29.3567 23.8718 29.3567 23.0652V10.5646C29.3567 9.75797 28.9264 9.01266 28.2278 8.60934L17.4024 2.35914C16.7039 1.95581 15.8432 1.95581 15.1446 2.35914L4.31929 8.60934Z" stroke="#C4CCD8"/>
<path d="M14.7763 17.8546C14.0766 18.2577 13.6455 19.0036 13.6455 19.8111V29.1057C13.6455 29.9131 14.0766 30.6591 14.7763 31.0621L22.8505 35.713C23.5489 36.1154 24.4088 36.1148 25.1068 35.7116L33.154 31.0626C33.8522 30.6592 34.2824 29.914 34.2824 29.1076V19.8091C34.2824 19.0027 33.8522 18.2576 33.154 17.8542L25.1068 13.2051C24.4088 12.8019 23.5489 12.8014 22.8505 13.2037L14.7763 17.8546Z" stroke="#C4CCD8"/>
</svg>
