<svg width="38" height="38" viewBox="0 0 38 38" fill="none" xmlns="http://www.w3.org/2000/svg">
<path d="M19.5971 1.4375C20.4843 1.4375 21.2952 1.93925 21.691 2.73319L28.9697 17.2905L36.6374 32.6314C37.0007 33.3573 36.9622 34.2197 36.5357 34.9104C36.2229 35.4169 35.734 35.7784 35.1755 35.9352L35.0215 35.9726C34.9178 35.9943 34.8121 36.0091 34.705 36.0164L34.5435 36.0221L19.5971 33.0501L10.2246 17.2905L17.5032 2.73319C17.8991 1.93925 18.71 1.4375 19.5971 1.4375Z" stroke="#C4CCD8"/>
<path d="M19.5955 1.4375C20.4827 1.4375 21.2935 1.93925 21.6894 2.73319L28.9681 17.2905L19.5955 33.0501L4.64917 36.0221C3.83734 36.0221 3.08357 35.6012 2.65702 34.9104C2.23047 34.2197 2.19197 33.3573 2.55527 32.6314L10.223 17.2905L17.5016 2.73319C17.8975 1.93925 18.7083 1.4375 19.5955 1.4375Z" stroke="#C4CCD8"/>
</svg>
