<svg width="31" height="31" viewBox="0 0 31 31" fill="none" xmlns="http://www.w3.org/2000/svg">
<path d="M27.8776 11.4292L23.1451 12.4492L7.14009 15.8917L1.62759 17.0767C1.20562 17.1692 0.828103 17.4036 0.557902 17.7406C0.2877 18.0777 0.141126 18.4972 0.142589 18.9292V28.9942C0.142589 30.0442 0.982589 30.8917 2.01759 30.8917H28.2676C29.3026 30.8917 30.1426 30.0442 30.1426 28.9942V13.2892C30.1426 12.7117 29.8876 12.1717 29.4451 11.8117C29.2287 11.6356 28.9754 11.5105 28.7041 11.4456C28.4327 11.3807 28.1503 11.3776 27.8776 11.4367V11.4292Z" fill="#9B66FF"/>
<path d="M21.5851 0.892818H8.82758C8.5774 0.888847 8.32889 0.934199 8.09625 1.02628C7.8636 1.11837 7.65137 1.25538 7.47168 1.4295C7.292 1.60361 7.14837 1.81142 7.04901 2.04105C6.94964 2.27068 6.89649 2.51764 6.89258 2.76782V21.5178C6.89258 22.5528 7.75508 23.3928 8.82758 23.3928H21.4576C21.7078 23.3968 21.9563 23.3514 22.1889 23.2594C22.4216 23.1673 22.6338 23.0303 22.8135 22.8561C22.9932 22.682 23.1368 22.4742 23.2362 22.2446C23.3355 22.015 23.3887 21.768 23.3926 21.5178V2.76782C23.3929 2.28201 23.2046 1.81505 22.8675 1.4653C22.5303 1.11555 22.0706 0.910307 21.5851 0.892818Z" fill="url(#paint0_linear_4003_6805)"/>
<path d="M23.3926 12.3984V21.5184C23.3926 22.5534 22.5301 23.3934 21.4576 23.3934H8.82758C8.5774 23.3974 8.32889 23.3521 8.09625 23.26C7.8636 23.1679 7.65137 23.0309 7.47168 22.8568C7.292 22.6826 7.14837 22.4748 7.04901 22.2452C6.94964 22.0156 6.89649 21.7686 6.89258 21.5184V15.9459L7.14008 15.8934L23.1451 12.4509L23.3926 12.3984Z" fill="url(#paint1_linear_4003_6805)"/>
<defs>
<linearGradient id="paint0_linear_4003_6805" x1="15.1426" y1="2.37032" x2="15.1426" y2="14.0928" gradientUnits="userSpaceOnUse">
<stop stop-color="#11EFE3"/>
<stop offset="0.33" stop-color="#15E8E2"/>
<stop offset="0.74" stop-color="#1FD3E0"/>
<stop offset="1" stop-color="#21CFE0"/>
</linearGradient>
<linearGradient id="paint1_linear_4003_6805" x1="23.3926" y1="17.8959" x2="4.14758" y2="17.8959" gradientUnits="userSpaceOnUse">
<stop stop-color="#0048E5"/>
<stop offset="0.64" stop-color="#625AF5"/>
<stop offset="1" stop-color="#8A62FC"/>
</linearGradient>
</defs>
</svg>
