<svg width="41" height="41" viewBox="0 0 41 41" fill="none" xmlns="http://www.w3.org/2000/svg">
<path fill-rule="evenodd" clip-rule="evenodd" d="M4.14307 2.73242C1.93393 2.73242 0.143066 4.52328 0.143066 6.73242V26.7324C0.143066 28.9415 1.93393 30.7324 4.14307 30.7324H32.1431C34.3522 30.7324 36.1431 28.9415 36.1431 26.7324V6.73242C36.1431 4.52328 34.3522 2.73242 32.1431 2.73242H4.14307ZM4.64307 8.73242C5.4715 8.73242 6.14307 8.06085 6.14307 7.23242C6.14307 6.40399 5.4715 5.73242 4.64307 5.73242C3.81464 5.73242 3.14307 6.40399 3.14307 7.23242C3.14307 8.06085 3.81464 8.73242 4.64307 8.73242ZM11.1431 7.23242C11.1431 8.06085 10.4715 8.73242 9.64307 8.73242C8.81464 8.73242 8.14307 8.06085 8.14307 7.23242C8.14307 6.40399 8.81464 5.73242 9.64307 5.73242C10.4715 5.73242 11.1431 6.40399 11.1431 7.23242ZM14.6431 8.73242C15.4715 8.73242 16.1431 8.06085 16.1431 7.23242C16.1431 6.40399 15.4715 5.73242 14.6431 5.73242C13.8147 5.73242 13.1431 6.40399 13.1431 7.23242C13.1431 8.06085 13.8147 8.73242 14.6431 8.73242Z" fill="#00D4FF"/>
<path fill-rule="evenodd" clip-rule="evenodd" d="M24.7004 17.7324C24.3692 17.7324 24.0772 17.9497 23.9821 18.2669L18.4321 36.7669C18.2877 37.2481 18.648 37.7324 19.1504 37.7324H21.5844C21.9156 37.7324 22.2076 37.5151 22.3028 37.1979L27.8528 18.6979C27.9971 18.2167 27.6368 17.7324 27.1344 17.7324H24.7004ZM13.8859 20.4335C14.1669 20.1292 14.6414 20.1102 14.9457 20.3911L16.7827 22.0868C17.0871 22.3678 17.1061 22.8423 16.8251 23.1466L12.5861 27.739L16.8251 32.3313C17.1061 32.6357 17.0871 33.1102 16.7827 33.3911L14.9457 35.0868C14.6414 35.3678 14.1669 35.3488 13.8859 35.0444L7.61198 28.2477C7.34678 27.9604 7.34679 27.5176 7.61198 27.2303L13.8859 20.4335ZM32.3989 20.4335C32.118 20.1292 31.6435 20.1102 31.3391 20.3911L29.5021 22.0868C29.1977 22.3678 29.1788 22.8423 29.4597 23.1466L33.6988 27.739L29.4597 32.3313C29.1788 32.6357 29.1977 33.1102 29.5021 33.3911L31.3391 35.0868C31.6435 35.3678 32.118 35.3488 32.3989 35.0444L38.6728 28.2477C38.938 27.9604 38.938 27.5176 38.6728 27.2303L32.3989 20.4335Z" fill="#7A73FF"/>
<mask id="mask0_4003_1717" style="mask-type:luminance" maskUnits="userSpaceOnUse" x="0" y="2" width="37" height="29">
<path fill-rule="evenodd" clip-rule="evenodd" d="M4.14307 2.73242C1.93393 2.73242 0.143066 4.52328 0.143066 6.73242V26.7324C0.143066 28.9415 1.93393 30.7324 4.14307 30.7324H32.1431C34.3522 30.7324 36.1431 28.9415 36.1431 26.7324V6.73242C36.1431 4.52328 34.3522 2.73242 32.1431 2.73242H4.14307ZM4.64307 8.73242C5.4715 8.73242 6.14307 8.06085 6.14307 7.23242C6.14307 6.40399 5.4715 5.73242 4.64307 5.73242C3.81464 5.73242 3.14307 6.40399 3.14307 7.23242C3.14307 8.06085 3.81464 8.73242 4.64307 8.73242ZM11.1431 7.23242C11.1431 8.06085 10.4715 8.73242 9.64307 8.73242C8.81464 8.73242 8.14307 8.06085 8.14307 7.23242C8.14307 6.40399 8.81464 5.73242 9.64307 5.73242C10.4715 5.73242 11.1431 6.40399 11.1431 7.23242ZM14.6431 8.73242C15.4715 8.73242 16.1431 8.06085 16.1431 7.23242C16.1431 6.40399 15.4715 5.73242 14.6431 5.73242C13.8147 5.73242 13.1431 6.40399 13.1431 7.23242C13.1431 8.06085 13.8147 8.73242 14.6431 8.73242Z" fill="white"/>
</mask>
<g mask="url(#mask0_4003_1717)">
<path fill-rule="evenodd" clip-rule="evenodd" d="M24.7004 17.7324C24.3692 17.7324 24.0772 17.9497 23.9821 18.2669L18.4321 36.7669C18.2877 37.2481 18.648 37.7324 19.1504 37.7324H21.5844C21.9156 37.7324 22.2076 37.5151 22.3028 37.1979L27.8528 18.6979C27.9971 18.2167 27.6368 17.7324 27.1344 17.7324H24.7004ZM13.8859 20.4335C14.1669 20.1292 14.6414 20.1102 14.9457 20.3911L16.7827 22.0868C17.0871 22.3678 17.1061 22.8423 16.8251 23.1466L12.5861 27.739L16.8251 32.3313C17.1061 32.6357 17.0871 33.1102 16.7827 33.3911L14.9457 35.0868C14.6414 35.3678 14.1669 35.3488 13.8859 35.0444L7.61198 28.2477C7.34678 27.9604 7.34679 27.5176 7.61198 27.2303L13.8859 20.4335ZM32.3989 20.4335C32.118 20.1292 31.6435 20.1102 31.3391 20.3911L29.5021 22.0868C29.1977 22.3678 29.1788 22.8423 29.4597 23.1466L33.6988 27.739L29.4597 32.3313C29.1788 32.6357 29.1977 33.1102 29.5021 33.3911L31.3391 35.0868C31.6435 35.3678 32.118 35.3488 32.3989 35.0444L38.6728 28.2477C38.938 27.9604 38.938 27.5176 38.6728 27.2303L32.3989 20.4335Z" fill="#CCFFFF"/>
</g>
</svg>
