<svg width="41" height="36" viewBox="0 0 41 36" fill="none" xmlns="http://www.w3.org/2000/svg">
<path fill-rule="evenodd" clip-rule="evenodd" d="M4.14307 0.732422C1.93393 0.732422 0.143066 2.52328 0.143066 4.73242V24.7324C0.143066 26.9415 1.93393 28.7324 4.14307 28.7324H32.1431C34.3522 28.7324 36.1431 26.9415 36.1431 24.7324V4.73242C36.1431 2.52328 34.3522 0.732422 32.1431 0.732422H4.14307ZM4.64307 6.73242C5.4715 6.73242 6.14307 6.06085 6.14307 5.23242C6.14307 4.40399 5.4715 3.73242 4.64307 3.73242C3.81464 3.73242 3.14307 4.40399 3.14307 5.23242C3.14307 6.06085 3.81464 6.73242 4.64307 6.73242ZM11.1431 5.23242C11.1431 6.06085 10.4715 6.73242 9.64307 6.73242C8.81464 6.73242 8.14307 6.06085 8.14307 5.23242C8.14307 4.40399 8.81464 3.73242 9.64307 3.73242C10.4715 3.73242 11.1431 4.40399 11.1431 5.23242ZM14.6431 6.73242C15.4715 6.73242 16.1431 6.06085 16.1431 5.23242C16.1431 4.40399 15.4715 3.73242 14.6431 3.73242C13.8147 3.73242 13.1431 4.40399 13.1431 5.23242C13.1431 6.06085 13.8147 6.73242 14.6431 6.73242Z" fill="#00D4FF"/>
<path fill-rule="evenodd" clip-rule="evenodd" d="M40.1431 17.2324C40.1431 14.1948 37.6807 11.7324 34.6431 11.7324H17.6431C14.6055 11.7324 12.1431 14.1948 12.1431 17.2324C12.1431 20.27 14.6055 22.7324 17.6431 22.7324H34.6431C37.6807 22.7324 40.1431 20.27 40.1431 17.2324ZM14.1431 17.2324C14.1431 19.1654 15.7101 20.7324 17.6431 20.7324C19.5761 20.7324 21.1431 19.1654 21.1431 17.2324C21.1431 15.2994 19.5761 13.7324 17.6431 13.7324C15.7101 13.7324 14.1431 15.2994 14.1431 17.2324ZM12.1431 30.2324C12.1431 27.1948 14.6055 24.7324 17.6431 24.7324H34.6431C37.6807 24.7324 40.1431 27.1948 40.1431 30.2324C40.1431 33.27 37.6807 35.7324 34.6431 35.7324H17.6431C14.6055 35.7324 12.1431 33.27 12.1431 30.2324ZM31.1431 30.2324C31.1431 32.1654 32.7101 33.7324 34.6431 33.7324C36.5761 33.7324 38.1431 32.1654 38.1431 30.2324C38.1431 28.2994 36.5761 26.7324 34.6431 26.7324C32.7101 26.7324 31.1431 28.2994 31.1431 30.2324Z" fill="#7A73FF"/>
<mask id="mask0_4155_8" style="mask-type:luminance" maskUnits="userSpaceOnUse" x="0" y="0" width="37" height="29">
<path fill-rule="evenodd" clip-rule="evenodd" d="M4.14307 0.732422C1.93393 0.732422 0.143066 2.52328 0.143066 4.73242V24.7324C0.143066 26.9415 1.93393 28.7324 4.14307 28.7324H32.1431C34.3522 28.7324 36.1431 26.9415 36.1431 24.7324V4.73242C36.1431 2.52328 34.3522 0.732422 32.1431 0.732422H4.14307ZM4.64307 6.73242C5.4715 6.73242 6.14307 6.06085 6.14307 5.23242C6.14307 4.40399 5.4715 3.73242 4.64307 3.73242C3.81464 3.73242 3.14307 4.40399 3.14307 5.23242C3.14307 6.06085 3.81464 6.73242 4.64307 6.73242ZM11.1431 5.23242C11.1431 6.06085 10.4715 6.73242 9.64307 6.73242C8.81464 6.73242 8.14307 6.06085 8.14307 5.23242C8.14307 4.40399 8.81464 3.73242 9.64307 3.73242C10.4715 3.73242 11.1431 4.40399 11.1431 5.23242ZM14.6431 6.73242C15.4715 6.73242 16.1431 6.06085 16.1431 5.23242C16.1431 4.40399 15.4715 3.73242 14.6431 3.73242C13.8147 3.73242 13.1431 4.40399 13.1431 5.23242C13.1431 6.06085 13.8147 6.73242 14.6431 6.73242Z" fill="white"/>
</mask>
<g mask="url(#mask0_4155_8)">
<path fill-rule="evenodd" clip-rule="evenodd" d="M40.1431 17.2324C40.1431 14.1948 37.6807 11.7324 34.6431 11.7324H17.6431C14.6055 11.7324 12.1431 14.1948 12.1431 17.2324C12.1431 20.27 14.6055 22.7324 17.6431 22.7324H34.6431C37.6807 22.7324 40.1431 20.27 40.1431 17.2324ZM14.1431 17.2324C14.1431 19.1654 15.7101 20.7324 17.6431 20.7324C19.5761 20.7324 21.1431 19.1654 21.1431 17.2324C21.1431 15.2994 19.5761 13.7324 17.6431 13.7324C15.7101 13.7324 14.1431 15.2994 14.1431 17.2324ZM12.1431 30.2324C12.1431 27.1948 14.6055 24.7324 17.6431 24.7324H34.6431C37.6807 24.7324 40.1431 27.1948 40.1431 30.2324C40.1431 33.27 37.6807 35.7324 34.6431 35.7324H17.6431C14.6055 35.7324 12.1431 33.27 12.1431 30.2324ZM31.1431 30.2324C31.1431 32.1654 32.7101 33.7324 34.6431 33.7324C36.5761 33.7324 38.1431 32.1654 38.1431 30.2324C38.1431 28.2994 36.5761 26.7324 34.6431 26.7324C32.7101 26.7324 31.1431 28.2994 31.1431 30.2324Z" fill="#CCFFFF"/>
</g>
</svg>
