<svg width="20" height="19" viewBox="0 0 20 19" fill="none" xmlns="http://www.w3.org/2000/svg">
<path d="M3.95287 12.3826L3.94287 12.3676C3.74446 12.1686 3.62083 11.9072 3.59287 11.6276C3.57347 11.4507 3.59222 11.2716 3.64787 11.1026C3.67287 10.9626 3.71287 10.8326 3.76787 10.7176L3.80787 10.6326L7.47787 4.14258H18.4029C18.721 4.14707 19.0256 4.27172 19.2556 4.49153C19.4856 4.71133 19.624 5.01 19.6429 5.32758L19.6479 5.40758V16.8676C19.6525 17.1893 19.5339 17.5006 19.3164 17.7377C19.0988 17.9748 18.7988 18.1196 18.4779 18.1426L18.3979 18.1476H9.64287C9.7635 18.0158 9.85448 17.8597 9.90968 17.6898C9.96488 17.5199 9.98302 17.3401 9.96287 17.1626C9.92787 16.8326 9.74787 16.6176 9.48787 16.4276L9.41287 16.3776L4.10287 12.5126L4.03287 12.4626V12.4576L4.10287 12.5076C4.05554 12.4757 4.01044 12.4406 3.96787 12.4026L3.95287 12.3876V12.3826Z" fill="url(#paint0_linear_4072_4)"/>
<path d="M11.1681 0.192508C11.5181 0.117508 11.8731 0.192508 12.1631 0.397508L15.4431 2.75751C15.6582 2.91203 15.8187 3.13089 15.9013 3.38251C15.984 3.63414 15.9846 3.90551 15.9031 4.15751V4.14251L11.6531 17.1425L11.6281 17.2425L11.6131 17.2825L11.5981 17.3275L11.5231 17.4875L11.5131 17.5075L11.4181 17.6525L11.4031 17.6725C11.3672 17.7164 11.3288 17.7581 11.2881 17.7975L11.2731 17.8075C11.1876 17.8891 11.0897 17.9566 10.9831 18.0075L10.9681 18.0225C10.9181 18.0475 10.8681 18.0725 10.8131 18.0875H10.7881L10.6231 18.1275H10.5981C10.5386 18.1372 10.4784 18.1422 10.4181 18.1425H1.90811C1.74114 18.1425 1.57582 18.1095 1.42169 18.0453C1.26756 17.9811 1.12766 17.887 1.01006 17.7685C0.892464 17.6499 0.799494 17.5093 0.736513 17.3547C0.673532 17.2 0.641786 17.0345 0.643106 16.8675V5.41751C0.643106 4.71251 1.20811 4.14251 1.90811 4.14251H8.44311L10.3431 0.792508C10.5035 0.514154 10.7649 0.308245 11.0731 0.217508L11.1631 0.192508H11.1681Z" fill="#0073E6"/>
<path d="M15.8331 4.14258L11.6481 17.1426L11.6381 17.1926L11.6281 17.2426L11.6131 17.2826L11.5981 17.3276L11.5631 17.4076L11.5231 17.4876L11.5131 17.5076L11.4631 17.5826L11.4181 17.6526L11.4031 17.6726L11.3481 17.7376L11.2881 17.7976L11.2731 17.8076C11.2331 17.8526 11.1881 17.8876 11.1431 17.9226L11.0681 17.9726L10.9831 18.0126L10.9681 18.0226L10.8931 18.0576L10.8131 18.0876H10.7881L10.7081 18.1126L10.6581 18.1176L10.7081 18.0676C10.9081 17.8126 11.0031 17.4826 10.9631 17.1576C10.9281 16.8276 10.7481 16.6126 10.4881 16.4226L10.4131 16.3726L5.10311 12.5076L5.03311 12.4576C4.98669 12.4174 4.94325 12.374 4.90311 12.3276L4.88311 12.3026C4.86225 12.28 4.84223 12.2566 4.82311 12.2326L4.81311 12.2126L4.79811 12.1926C4.76626 12.1447 4.73786 12.0945 4.71311 12.0426L4.69811 12.0126C4.6669 11.945 4.6418 11.8747 4.62311 11.8026L4.61811 11.7676L4.60811 11.7176L4.60311 11.6876C4.5771 11.5193 4.5856 11.3475 4.62811 11.1826L4.63811 11.1376C4.64442 11.1208 4.65108 11.1041 4.65811 11.0876C4.67311 10.9626 4.70811 10.8376 4.76311 10.7176L4.81311 10.6326L8.47311 4.14258H15.8281H15.8331Z" fill="url(#paint1_linear_4072_4)"/>
<defs>
<linearGradient id="paint0_linear_4072_4" x1="11.6029" y1="4.98258" x2="11.6029" y2="18.9826" gradientUnits="userSpaceOnUse">
<stop offset="0.1" stop-color="#FF80FF"/>
<stop offset="0.39" stop-color="#FF7BF9"/>
<stop offset="0.77" stop-color="#FF6EEA"/>
<stop offset="1" stop-color="#FF62DC"/>
</linearGradient>
<linearGradient id="paint1_linear_4072_4" x1="15.8331" y1="13.1076" x2="5.95311" y2="13.1076" gradientUnits="userSpaceOnUse">
<stop stop-color="#0073E6"/>
<stop offset="1" stop-color="#00299C"/>
</linearGradient>
</defs>
</svg>
