<svg width="22" height="21" viewBox="0 0 22 21" fill="none" xmlns="http://www.w3.org/2000/svg">
<path d="M15.2306 7.74662C15.2306 7.57364 15.1948 7.40261 15.1254 7.24457L13.2292 2.9193C13.0334 2.4731 12.5968 2.18555 12.115 2.18555H2.42647C1.75299 2.18555 1.20703 2.73883 1.20703 3.42134V12.0719C1.20703 12.7544 1.75299 13.3077 2.42647 13.3077H12.115C12.5968 13.3077 13.0334 13.0202 13.2292 12.5739L15.1254 8.24866C15.1948 8.09063 15.2306 7.91959 15.2306 7.74662Z" stroke="#C4CCD8" stroke-width="1.83333"/>
<path d="M6.52637 13.0669C6.52637 13.2399 6.5622 13.4109 6.63154 13.569L8.52777 17.8942C8.72352 18.3405 9.16019 18.628 9.64202 18.628H19.3305C20.004 18.628 20.5499 18.0747 20.5499 17.3922V8.74167C20.5499 8.05916 20.004 7.50586 19.3305 7.50586H9.64202C9.16019 7.50586 8.72352 7.79339 8.52777 8.23963L6.63154 12.5649C6.5622 12.7229 6.52637 12.894 6.52637 13.0669Z" stroke="#C4CCD8" stroke-width="1.83333"/>
</svg>
