<svg width="21" height="21" viewBox="0 0 21 21" fill="none" xmlns="http://www.w3.org/2000/svg">
<path d="M15.976 5.59008L11.8659 18.1429L11.8556 18.1898L11.8431 18.2368L11.8278 18.2814C11.8239 18.2949 11.8194 18.3083 11.8141 18.3214L11.7818 18.3996L11.744 18.4753L11.7318 18.4968L11.6894 18.5677L11.6419 18.6353L11.6267 18.6553L11.5737 18.7185L11.517 18.7784L11.5032 18.7892C11.4634 18.8283 11.4206 18.8643 11.3753 18.8968L11.301 18.9441L11.2229 18.9846L11.2076 18.9938L11.1323 19.0275L11.0553 19.0569H11.0324L10.9524 19.0798C10.9387 19.0827 10.9292 19.0666 10.9382 19.0559L10.9534 19.0381C11.1478 18.7893 11.2379 18.473 11.2018 18.1568C11.1654 17.838 10.9912 17.6318 10.7401 17.447L10.6698 17.3971L5.53186 13.66L5.46586 13.6084C5.44235 13.5887 5.41977 13.5682 5.39806 13.547C5.39347 13.5426 5.38844 13.5376 5.38341 13.5325C5.36842 13.5174 5.35401 13.502 5.34008 13.4864L5.32093 13.4644C5.30961 13.451 5.29878 13.4377 5.28824 13.4241C5.28036 13.414 5.27243 13.4034 5.26464 13.3927L5.25144 13.3741L5.23877 13.3556C5.23176 13.3451 5.2248 13.3344 5.21798 13.3235C5.20995 13.3106 5.20226 13.2978 5.19477 13.2847C5.18969 13.2759 5.18476 13.267 5.17992 13.2581C5.17097 13.2416 5.16241 13.2248 5.15424 13.2078L5.14177 13.181C5.13524 13.1666 5.12885 13.1517 5.12281 13.1368C5.1187 13.1266 5.11478 13.1165 5.11101 13.1065C5.10434 13.0886 5.098 13.0704 5.09215 13.0521C5.08964 13.0442 5.08729 13.0367 5.08502 13.029C5.08 13.0123 5.07529 12.9952 5.07096 12.978L5.06338 12.9461C5.06001 12.931 5.05696 12.916 5.0542 12.901L5.04832 12.8662C5.0414 12.8213 5.037 12.7759 5.03516 12.7303C5.0337 12.6942 5.03387 12.6578 5.03568 12.6214C5.03863 12.5648 5.04507 12.5109 5.05521 12.4574C5.05809 12.4421 5.0613 12.4268 5.06481 12.4116C5.06745 12.4001 5.07025 12.3887 5.07321 12.3773L5.08461 12.3366C5.08881 12.3226 5.09326 12.3086 5.098 12.2946L5.10119 12.2853C5.11836 12.1643 5.15332 12.0444 5.20705 11.9299L5.25086 11.845L8.77082 5.57073M15.976 5.59008L15.9781 5.58882C16.1411 5.08881 15.9621 4.54074 15.5354 4.23332L12.3619 1.94996C12.0845 1.75053 11.7356 1.67781 11.4016 1.7498L11.3117 1.77281C11.0162 1.86067 10.7641 2.05865 10.609 2.32775L8.76865 5.57044M15.976 5.59008L15.9837 5.57068" stroke="#C4CCD8" stroke-width="1.83333"/>
<path d="M18.3875 5.57031H2.42963C1.76196 5.57031 1.2207 6.11157 1.2207 6.77924V17.9014C1.2207 18.5691 1.76196 19.1103 2.42963 19.1103H18.3875C19.0552 19.1103 19.5964 18.5691 19.5964 17.9014V6.77924C19.5964 6.11157 19.0552 5.57031 18.3875 5.57031Z" stroke="#C4CCD8" stroke-width="1.83333"/>
</svg>
