<svg width="23" height="23" viewBox="0 0 23 23" fill="none" xmlns="http://www.w3.org/2000/svg">
<path d="M7.30212 0.508076C5.47843 0.623565 3.76966 1.43836 2.5319 2.78265C1.29415 4.12695 0.622904 5.89704 0.658052 7.72404C0.6932 9.55104 1.43203 11.294 2.72057 12.5897C4.00912 13.8854 5.74797 14.6339 7.57474 14.6791H13.3271C14.0741 14.6791 14.6794 14.0793 14.6794 13.3269V7.59633C14.6809 6.64044 14.489 5.69412 14.1151 4.81439C13.7412 3.93465 13.1931 3.1397 12.5038 2.47742C11.8145 1.81514 10.9983 1.29924 10.1044 0.960786C9.21041 0.622334 8.25718 0.468338 7.30212 0.508076Z" fill="url(#paint0_linear_4003_480)"/>
<path d="M15.5135 22.3058C17.3372 22.1903 19.0459 21.3755 20.2837 20.0312C21.5214 18.6869 22.1927 16.9168 22.1575 15.0898C22.1224 13.2628 21.3836 11.5199 20.095 10.2242C18.8065 8.92849 17.0676 8.18003 15.2408 8.13477H9.48846C9.12983 8.13477 8.78589 8.27723 8.5323 8.53082C8.27871 8.78441 8.13624 9.12835 8.13624 9.48699V15.2176C8.13468 16.1735 8.32662 17.1198 8.70051 17.9995C9.07439 18.8792 9.62248 19.6742 10.3118 20.3365C11.001 20.9987 11.8173 21.5147 12.7112 21.8531C13.6052 22.1916 14.5584 22.3456 15.5135 22.3058Z" fill="#0073E6"/>
<path d="M14.6792 8.13631V13.3271C14.6792 13.6857 14.5368 14.0297 14.2832 14.2833C14.0296 14.5368 13.6856 14.6793 13.327 14.6793H8.13623V9.48853C8.13552 9.14452 8.26595 8.81316 8.50096 8.56194C8.73598 8.31071 9.05791 8.15851 9.40121 8.13631L9.48845 8.13086H14.6792V8.13631Z" fill="url(#paint1_linear_4003_480)"/>
<defs>
<linearGradient id="paint0_linear_4003_480" x1="7.5911" y1="1.435" x2="7.5911" y2="8.81769" gradientUnits="userSpaceOnUse">
<stop stop-color="#11EFE3"/>
<stop offset="0.33" stop-color="#15E8E2"/>
<stop offset="0.74" stop-color="#1FD3E0"/>
<stop offset="1" stop-color="#21CFE0"/>
</linearGradient>
<linearGradient id="paint1_linear_4003_480" x1="11.4077" y1="9.07414" x2="11.4077" y2="15.3554" gradientUnits="userSpaceOnUse">
<stop stop-color="#00299C"/>
<stop offset="1" stop-color="#0073E6"/>
</linearGradient>
</defs>
</svg>
