<svg width="74" height="25" viewBox="0 0 74 25" fill="none" xmlns="http://www.w3.org/2000/svg">
<path d="M36.6142 0.570297L31.7392 23.9893H25.8182L30.6942 0.570297H36.6142ZM61.1682 15.7023L64.3032 6.87529L66.0442 15.7023H61.1682ZM67.7852 23.9893H73.1842L68.4822 0.570297H63.4322C62.3872 0.570297 61.3422 1.29029 60.9942 2.37129L52.2872 23.9893H58.3822L59.6012 20.5663H67.0892L67.7852 23.9893ZM52.4612 16.2433C52.4612 10.1183 44.2772 9.7573 44.2772 7.0553C44.4512 5.7943 45.4962 5.07329 46.7152 5.07329C48.6302 4.89329 50.7202 5.2543 52.4612 6.1543L53.5062 1.11029C51.7652 0.39029 49.8492 0.0292969 48.1082 0.0292969C42.3612 0.0292969 38.1822 3.27229 38.1822 7.77629C38.1822 11.1993 41.1422 13.0003 43.2322 14.0813C45.4962 15.1623 46.3662 15.8833 46.1922 16.9633C46.1922 18.5853 44.4512 19.3053 42.7092 19.3053C40.6202 19.3053 38.5302 18.7653 36.6142 17.8643L35.5702 22.9083C37.6592 23.8093 39.9232 24.1693 42.0132 24.1693C48.4562 24.3503 52.4612 21.1073 52.4612 16.2433ZM28.2562 0.570297L18.8522 23.9893H12.5832L7.8812 5.25429C7.8812 4.35329 7.18519 3.63229 6.48819 3.27229C4.74719 2.37129 2.83119 1.6513 0.742188 1.2903L0.916199 0.570297H10.8422C12.2352 0.570297 13.2802 1.65129 13.4542 2.91229L15.8922 16.4233L22.1612 0.570297H28.2562Z" fill="white"/>
</svg>
