<svg width="355" opacity="0.3" height="216" viewBox="0 0 349 216" fill="none" xmlns="http://www.w3.org/2000/svg">
<path d="M-73.8645 104.564C-53.8424 76.4507 -27.1685 58.0355 11.9917 53.7828C133.279 40.6112 239.823 145.173 359.045 87.8219" stroke="white" stroke-linecap="round"/>
<path d="M-73.511 112.161C-53.4889 84.0485 -26.8149 65.6332 12.3452 61.3805C133.633 48.2089 240.176 152.771 359.398 95.4196" stroke="white" stroke-linecap="round"/>
<path d="M-74.2815 98.7282C-54.2594 70.6149 -27.5855 52.1996 11.5747 47.9469C132.862 34.7754 239.406 139.338 358.628 81.9861" stroke="white" stroke-linecap="round"/>
<path d="M-76.2307 91.6618C-56.2086 63.5485 -29.5347 45.1332 9.62549 40.8805C130.913 27.709 237.456 132.271 356.679 74.9197" stroke="white" stroke-linecap="round"/>
<path d="M-77.0569 85.4215C-57.0348 57.3081 -30.3608 38.8929 8.79935 34.6402C130.087 21.4686 236.63 126.031 355.852 68.6793" stroke="white" stroke-linecap="round"/>
<path d="M-77.885 79.1833C-57.8629 51.0699 -31.189 32.6547 7.9712 28.402C129.259 15.2304 235.802 119.792 355.024 62.4411" stroke="white" stroke-linecap="round"/>
<path d="M-69.4387 137.862C-49.4166 109.749 -22.7427 91.3344 16.4175 87.0817C137.705 73.9101 244.248 178.472 363.471 121.12" stroke="white" stroke-linecap="round"/>
<path d="M-69.0852 145.461C-49.0631 117.347 -22.3892 98.932 16.771 94.6793C138.059 81.5078 244.602 186.07 363.824 128.718" stroke="white" stroke-linecap="round"/>
<path d="M-69.8557 132.028C-49.8336 103.914 -23.1597 85.4984 16.0005 81.2457C137.288 68.0742 243.831 172.637 363.054 115.285" stroke="white" stroke-linecap="round"/>
<path d="M-71.8049 124.961C-51.7829 96.8473 -25.1089 78.432 14.0513 74.1793C135.339 61.0078 241.882 165.57 361.104 108.218" stroke="white" stroke-linecap="round"/>
<path d="M-72.6311 118.72C-52.609 90.607 -25.9351 72.1918 13.2251 67.9391C134.513 54.7675 241.056 159.33 360.278 101.978" stroke="white" stroke-linecap="round"/>
<path d="M-73.4592 112.483C-53.4372 84.3687 -26.7632 65.9535 12.397 61.7008C133.685 48.5292 240.228 153.092 359.45 95.7399" stroke="white" stroke-linecap="round"/>
</svg>
