<svg width="152" height="16" viewBox="0 0 152 16" fill="none" xmlns="http://www.w3.org/2000/svg">
<path fill-rule="evenodd" clip-rule="evenodd" d="M13.4813 7.95316C13.4813 8.34406 13.1603 8.66506 12.7693 8.66506H1.47227C1.08027 8.66506 0.759277 8.34406 0.759277 7.95316C0.759277 7.56156 1.08027 7.24056 1.47227 7.24056H12.7693C13.1603 7.24056 13.4813 7.56156 13.4813 7.95316ZM14.2913 10.788C14.2913 11.1789 13.9703 11.5 13.5793 11.5H5.50728C5.11628 11.5 4.79527 11.1789 4.79527 10.788C4.79527 10.3964 5.11628 10.0754 5.50728 10.0754H13.5793C13.9703 10.0754 14.2913 10.3964 14.2913 10.788ZM13.5793 5.83026H6.31728C5.92628 5.83026 5.60529 5.50926 5.60529 5.11826C5.60529 4.72666 5.92628 4.40566 6.31728 4.40566H13.5793C13.9703 4.40566 14.2913 4.72666 14.2913 5.11826C14.2913 5.50926 13.9703 5.83026 13.5793 5.83026ZM21.9433 7.95316C21.9433 9.90776 20.3663 11.4857 18.4103 11.4857C16.4563 11.4857 14.8783 9.89416 14.8783 7.95316C14.8783 6.01146 16.4563 4.41996 18.4103 4.41996C20.3663 4.41996 21.9433 6.01146 21.9433 7.95316ZM16.3023 7.95316C16.3023 9.12586 17.2523 10.0754 18.4243 10.0754C19.5973 10.0754 20.5473 9.12586 20.5473 7.95316C20.5473 6.77966 19.5973 5.83026 18.4243 5.83026C17.2523 5.83026 16.3023 6.77966 16.3023 7.95316ZM18.4243 1.58516C21.9303 1.58516 24.7783 4.44776 24.7783 7.95316C24.7783 11.4579 21.9303 14.3205 18.4243 14.3205H8.74728C8.35628 14.3205 8.03528 13.9995 8.03528 13.6086C8.03528 13.2177 8.35628 12.8967 8.74728 12.8967H18.4243C21.1473 12.8967 23.3683 10.676 23.3683 7.93886C23.3683 5.20176 21.1473 2.98116 18.4243 2.98116H3.09128C2.70028 2.98116 2.37927 2.66016 2.37927 2.26926C2.37927 1.87826 2.70028 1.55726 3.09128 1.55726H18.4243V1.58516ZM42.9883 10.3129V5.60696C42.9883 2.78576 44.8873 0.803263 47.6253 0.803263C50.3623 0.803263 52.2613 2.78576 52.2613 5.60696V10.3129C52.2613 13.1199 50.3473 15.0746 47.6253 15.0746C44.9013 15.0746 42.9883 13.1057 42.9883 10.3129ZM49.5663 10.4107V5.50926C49.5663 3.95916 48.6443 3.38636 47.6253 3.38636C46.6613 3.38636 45.7113 3.90286 45.7113 5.48146V10.3829C45.7113 11.933 46.6193 12.4773 47.6253 12.4773C48.5463 12.4773 49.5663 11.9886 49.5663 10.3964V10.4107ZM59.1593 3.38636C58.2233 3.38636 57.2463 3.90286 57.2463 5.48146V10.3829C57.2463 12.0164 58.2233 12.5051 59.1593 12.5051C60.4163 12.5051 61.1003 11.8909 61.1003 9.87986V9.69876H63.8093C63.8093 13.2313 62.3013 15.0888 59.1733 15.0888C56.4363 15.0888 54.5373 13.1199 54.5373 10.2987V5.55066C54.5373 2.74426 56.4363 0.789062 59.1733 0.789062C62.2453 0.789062 63.8093 2.81426 63.8093 6.02576H61.1003V5.83026C61.1003 3.79146 60.1093 3.37276 59.1593 3.37276V3.38636ZM72.7043 14.8791L69.9673 9.12596H68.9483V14.8791H66.2393V1.04016H68.9483V6.73766H69.9673L72.7043 1.04016H75.7353L72.2863 7.91106L75.7353 14.8791H72.7043ZM80.7763 3.65166V6.79396H84.5193V9.15376H80.7763V12.296H85.8313V14.8791H78.0813V1.04016H85.8313V3.65166H80.7763ZM93.0933 3.65166V14.8791H90.3843V3.65166H87.5073V1.04016H95.9693V3.65166H93.0933ZM114.529 14.8791V1.04016H117.238V14.8791H114.529ZM120.407 1.04016H124.946C127.683 1.04016 129.582 2.73006 129.582 6.10986V9.75436C129.582 13.0921 127.683 14.8791 124.946 14.8791H120.407V1.04016ZM123.117 12.3096H124.639C125.938 12.3096 126.915 11.7931 126.915 9.09806V6.40306C126.915 4.90856 126.524 3.63816 124.639 3.63816H123.117V12.3096ZM135.057 3.65166V6.79396H138.799V9.15376H135.057V12.296H140.111V14.8791H132.362V1.04016H140.111V3.65166H135.057ZM141.969 4.85296C141.969 2.32486 143.77 0.789062 146.507 0.789062C149.244 0.789062 151.018 2.57666 151.018 5.42506H148.35C148.35 3.95916 147.624 3.26076 146.466 3.26076C145.307 3.26076 144.664 3.80506 144.664 4.85296C144.664 7.60366 151.185 5.97006 151.185 10.9136C151.185 13.5387 149.3 15.1166 146.507 15.1166C143.714 15.1166 141.788 13.2876 141.788 10.3272H144.496C144.496 11.9329 145.32 12.6028 146.507 12.6028C147.694 12.6028 148.49 12.0728 148.49 10.9414C148.49 8.31626 141.969 9.76796 141.969 4.85296ZM38.7293 10.676L41.0613 14.8791H38.1013L36.2433 11.3045L35.9083 10.7039H34.4423V14.8791H31.7333V1.04016H36.1183C40.0143 1.04016 40.7403 4.28016 40.7403 6.03996C40.7403 7.99456 39.7623 9.40486 38.3663 10.0618C38.4923 10.2851 38.6173 10.5084 38.7153 10.676H38.7293ZM34.4423 3.63816V8.14866H35.7973C36.9273 8.14866 38.0733 7.64576 38.0733 5.87236C38.0733 4.08466 36.9843 3.63816 35.7973 3.63816H34.4423ZM109.766 10.676L112.099 14.8791H109.139L107.281 11.3045L106.946 10.7039H105.48V14.8791H102.784V1.04016H107.169C111.065 1.04016 111.791 4.28016 111.791 6.03996C111.791 7.99456 110.814 9.40486 109.417 10.0618C109.543 10.2851 109.669 10.5084 109.766 10.676ZM105.48 3.63816V8.14866H106.834C107.965 8.14866 109.11 7.64576 109.11 5.87236C109.11 4.08466 108.021 3.63816 106.834 3.63816H105.48Z" fill="white"/>
</svg>
