<svg width="72" height="45" viewBox="0 0 72 45" fill="none" xmlns="http://www.w3.org/2000/svg">
<path d="M45.6222 4.83984H26.3892V39.3898H45.6222V4.83984Z" fill="#F16122"/>
<path d="M27.6142 22.1216C27.6142 15.1116 30.8892 8.86757 36.0042 4.83957C32.2691 1.89857 27.5442 0.142578 22.4292 0.142578C10.2902 0.142578 0.451172 9.98257 0.451172 22.1216C0.451172 34.2606 10.2902 44.1006 22.4292 44.1006C27.5582 44.1006 32.2691 42.3436 36.0042 39.4036C30.8892 35.3756 27.6142 29.1316 27.6142 22.1216Z" fill="#ED1C24"/>
<path d="M69.4499 35.7387V35.0287H69.7289V34.8887H69.0039V35.0287H69.2829V35.7387H69.4359H69.4499ZM70.8579 35.7387V34.8887H70.6349L70.3849 35.4737L70.1329 34.8887H69.9099V35.7387H70.0639V35.0977L70.3009 35.6547H70.4679L70.7049 35.0977V35.7387H70.8579Z" fill="#F99F1C"/>
<path d="M71.5569 22.1216C71.5569 34.2606 61.7169 44.1006 49.5779 44.1006C44.4489 44.1006 39.7379 42.3436 36.0029 39.4036C41.1179 35.3756 44.3929 29.1316 44.3929 22.1216C44.3929 15.1116 41.1179 8.86757 36.0029 4.83957C39.7379 1.89857 44.4629 0.142578 49.5779 0.142578C61.7169 0.142578 71.5569 9.98257 71.5569 22.1216Z" fill="#F99F1C"/>
</svg>
