<svg width="74" height="25" viewBox="0 0 74 25" fill="none" xmlns="http://www.w3.org/2000/svg">
<path d="M36.6988 0.560532L31.8198 23.9985H25.8938L30.7738 0.560532H36.6988ZM61.2718 15.7045L64.4088 6.87053L66.1518 15.7045H61.2718ZM67.8948 23.9985H73.2968L68.5918 0.560532H63.5378C62.4918 0.560532 61.4458 1.28153 61.0978 2.36353L52.3838 23.9985H58.4838L59.7038 20.5725H67.1968L67.8948 23.9985ZM52.5578 16.2455C52.5578 10.1155 44.3678 9.75552 44.3678 7.05052C44.5418 5.78852 45.5868 5.06752 46.8068 5.06752C48.7238 4.88752 50.8158 5.24752 52.5578 6.14952L53.6038 1.10153C51.8608 0.380532 49.9438 0.0195312 48.2018 0.0195312C42.4498 0.0195312 38.2678 3.26452 38.2678 7.77252C38.2678 11.1975 41.2308 13.0005 43.3218 14.0825C45.5868 15.1635 46.4588 15.8855 46.2848 16.9665C46.2848 18.5895 44.5418 19.3105 42.7988 19.3105C40.7078 19.3105 38.6158 18.7695 36.6988 17.8685L35.6538 22.9165C37.7448 23.8175 40.0108 24.1785 42.1018 24.1785C48.5498 24.3585 52.5578 21.1135 52.5578 16.2455ZM28.3338 0.560532L18.9228 23.9985H12.6498L7.94382 5.24753C7.94382 4.34653 7.2468 3.62553 6.5498 3.26453C4.8068 2.36353 2.88983 1.64252 0.798828 1.28152L0.972809 0.560532H10.9068C12.3008 0.560532 13.3468 1.64253 13.5208 2.90453L15.9608 16.4255L22.2348 0.560532H28.3338Z" fill="black"/>
</svg>
