<svg width="20" height="15" viewBox="0 0 20 15" fill="none" xmlns="http://www.w3.org/2000/svg">
<path d="M15.0933 2.14258H2.09326C0.988692 2.14258 0.0932617 3.03801 0.0932617 4.14258V12.1426C0.0932617 13.2471 0.988692 14.1426 2.09326 14.1426H15.0933C16.1978 14.1426 17.0933 13.2471 17.0933 12.1426V4.14258C17.0933 3.03801 16.1978 2.14258 15.0933 2.14258Z" fill="#E6EBF1"/>
<path d="M14.0933 4.14258H3.09326C2.54098 4.14258 2.09326 4.59029 2.09326 5.14258C2.09326 5.69486 2.54098 6.14258 3.09326 6.14258H14.0933C14.6455 6.14258 15.0933 5.69486 15.0933 5.14258C15.0933 4.59029 14.6455 4.14258 14.0933 4.14258Z" fill="white"/>
<path d="M14.5933 9.14258C17.0785 9.14258 19.0933 7.12786 19.0933 4.64258C19.0933 2.1573 17.0785 0.142578 14.5933 0.142578C12.108 0.142578 10.0933 2.1573 10.0933 4.64258C10.0933 7.12786 12.108 9.14258 14.5933 9.14258Z" fill="#B4C2D0"/>
<path d="M12.5934 6.10258V3.17258H12.0934C12.0534 3.50258 11.8934 3.63258 11.5134 3.67258L11.2734 3.68258V4.19258H11.9334V6.09258H12.6034L12.5934 6.10258ZM14.2034 6.14258C14.8534 6.14258 15.2734 5.74258 15.2734 5.27258C15.2734 4.91258 15.0734 4.70258 14.8134 4.60258C14.9351 4.55196 15.0385 4.46556 15.1099 4.35483C15.1814 4.24411 15.2175 4.11429 15.2134 3.98258C15.2134 3.50258 14.8334 3.14258 14.2234 3.14258C13.5934 3.14258 13.2034 3.54258 13.1334 4.06258L13.7534 4.13258C13.7934 3.88258 13.9534 3.70258 14.1934 3.70258C14.4234 3.70258 14.5634 3.83258 14.5634 4.02258C14.5634 4.24258 14.3934 4.34258 14.1434 4.34258H13.8834V4.88258H14.1534C14.4234 4.88258 14.6134 4.98258 14.6134 5.21258C14.6134 5.45258 14.4334 5.58258 14.1934 5.58258C13.9434 5.58258 13.7534 5.42258 13.7134 5.13258L13.0634 5.23258C13.1434 5.83258 13.6034 6.14258 14.2034 6.14258ZM16.7334 6.14258C17.3334 6.14258 17.8034 5.71258 17.8034 5.12258C17.8034 4.56258 17.4434 4.14258 16.8534 4.14258C16.6534 4.14258 16.4834 4.21258 16.3734 4.30258L16.4234 3.76258H17.6234V3.18258H15.9234L15.7834 4.78258L16.3834 4.85258C16.4534 4.75258 16.5834 4.67258 16.7534 4.67258C17.0134 4.67258 17.1734 4.87258 17.1734 5.13258C17.1734 5.40258 16.9734 5.58258 16.7234 5.58258C16.4734 5.58258 16.3034 5.41258 16.2634 5.14258L15.6134 5.24258C15.7034 5.82258 16.1334 6.14258 16.7334 6.14258Z" fill="white"/>
</svg>
