<svg width="11" height="11" viewBox="0 0 11 11" fill="none" xmlns="http://www.w3.org/2000/svg">
<path d="M4.14307 8.14258C6.07606 8.14258 7.64307 6.57557 7.64307 4.64258C7.64307 2.70958 6.07606 1.14258 4.14307 1.14258C2.21007 1.14258 0.643066 2.70958 0.643066 4.64258C0.643066 6.57557 2.21007 8.14258 4.14307 8.14258Z" stroke="#62788D"/>
<path d="M6.29283 6.79258C6.49283 6.59258 6.79283 6.59258 6.99283 6.79258L9.11283 8.91258C9.17014 8.95556 9.21754 9.01035 9.25183 9.07325C9.28612 9.13615 9.30649 9.20568 9.31157 9.27713C9.31665 9.34859 9.30632 9.4203 9.28127 9.48742C9.25622 9.55453 9.21704 9.61548 9.16638 9.66613C9.11573 9.71679 9.05478 9.75596 8.98767 9.78101C8.92056 9.80606 8.84884 9.8164 8.77739 9.81132C8.70593 9.80624 8.6364 9.78587 8.5735 9.75158C8.51061 9.71729 8.45581 9.66989 8.41283 9.61258L6.29283 7.49258C6.20122 7.39911 6.1499 7.27345 6.1499 7.14258C6.1499 7.0117 6.20122 6.88604 6.29283 6.79258Z" fill="#62788D"/>
</svg>
