<svg width="30" height="13" viewBox="0 0 30 13" fill="none" xmlns="http://www.w3.org/2000/svg">
<path d="M25.0831 3.36172L26.7031 8.59172H26.7331L28.3531 3.36172H29.7531L27.3431 10.1317C26.7831 11.6817 26.1531 12.1917 24.8231 12.1917C24.7231 12.1917 24.3831 12.1917 24.2931 12.1617V11.1017L24.6931 11.1217C25.2931 11.1217 25.6431 10.8617 25.8531 10.2017L25.9731 9.80172L23.6531 3.36172H25.0831ZM6.54307 2.57172C6.85307 2.60172 7.74307 2.69172 8.30307 3.53172C8.24307 3.57172 7.24307 4.14172 7.24307 5.36172C7.25307 6.81172 8.51307 7.30172 8.53307 7.31172C8.51307 7.35172 8.33307 8.00172 7.87307 8.67172C7.47307 9.26172 7.05307 9.84172 6.40307 9.85172C5.76307 9.86172 5.55307 9.47172 4.82307 9.47172C4.09307 9.47172 3.85307 9.84172 3.25307 9.87172C2.62307 9.88172 2.14307 9.23172 1.74307 8.64172C0.913066 7.45172 0.293066 5.28172 1.14307 3.81172C1.33827 3.45727 1.62278 3.16004 1.96836 2.94953C2.31394 2.73903 2.70857 2.62257 3.11307 2.61172C3.74307 2.60172 4.31307 3.02172 4.69307 3.02172C5.07307 3.02172 5.74307 2.52172 6.52307 2.57172H6.54307ZM20.5431 3.28172C22.1131 3.28172 23.1431 4.10172 23.1431 5.38172V9.78172H21.8731V8.74172H21.8431C21.6382 9.09281 21.3424 9.38215 20.9869 9.57926C20.6315 9.77637 20.2294 9.87395 19.8231 9.86172C18.5431 9.86172 17.6531 9.10172 17.6531 7.96172C17.6531 6.83172 18.5231 6.18172 20.1131 6.08172L21.8131 5.98172V5.48172C21.8131 4.76172 21.3531 4.37172 20.5131 4.37172C19.8131 4.37172 19.3131 4.73172 19.2131 5.27172H17.9731C18.0131 4.12172 19.0931 3.29172 20.5431 3.29172V3.28172ZM14.4131 0.931719C16.1231 0.931719 17.3131 2.11172 17.3131 3.83172C17.3319 4.22318 17.2682 4.61422 17.1264 4.97955C16.9845 5.34488 16.7675 5.67636 16.4894 5.95254C16.2114 6.22871 15.8784 6.44344 15.5121 6.58283C15.1459 6.72222 14.7544 6.78316 14.3631 6.76172H12.4631V9.79172H11.1031V0.931719H14.4031H14.4131ZM21.8131 6.88172L20.2931 6.98172C19.4431 7.04172 18.9931 7.36172 18.9931 7.91172C18.9931 8.46172 19.4531 8.81172 20.1931 8.81172C21.1131 8.81172 21.8231 8.21172 21.8231 7.38172V6.88172H21.8131ZM14.0531 2.08172H12.4731V5.61172H14.0431C15.2431 5.61172 15.9131 4.96172 15.9131 3.84172C15.9131 2.73172 15.2331 2.09172 14.0531 2.09172V2.08172ZM6.54307 0.261719C6.60307 0.831719 6.38307 1.39172 6.04307 1.80172C5.70307 2.20172 5.16307 2.53172 4.62307 2.48172C4.55307 1.93172 4.82307 1.35172 5.12307 1.00172C5.47307 0.581719 6.06307 0.291719 6.54307 0.261719Z" fill="white"/>
</svg>
