<svg width="21" height="21" viewBox="0 0 21 21" fill="none" xmlns="http://www.w3.org/2000/svg">
<path d="M10.1431 0.142578C12.7952 0.142578 15.3388 1.19615 17.2141 3.07151C19.0895 4.94687 20.1431 7.49041 20.1431 10.1426C20.1431 12.7947 19.0895 15.3383 17.2141 17.2136C15.3388 19.089 12.7952 20.1426 10.1431 20.1426C7.4909 20.1426 4.94736 19.089 3.072 17.2136C1.19663 15.3383 0.143066 12.7947 0.143066 10.1426C0.143066 7.49041 1.19663 4.94687 3.072 3.07151C4.94736 1.19615 7.4909 0.142578 10.1431 0.142578ZM13.4431 6.25258H4.48307C4.373 6.25258 4.26744 6.2963 4.18962 6.37413C4.11179 6.45196 4.06807 6.55751 4.06807 6.66758C4.06807 6.77764 4.11179 6.8832 4.18962 6.96103C4.26744 7.03886 4.373 7.08258 4.48307 7.08258H13.4231C14.1589 7.12592 14.8503 7.44874 15.3559 7.98503C15.8615 8.52131 16.1431 9.23052 16.1431 9.96758C16.1431 10.7046 15.8615 11.4138 15.3559 11.9501C14.8503 12.4864 14.1589 12.8092 13.4231 12.8526H7.79307C7.683 12.8526 7.57744 12.8963 7.49962 12.9741C7.42179 13.052 7.37807 13.1575 7.37807 13.2676C7.37807 13.3776 7.42179 13.4832 7.49962 13.561C7.57744 13.6389 7.683 13.6826 7.79307 13.6826H13.4331C14.4183 13.6826 15.3633 13.2912 16.06 12.5945C16.7567 11.8978 17.1481 10.9529 17.1481 9.96758C17.1481 8.9823 16.7567 8.03737 16.06 7.34068C15.3633 6.64398 14.4183 6.25258 13.4331 6.25258H13.4431ZM13.4431 7.90258C13.0352 7.9006 12.636 8.01973 12.2959 8.24488C11.9558 8.47003 11.6902 8.79106 11.5328 9.1673C11.3753 9.54353 11.3331 9.95804 11.4114 10.3583C11.4898 10.7586 11.6852 11.1265 11.9729 11.4156C12.2606 11.7047 12.6276 11.9019 13.0275 11.9822C13.4274 12.0625 13.8421 12.0223 14.2191 11.8667C14.5961 11.7111 14.9184 11.4471 15.1452 11.1081C15.372 10.7691 15.4931 10.3704 15.4931 9.96258C15.4931 8.83258 14.5731 7.90258 13.4331 7.90258H13.4431ZM10.6131 11.2026H5.91307C5.803 11.2026 5.69744 11.2463 5.61962 11.3241C5.54179 11.402 5.49807 11.5075 5.49807 11.6176C5.49807 11.7276 5.54179 11.8332 5.61962 11.911C5.69744 11.9889 5.803 12.0326 5.91307 12.0326H10.6131C10.7231 12.0326 10.8287 11.9889 10.9065 11.911C10.9843 11.8332 11.0281 11.7276 11.0281 11.6176C11.0281 11.5075 10.9843 11.402 10.9065 11.3241C10.8287 11.2463 10.7231 11.2026 10.6131 11.2026ZM13.4431 8.74258C13.6146 8.72713 13.7874 8.74758 13.9506 8.80262C14.1138 8.85766 14.2637 8.94609 14.3909 9.06228C14.518 9.17846 14.6195 9.31986 14.689 9.47744C14.7584 9.63503 14.7943 9.80536 14.7943 9.97758C14.7943 10.1498 14.7584 10.3201 14.689 10.4777C14.6195 10.6353 14.518 10.7767 14.3909 10.8929C14.2637 11.0091 14.1138 11.0975 13.9506 11.1525C13.7874 11.2076 13.6146 11.228 13.4431 11.2126C13.1347 11.1848 12.8479 11.0427 12.639 10.8141C12.4301 10.5856 12.3143 10.2872 12.3143 9.97758C12.3143 9.66797 12.4301 9.36956 12.639 9.14102C12.8479 8.91248 13.1347 8.77035 13.4431 8.74258ZM10.1431 9.54258H3.55307C3.443 9.54258 3.33744 9.5863 3.25962 9.66413C3.18179 9.74196 3.13807 9.84751 3.13807 9.95758C3.13807 10.0676 3.18179 10.1732 3.25962 10.251C3.33744 10.3289 3.443 10.3726 3.55307 10.3726H10.1531C10.3731 10.3726 10.5531 10.1826 10.5531 9.95258C10.5505 9.84558 10.5061 9.74385 10.4295 9.66911C10.3529 9.59437 10.2501 9.55255 10.1431 9.55258V9.54258ZM10.6131 7.89258H6.38307C6.273 7.89258 6.16744 7.9363 6.08962 8.01413C6.01179 8.09196 5.96807 8.19751 5.96807 8.30758C5.96807 8.41764 6.01179 8.5232 6.08962 8.60103C6.16744 8.67885 6.273 8.72258 6.38307 8.72258H10.6131C10.7231 8.72258 10.8287 8.67885 10.9065 8.60103C10.9843 8.5232 11.0281 8.41764 11.0281 8.30758C11.0281 8.19751 10.9843 8.09196 10.9065 8.01413C10.8287 7.9363 10.7231 7.89258 10.6131 7.89258Z" fill="white"/>
</svg>
