<svg width="7" height="4" viewBox="0 0 7 4" fill="none" xmlns="http://www.w3.org/2000/svg">
<path fill-rule="evenodd" clip-rule="evenodd" d="M5.67518 0.683275C5.71037 0.648081 5.75215 0.620163 5.79814 0.601116C5.84412 0.582069 5.8934 0.572266 5.94318 0.572266C5.99295 0.572266 6.04223 0.582069 6.08822 0.601116C6.1342 0.620163 6.17598 0.648081 6.21118 0.683275C6.24637 0.718469 6.27429 0.760251 6.29334 0.806234C6.31238 0.852218 6.32219 0.901503 6.32219 0.951275C6.32219 1.00105 6.31238 1.05033 6.29334 1.09632C6.27429 1.1423 6.24637 1.18408 6.21118 1.21927L3.82718 3.60327C3.79207 3.63844 3.75037 3.66634 3.70447 3.68537C3.65857 3.70441 3.60937 3.7142 3.55968 3.7142C3.50999 3.7142 3.46078 3.70441 3.41488 3.68537C3.36898 3.66634 3.32729 3.63844 3.29218 3.60327L0.908177 1.21927C0.842017 1.14736 0.806193 1.05266 0.808184 0.95496C0.810175 0.857259 0.849827 0.764103 0.918862 0.694939C0.987897 0.625775 1.08098 0.58595 1.17868 0.583776C1.27637 0.581603 1.37113 0.61725 1.44318 0.683275L3.55918 2.79927L5.67518 0.683275Z" fill="#0A2540"/>
</svg>
