<svg width="18" height="13" viewBox="0 0 18 13" fill="none" xmlns="http://www.w3.org/2000/svg">
<path d="M2.24324 0.322266H16.0432C16.8332 0.322266 17.4632 0.952266 17.4632 1.73227V10.4723C17.4632 11.2523 16.8332 11.8923 16.0532 11.8923H2.23324C1.45324 11.8923 0.823242 11.2523 0.823242 10.4723V1.74227C0.823242 0.952266 1.44324 0.322266 2.23324 0.322266H2.24324Z" fill="white" stroke="black" stroke-opacity="0.2" stroke-width="0.5"/>
<path d="M2.62326 4.53281C2.22059 4.31263 1.79003 4.14781 1.34326 4.04281L1.36326 3.95281H3.29326C3.56326 3.95281 3.77326 4.05281 3.84326 4.32281L4.26326 6.33281L4.39326 6.93281L5.57326 3.96281H6.85326L4.95326 8.31281H3.69326L2.62326 4.51281V4.53281ZM7.79326 8.33281H6.59326L7.34326 3.96281H8.54326L7.79326 8.33281ZM12.1633 4.07281L12.0033 5.02281L11.8933 4.97281C11.6833 4.88281 11.3933 4.79281 10.9933 4.80281C10.5133 4.80281 10.3033 4.99281 10.2933 5.18281C10.2933 5.38281 10.5633 5.51281 10.9733 5.72281C11.6733 6.02281 11.9933 6.41281 11.9933 6.91281C11.9833 7.81281 11.1633 8.39281 9.89326 8.39281C9.35326 8.39281 8.83326 8.29281 8.55326 8.17281L8.71326 7.18281L8.88326 7.25281C9.27326 7.42281 9.52326 7.49281 10.0133 7.49281C10.3533 7.49281 10.7233 7.35281 10.7333 7.06281C10.7333 6.87281 10.5733 6.73281 10.1033 6.52281C9.65326 6.30281 9.04326 5.95281 9.05326 5.32281C9.05326 4.48281 9.90326 3.88281 11.0833 3.88281C11.5533 3.88281 11.9333 3.98281 12.1633 4.07281ZM13.7633 6.79281H14.7633L14.4933 5.52281L14.4033 5.14281L14.2533 5.57281L13.7733 6.79281H13.7633ZM15.2633 3.96281L16.2233 8.33281H15.1033L14.9633 7.68281H13.4233L13.1633 8.33281H11.9033L13.6933 4.33281C13.8233 4.03281 14.0333 3.97281 14.3233 3.97281H15.2533V3.96281H15.2633Z" fill="#1434CB"/>
</svg>
