<svg width="25" height="17" viewBox="0 0 25 17" fill="none" xmlns="http://www.w3.org/2000/svg">
<path d="M22.1431 0.59375H2.14307C1.0385 0.59375 0.143066 1.48918 0.143066 2.59375V14.5938C0.143066 15.6983 1.0385 16.5938 2.14307 16.5938H22.1431C23.2476 16.5938 24.1431 15.6983 24.1431 14.5938V2.59375C24.1431 1.48918 23.2476 0.59375 22.1431 0.59375Z" fill="#016FD0"/>
<path fill-rule="evenodd" clip-rule="evenodd" d="M13.9028 13.993V8.29297H24.0528V9.87297L22.8828 11.123L24.0528 12.383V13.993H22.1828L21.1828 12.893L20.2028 13.993H13.9028Z" fill="#FFFFFE"/>
<path fill-rule="evenodd" clip-rule="evenodd" d="M14.583 13.3641V8.91406H18.353V9.93406H15.803V10.6341H18.303V11.6341H15.803V12.3341H18.353V13.3641H14.583Z" fill="#016FD0"/>
<path fill-rule="evenodd" clip-rule="evenodd" d="M18.3433 13.3641L20.4233 11.1341L18.3433 8.91406H19.9533L21.2333 10.3241L22.5133 8.91406H24.0533V8.95406L22.0133 11.1341L24.0533 13.3041V13.3641H22.4933L21.1933 11.9341L19.9133 13.3641H18.3433Z" fill="#016FD0"/>
<path fill-rule="evenodd" clip-rule="evenodd" d="M14.383 3.22461H16.823L17.683 5.17461V3.22461H20.703L21.223 4.68461L21.753 3.22461H24.053V8.92461H11.873L14.383 3.22461Z" fill="#FFFFFE"/>
<path fill-rule="evenodd" clip-rule="evenodd" d="M14.843 3.84375L12.873 8.29375H14.223L14.593 7.39375H16.613L16.983 8.29375H18.373L16.403 3.84375H14.843ZM15.013 6.40375L15.613 4.98375L16.193 6.40375H15.013Z" fill="#016FD0"/>
<path fill-rule="evenodd" clip-rule="evenodd" d="M18.353 8.29375V3.84375H20.253L21.243 6.59375L22.233 3.85375H24.063V8.29375H22.883V5.25375L21.763 8.29375H20.683L19.553 5.23375V8.29375H18.353Z" fill="#016FD0"/>
</svg>
