<svg width="5" height="8" viewBox="0 0 5 8" fill="none" xmlns="http://www.w3.org/2000/svg">
<path fill-rule="evenodd" clip-rule="evenodd" d="M0.681286 1.704C0.594096 1.61293 0.54606 1.49132 0.547479 1.36525C0.548897 1.23918 0.599656 1.11868 0.688873 1.0296C0.77809 0.940511 0.898661 0.889928 1.02473 0.888695C1.15081 0.887462 1.27234 0.935676 1.36329 1.023L4.39829 4.059C4.48817 4.14932 4.53864 4.27157 4.53864 4.399C4.53864 4.52643 4.48817 4.64867 4.39829 4.739L1.36329 7.775C1.27285 7.86544 1.15019 7.91625 1.02229 7.91625C0.894386 7.91625 0.771725 7.86544 0.681286 7.775C0.590847 7.68456 0.540039 7.5619 0.540039 7.434C0.540039 7.3061 0.590847 7.18344 0.681286 7.093L3.37329 4.398L0.681286 1.704Z" fill="#727F96"/>
</svg>
