<svg width="21" height="20" viewBox="0 0 21 20" fill="none" xmlns="http://www.w3.org/2000/svg">
<path d="M10.3978 0.103533C10.8978 0.103533 11.3578 0.388533 11.5778 0.838533L15.6878 9.04853L20.0128 17.7035C20.1004 17.8777 20.1484 18.0691 20.1533 18.2641C20.1581 18.459 20.1197 18.6526 20.0408 18.8309C19.962 19.0092 19.8446 19.1679 19.6971 19.2954C19.5496 19.4229 19.3756 19.5162 19.1878 19.5685L19.1028 19.5885C19.0428 19.6035 18.9828 19.6085 18.9228 19.6135H18.8328L10.3928 17.9485L5.11279 9.04853L9.21279 0.838533C9.32238 0.616851 9.49205 0.430412 9.70244 0.300462C9.91284 0.170512 10.1555 0.102277 10.4028 0.103533H10.3978Z" fill="#FFBB00"/>
<path d="M10.3978 0.103533C10.8978 0.103533 11.3578 0.388533 11.5778 0.838533L15.6878 9.04853L10.3928 17.9435L1.96783 19.6185C1.74182 19.6197 1.51929 19.5628 1.32157 19.4533C1.12386 19.3438 0.957569 19.1853 0.838639 18.9931C0.719708 18.8009 0.65212 18.5814 0.642348 18.3556C0.632576 18.1298 0.680947 17.9053 0.782829 17.7035L5.11283 9.05353L9.21283 0.838533C9.32242 0.616851 9.49208 0.430412 9.70248 0.300462C9.91287 0.170512 10.1555 0.102277 10.4028 0.103533H10.3978Z" fill="url(#paint0_linear_4003_1112)"/>
<path d="M10.3978 0.103516C10.8978 0.103516 11.3578 0.388516 11.5778 0.838516L15.6878 9.04852L10.3928 17.9435L5.11279 9.04852L9.21279 0.838516C9.31526 0.630049 9.47093 0.452315 9.66407 0.323262C9.85721 0.194209 10.081 0.118408 10.3128 0.103516H10.4028H10.3978Z" fill="url(#paint1_linear_4003_1112)"/>
<defs>
<linearGradient id="paint0_linear_4003_1112" x1="8.15783" y1="8.95853" x2="8.11283" y2="19.6185" gradientUnits="userSpaceOnUse">
<stop stop-color="#FFD748"/>
<stop offset="0.54" stop-color="#FFCD48"/>
<stop offset="1" stop-color="#FFCB48"/>
</linearGradient>
<linearGradient id="paint1_linear_4003_1112" x1="10.3978" y1="17.3135" x2="10.3978" y2="7.45852" gradientUnits="userSpaceOnUse">
<stop stop-color="#FFAD00"/>
<stop offset="1" stop-color="#FF7600"/>
</linearGradient>
</defs>
</svg>
