<svg width="15" height="15" viewBox="0 0 15 15" fill="none" xmlns="http://www.w3.org/2000/svg">
<path fill-rule="evenodd" clip-rule="evenodd" d="M14.8052 7.36156C14.8052 9.25388 14.0534 11.0687 12.7154 12.4068C11.3773 13.7448 9.56247 14.4966 7.67015 14.4966C5.77783 14.4966 3.96303 13.7448 2.62495 12.4068C1.28688 11.0687 0.535156 9.25388 0.535156 7.36156C0.535156 5.46924 1.28688 3.65442 2.62495 2.31635C3.96303 0.978281 5.77783 0.226562 7.67015 0.226562C9.56247 0.226562 11.3773 0.978281 12.7154 2.31635C14.0534 3.65442 14.8052 5.46924 14.8052 7.36156ZM11.6812 4.68156C11.5139 4.51443 11.2871 4.42054 11.0507 4.42054C10.8142 4.42054 10.5874 4.51443 10.4202 4.68156L6.77916 8.32956L5.18016 6.73056C5.01044 6.57596 4.7877 6.49266 4.55818 6.49796C4.32866 6.50325 4.11 6.59675 3.9476 6.75903C3.7852 6.9213 3.69153 7.13989 3.68605 7.3694C3.68057 7.59891 3.76368 7.82172 3.91815 7.99156L6.14816 10.2216C6.31543 10.3887 6.5422 10.4826 6.77866 10.4826C7.01511 10.4826 7.2419 10.3887 7.40916 10.2216L11.6812 5.94256C11.7641 5.85987 11.83 5.76162 11.8749 5.65342C11.9199 5.54522 11.943 5.42922 11.943 5.31207C11.943 5.19491 11.9199 5.0789 11.8749 4.9707C11.83 4.86251 11.7641 4.76425 11.6812 4.68156Z" fill="#15BE53"/>
</svg>
