<svg width="21" height="21" viewBox="0 0 21 21" fill="none" xmlns="http://www.w3.org/2000/svg">
<path d="M15.9131 2.27344H6.06307C5.64307 2.27344 5.24807 2.48844 5.01807 2.84344C4.90503 3.01949 4.83762 3.22092 4.8219 3.42955C4.80619 3.63818 4.84268 3.84744 4.92807 4.03844L7.47807 9.76844C7.62807 10.0884 7.62807 10.4584 7.47807 10.7784L4.14307 18.2734H15.9131C16.3981 18.2734 16.8431 17.9834 17.0431 17.5334L20.0331 10.7834C20.1831 10.4584 20.1831 10.0884 20.0331 9.76344L17.0431 3.01344C16.9464 2.79406 16.7882 2.60741 16.5877 2.47607C16.3871 2.34474 16.1528 2.27435 15.9131 2.27344Z" fill="#9966FF"/>
<path d="M3.7582 18.2734C3.58876 18.2733 3.42144 18.2358 3.2682 18.1634H3.2882C3.01434 18.0413 2.79529 17.8223 2.6732 17.5484L0.253202 12.0384C0.168826 11.8483 0.13245 11.6403 0.147271 11.4328C0.162092 11.2253 0.227657 11.0247 0.338202 10.8484C0.448066 10.6729 0.600623 10.5281 0.78162 10.4276C0.962617 10.327 1.16615 10.274 1.3732 10.2734H11.1232C11.6082 10.2734 12.0432 10.5584 12.2382 11.0034L14.6382 16.4284L14.9782 17.1934C15.0282 17.3034 15.0932 17.4034 15.1682 17.4934C15.4132 17.8134 15.7682 18.1434 16.1582 18.2484C16.1032 18.2634 16.0082 18.2734 15.8832 18.2734H3.7532H3.7582Z" fill="url(#paint0_linear_4003_1230)"/>
<path d="M11.1281 10.2726C11.5781 10.2726 11.9881 10.5226 12.1981 10.9226L12.2381 11.0026L14.6381 16.4276L14.9781 17.1926C15.2301 17.6533 15.6377 18.0095 16.1281 18.1976L16.2181 18.2326C16.1181 18.2576 16.0181 18.2726 15.9131 18.2726H4.14307L7.47807 10.7726C7.55307 10.6126 7.58807 10.4426 7.58807 10.2676H11.1281V10.2726Z" fill="url(#paint1_linear_4003_1230)"/>
<defs>
<linearGradient id="paint0_linear_4003_1230" x1="8.1482" y1="18.0684" x2="8.1482" y2="10.8534" gradientUnits="userSpaceOnUse">
<stop stop-color="#21CFE0"/>
<stop offset="0.17" stop-color="#20D1E0"/>
<stop offset="0.38" stop-color="#18E2E2"/>
<stop offset="0.61" stop-color="#13ECE3"/>
<stop offset="1" stop-color="#11EFE3"/>
</linearGradient>
<linearGradient id="paint1_linear_4003_1230" x1="10.6781" y1="21.7726" x2="10.6781" y2="7.52258" gradientUnits="userSpaceOnUse">
<stop stop-color="#0048E5"/>
<stop offset="1" stop-color="#9B66FF"/>
</linearGradient>
</defs>
</svg>
