<svg width="13" height="14" viewBox="0 0 13 14" fill="none" xmlns="http://www.w3.org/2000/svg">
<path fill-rule="evenodd" clip-rule="evenodd" d="M6.35818 12.8405C9.86248 12.8405 12.7032 10.0653 12.7032 6.64194C12.7032 3.21855 9.86248 0.443359 6.35818 0.443359C2.85394 0.443359 0.0131836 3.21855 0.0131836 6.64194C0.0131836 10.0653 2.85394 12.8405 6.35818 12.8405ZM9.05006 4.88872C9.29786 4.64666 9.29786 4.25419 9.05006 4.01211C8.80228 3.77004 8.40054 3.77004 8.15275 4.01211L6.35811 5.76533L4.56348 4.01211C4.31569 3.77004 3.91394 3.77004 3.66616 4.01211C3.41837 4.25419 3.41837 4.64666 3.66616 4.88872L5.4608 6.64195L3.66616 8.39517C3.41837 8.63723 3.41837 9.02971 3.66616 9.27178C3.91394 9.51385 4.31569 9.51385 4.56348 9.27178L6.35811 7.51856L8.15275 9.27178C8.40054 9.51385 8.80228 9.51385 9.05006 9.27178C9.29786 9.02971 9.29786 8.63723 9.05006 8.39517L7.25543 6.64195L9.05006 4.88872Z" fill="#CAD2D9"/>
</svg>
