<svg width="23" height="15" viewBox="0 0 23 15" fill="none" xmlns="http://www.w3.org/2000/svg">
<path opacity="0.2" fill-rule="evenodd" clip-rule="evenodd" d="M15.1352 1.82227H1.77121C1.14647 1.82227 0.413086 2.54222 0.413086 3.18067V13.3687C0.413086 14.0071 1.14647 14.7271 1.77121 14.7271H18.7478C19.3725 14.7271 20.1059 14.0071 20.1059 13.3687V8.25429C19.5338 8.76899 18.8273 9.11053 18.0687 9.23913V9.29347C18.0687 9.74174 17.8242 9.97267 17.3896 9.97267H2.45027C2.01567 9.97267 1.77121 9.74174 1.77121 9.29347V8.61427C1.77121 8.16599 2.01567 7.93507 2.45027 7.93507H14.3542C13.9622 7.50057 13.6688 6.98647 13.4939 6.42798C13.319 5.86949 13.2669 5.27979 13.341 4.69927C13.4152 4.11875 13.6139 3.56111 13.9236 3.06455C14.2332 2.56798 14.6465 2.14422 15.1352 1.82227Z" fill="#565656"/>
<path opacity="0.3" fill-rule="evenodd" clip-rule="evenodd" d="M13.5462 3.85938H0.413086V5.89698H13.3696C13.2555 5.21376 13.3163 4.51277 13.5462 3.85938Z" fill="#565656"/>
<path fill-rule="evenodd" clip-rule="evenodd" d="M17.3897 9.97169C16.129 9.97169 14.9199 9.47078 14.0285 8.57916C13.137 7.68754 12.6362 6.47824 12.6362 5.21729C12.6362 3.95635 13.137 2.74705 14.0285 1.85542C14.9199 0.963799 16.129 0.462891 17.3897 0.462891C18.6504 0.462891 19.8594 0.963799 20.7509 1.85542C21.6423 2.74705 22.1431 3.95635 22.1431 5.21729C22.1431 6.47824 21.6423 7.68754 20.7509 8.57916C19.8594 9.47078 18.6504 9.97169 17.3897 9.97169ZM15.5019 3.24761H14.9654L13.6548 3.91323V4.59243L14.6938 4.04907V7.18697H15.5087V3.24761H15.5019ZM17.0637 3.79097C17.4508 3.79097 17.7224 4.00831 17.7224 4.32075C17.7224 4.66035 17.4032 4.89807 16.9415 4.89807H16.7378V5.47539H16.9822C17.4712 5.47539 17.8039 5.7199 17.8039 6.07308C17.8039 6.41268 17.4779 6.64361 17.0162 6.64361C16.6767 6.64361 16.3371 6.53494 15.984 6.32439V7.00359C16.3643 7.16659 16.7446 7.25489 17.118 7.25489C18.0076 7.25489 18.6188 6.79983 18.6188 6.141C18.6188 5.67915 18.3336 5.30559 17.8582 5.15616C18.2657 5.02032 18.5305 4.66035 18.5305 4.25283C18.5305 3.61438 17.9669 3.17969 17.152 3.17969C16.7847 3.18377 16.422 3.26233 16.0859 3.41062V4.07623C16.4118 3.89285 16.7446 3.79097 17.0637 3.79097ZM19.9973 5.27163C20.493 5.27163 20.8393 5.56368 20.8393 5.94403C20.8393 6.34476 20.493 6.62323 19.9973 6.62323C19.6985 6.62323 19.3861 6.52815 19.067 6.33118V7.03075C19.3997 7.18018 19.7392 7.25489 20.072 7.25489C20.2485 7.25489 20.4115 7.22772 20.5677 7.18697C20.9208 6.60965 21.1245 5.94403 21.1245 5.23087L21.1109 4.94561C20.8584 4.79613 20.569 4.72081 20.2757 4.72827C20.1535 4.72827 20.0244 4.73506 19.8886 4.75543V3.87247H20.8665C20.7817 3.65507 20.6771 3.44591 20.5541 3.24761H19.1824V5.38709C19.454 5.31917 19.7256 5.27163 19.9973 5.27163Z" fill="#565656"/>
</svg>
