<svg width="14" height="13" viewBox="0 0 14 13" fill="none" xmlns="http://www.w3.org/2000/svg">
<path fill-rule="evenodd" clip-rule="evenodd" d="M1.40283 11.824C1.40283 11.455 1.70283 11.155 2.07283 11.155H13.2428C13.3338 11.1501 13.4248 11.1637 13.5103 11.195C13.5957 11.2264 13.6739 11.2749 13.7401 11.3375C13.8062 11.4001 13.8589 11.4756 13.8949 11.5592C13.9309 11.6429 13.9494 11.733 13.9494 11.824C13.9494 11.9151 13.9309 12.0052 13.8949 12.0889C13.8589 12.1725 13.8062 12.2479 13.7401 12.3106C13.6739 12.3732 13.5957 12.4216 13.5103 12.453C13.4248 12.4844 13.3338 12.498 13.2428 12.493H2.07283C1.89531 12.493 1.72505 12.4226 1.59943 12.2972C1.47381 12.1717 1.4031 12.0015 1.40283 11.824ZM7.65784 4.69004C7.65784 4.32004 7.95784 4.02103 8.32784 4.02103H13.2428C13.3344 4.01489 13.4262 4.02763 13.5127 4.05845C13.5991 4.08926 13.6783 4.13751 13.7453 4.20018C13.8123 4.26286 13.8657 4.33863 13.9023 4.42281C13.9388 4.50699 13.9576 4.59777 13.9576 4.68953C13.9576 4.78129 13.9388 4.87208 13.9023 4.95626C13.8657 5.04043 13.8123 5.11621 13.7453 5.17888C13.6783 5.24156 13.5991 5.28981 13.5127 5.32062C13.4262 5.35144 13.3344 5.36417 13.2428 5.35804H8.32784C8.23998 5.35817 8.15296 5.34098 8.07175 5.30748C7.99053 5.27399 7.91671 5.22483 7.85449 5.1628C7.79228 5.10077 7.74289 5.02709 7.70915 4.94597C7.67541 4.86486 7.65797 4.77789 7.65784 4.69004ZM1.40283 8.25704C1.40283 7.88804 1.70283 7.58803 2.07283 7.58803H13.2428C13.3338 7.58306 13.4248 7.59667 13.5103 7.62804C13.5957 7.65941 13.6739 7.7079 13.7401 7.77051C13.8062 7.83312 13.8589 7.90856 13.8949 7.99221C13.9309 8.07586 13.9494 8.16597 13.9494 8.25704C13.9494 8.34811 13.9309 8.4382 13.8949 8.52186C13.8589 8.60551 13.8062 8.68095 13.7401 8.74357C13.6739 8.80618 13.5957 8.85465 13.5103 8.88602C13.4248 8.9174 13.3338 8.931 13.2428 8.92603H2.07283C1.89531 8.92603 1.72505 8.85559 1.59943 8.73015C1.47381 8.60472 1.4031 8.43456 1.40283 8.25704Z" fill="#0A2540"/>
<path d="M8.55505 1.14575C8.67957 1.01919 8.74875 0.848375 8.74742 0.670835C8.74609 0.493295 8.67435 0.323545 8.54794 0.198865C8.42154 0.0741864 8.25082 0.00476911 8.07327 0.00587233C7.89573 0.00697554 7.72589 0.0784998 7.60104 0.20474L3.40305 4.44174L1.71105 2.50174C1.59253 2.37532 1.42965 2.29974 1.25659 2.29086C1.08354 2.28198 0.913764 2.34049 0.782929 2.45411C0.652095 2.56774 0.570372 2.72763 0.554917 2.90022C0.539463 3.07281 0.591492 3.24468 0.700059 3.37974L2.85405 5.84974C2.91391 5.91946 2.98786 5.97569 3.07105 6.01474C3.32405 6.14474 3.64305 6.10274 3.85405 5.88974L8.55505 1.14575Z" fill="#0A2540"/>
</svg>
