<svg width="15" height="15" viewBox="0 0 15 15" fill="none" xmlns="http://www.w3.org/2000/svg">
<path fill-rule="evenodd" clip-rule="evenodd" d="M13.662 7.54646H12.558V11.1845L13.854 12.1935C14.719 12.8395 14.283 14.2344 13.182 14.2344H2.11196C1.01096 14.2344 0.574965 12.8395 1.43996 12.1935L2.73597 11.1845V7.54646H1.66596C0.576963 7.54646 0.107973 6.14245 1.00797 5.49845L7.26797 0.983452C7.38305 0.9001 7.52187 0.855938 7.66396 0.85746C7.80606 0.855938 7.94489 0.9001 8.05998 0.983452L14.32 5.49845C15.22 6.14245 14.751 7.54646 13.662 7.54646ZM2.31097 6.20846L7.66396 2.34745L13.017 6.20846H2.31097ZM8.56197 7.54646H6.77897V10.8904C6.76961 11.0616 6.69505 11.2226 6.57061 11.3404C6.44618 11.4582 6.28132 11.5239 6.10996 11.5239C5.9386 11.5239 5.77377 11.4582 5.64933 11.3404C5.5249 11.2226 5.45033 11.0616 5.44097 10.8904V7.54646H4.07397V11.5115C4.07414 11.6133 4.05097 11.7139 4.00625 11.8054C3.96153 11.8969 3.89644 11.977 3.81597 12.0395L2.71397 12.8975H12.58L11.478 12.0395C11.3975 11.977 11.3324 11.8969 11.2877 11.8054C11.243 11.7139 11.2198 11.6133 11.22 11.5115V7.54646H9.89997V10.8904C9.89997 11.0679 9.82948 11.238 9.70402 11.3635C9.57856 11.489 9.40839 11.5595 9.23096 11.5595C9.05353 11.5595 8.88337 11.489 8.75791 11.3635C8.63245 11.238 8.56197 11.0679 8.56197 10.8904V7.54646Z" fill="#0A2540"/>
</svg>
