<svg width="21" height="21" viewBox="0 0 21 21" fill="none" xmlns="http://www.w3.org/2000/svg">
<path d="M6.39312 0.773438C5.70277 0.773438 5.14312 1.33308 5.14312 2.02344V18.4391C5.14312 19.0048 4.76321 19.5 4.2168 19.6465L18.2167 15.8934C18.7631 15.747 19.1431 15.2518 19.1431 14.686V2.02344C19.1431 1.33308 18.5835 0.773438 17.8931 0.773438H6.39312Z" fill="#00D924"/>
<path d="M0.769756 12.5466C0.171854 12.8918 -0.0329797 13.6562 0.312235 14.2541L3.05068 18.9973C3.33355 19.4873 3.91026 19.7262 4.45674 19.5797L17.5303 16.0766L12.4365 7.25413C12.0915 6.65623 11.3269 6.45138 10.729 6.79663L0.769756 12.5466Z" fill="url(#paint0_linear_4003_1453)"/>
<path d="M4.34375 19.6045C4.38143 19.598 4.41907 19.5898 4.45657 19.5797L17.5301 16.0766L12.4363 7.25413C12.0914 6.65623 11.3267 6.45138 10.7288 6.79663L5.14299 10.0216V18.4385C5.14299 18.9592 4.82107 19.4202 4.34375 19.6045Z" fill="url(#paint1_linear_4003_1453)"/>
<defs>
<linearGradient id="paint0_linear_4003_1453" x1="8.83792" y1="10.3978" x2="8.83772" y2="19.2728" gradientUnits="userSpaceOnUse">
<stop stop-color="#FFD748"/>
<stop offset="1" stop-color="#FFC148"/>
</linearGradient>
<linearGradient id="paint1_linear_4003_1453" x1="10.9373" y1="6.62893" x2="10.9369" y2="19.6045" gradientUnits="userSpaceOnUse">
<stop stop-color="#00A600"/>
<stop offset="1" stop-color="#00D924"/>
</linearGradient>
</defs>
</svg>
