<svg width="29" height="17" viewBox="0 0 29 17" fill="none" xmlns="http://www.w3.org/2000/svg">
<path d="M26.1431 0.59375H6.14307C5.0385 0.59375 4.14307 1.48918 4.14307 2.59375V14.5938C4.14307 15.6983 5.0385 16.5938 6.14307 16.5938H26.1431C27.2476 16.5938 28.1431 15.6983 28.1431 14.5938V2.59375C28.1431 1.48918 27.2476 0.59375 26.1431 0.59375Z" fill="#252525"/>
<path d="M13.1431 13.5938C15.9045 13.5938 18.1431 11.3552 18.1431 8.59375C18.1431 5.83233 15.9045 3.59375 13.1431 3.59375C10.3816 3.59375 8.14307 5.83233 8.14307 8.59375C8.14307 11.3552 10.3816 13.5938 13.1431 13.5938Z" fill="#EB001B"/>
<path d="M19.1431 13.5938C21.9045 13.5938 24.1431 11.3552 24.1431 8.59375C24.1431 5.83233 21.9045 3.59375 19.1431 3.59375C16.3816 3.59375 14.1431 5.83233 14.1431 8.59375C14.1431 11.3552 16.3816 13.5938 19.1431 13.5938Z" fill="#F79E1B"/>
<path fill-rule="evenodd" clip-rule="evenodd" d="M16.1431 4.59375C16.764 5.05949 17.2681 5.66341 17.6152 6.35768C17.9623 7.05196 18.1431 7.81752 18.1431 8.59375C18.1431 9.36998 17.9623 10.1355 17.6152 10.8298C17.2681 11.5241 16.764 12.128 16.1431 12.5938C15.5221 12.128 15.0181 11.5241 14.6709 10.8298C14.3238 10.1355 14.1431 9.36998 14.1431 8.59375C14.1431 7.81752 14.3238 7.05196 14.6709 6.35768C15.0181 5.66341 15.5221 5.05949 16.1431 4.59375Z" fill="#FF5F00"/>
</svg>
