<svg width="32" height="32" viewBox="0 0 32 32" fill="none" xmlns="http://www.w3.org/2000/svg">
<path d="M16.2183 31.334C24.8477 31.334 31.8433 24.3384 31.8433 15.709C31.8433 7.07953 24.8477 0.0839844 16.2183 0.0839844C7.58881 0.0839844 0.593262 7.07953 0.593262 15.709C0.593262 24.3384 7.58881 31.334 16.2183 31.334Z" fill="#019688"/>
<path fill-rule="evenodd" clip-rule="evenodd" d="M20.4323 20.5667L19.7257 24.2911C19.7162 24.341 19.693 24.3867 19.6589 24.4227C19.5636 24.5231 19.409 24.5231 19.3137 24.4227L16.5991 21.5609C16.4729 21.5659 16.3459 21.5684 16.2183 21.5684C11.9035 21.5684 8.40576 18.7265 8.40576 15.2207C8.40576 11.7149 11.9035 8.87305 16.2183 8.87305C20.533 8.87305 24.0308 11.7149 24.0308 15.2207C24.0308 17.4654 22.5967 19.4381 20.4323 20.5667Z" fill="white"/>
</svg>
