<svg width="21" height="21" viewBox="0 0 21 21" fill="none" xmlns="http://www.w3.org/2000/svg">
<path d="M5.92321 9.05795C5.75886 8.63985 6.06706 8.1875 6.51631 8.1875H14.4077C14.4077 8.34575 14.3782 8.504 14.3193 8.65385L12.5655 13.1147C12.3738 13.6022 11.9033 13.9229 11.3794 13.9229H7.78846C7.78846 13.8438 7.77371 13.7646 7.74426 13.6897L5.92321 9.05795Z" fill="url(#paint0_linear_4003_1369)"/>
<path d="M0.187872 3.32356C0.023498 2.90548 0.33171 2.45312 0.780941 2.45312H7.49282C7.50207 2.45312 7.51127 2.45332 7.52042 2.45371C7.53332 2.45332 7.54627 2.45312 7.55927 2.45312H11.3794C11.9033 2.45312 12.3738 2.77373 12.5655 3.26131L14.3193 7.72213C14.3783 7.87203 14.4077 8.03023 14.4077 8.18848H6.51632C6.06707 8.18848 5.75887 8.64082 5.92322 9.05892L7.74427 13.6907C7.77372 13.7656 7.78847 13.8447 7.78847 13.9238H0.780941C0.331709 13.9238 0.0234985 13.4715 0.187872 13.0534L2.0089 8.42168C2.06782 8.27178 2.06782 8.10518 2.0089 7.95533L0.187872 3.32356Z" fill="url(#paint1_linear_4003_1369)"/>
<path fill-rule="evenodd" clip-rule="evenodd" d="M7.78846 13.9229C7.78846 14.002 7.77371 14.0811 7.74426 14.1561L5.92321 18.7878C5.75886 19.2058 6.06706 19.6582 6.51631 19.6582H17.1147C17.6386 19.6582 18.1092 19.3376 18.3009 18.85L20.0547 14.3892C20.1725 14.0894 20.1725 13.7562 20.0547 13.4565L18.3009 8.9957C18.1092 8.5081 17.6386 8.1875 17.1147 8.1875H14.4077C14.4077 8.34575 14.3782 8.504 14.3193 8.65385L12.5655 13.1147C12.3738 13.6022 11.9033 13.9229 11.3794 13.9229H7.78846Z" fill="#9966FF"/>
<defs>
<linearGradient id="paint0_linear_4003_1369" x1="7.17416" y1="13.2856" x2="14.8213" y2="7.2316" gradientUnits="userSpaceOnUse">
<stop stop-color="#0048E5"/>
<stop offset="0.63979" stop-color="#625AF5"/>
<stop offset="1" stop-color="#8A62FC"/>
</linearGradient>
<linearGradient id="paint1_linear_4003_1369" x1="7.27537" y1="3.2064" x2="7.17417" y2="13.2866" gradientUnits="userSpaceOnUse">
<stop stop-color="#11EFE3"/>
<stop offset="0.33" stop-color="#15E8E2"/>
<stop offset="0.74" stop-color="#1FD3E0"/>
<stop offset="1" stop-color="#21CFE0"/>
</linearGradient>
</defs>
</svg>
