<svg width="25" height="26" viewBox="0 0 25 26" fill="none" xmlns="http://www.w3.org/2000/svg">
<path d="M24.6431 13.1738C24.6431 19.9388 19.1581 25.4238 12.3931 25.4238C5.62807 25.4238 0.143066 19.9388 0.143066 13.1738C0.143066 6.40883 5.62807 0.923828 12.3931 0.923828C19.1581 0.923828 24.6431 6.40883 24.6431 13.1738Z" fill="black"/>
<path d="M13.2731 7.10344C12.8171 7.10344 12.4101 7.24944 12.0481 7.54844C11.7021 7.84244 11.4681 8.25644 11.3481 8.78344V15.7414C11.6701 16.0894 12.0881 16.2604 12.6121 16.2604C13.4661 16.2604 14.0821 15.8534 14.4561 15.0444C14.8311 14.2194 15.0161 13.0274 15.0161 11.4584C15.0161 9.89044 14.8631 8.77144 14.5571 8.10544C14.2591 7.43544 13.8321 7.10244 13.2721 7.10244L13.2731 7.10344ZM14.4531 6.27344C15.1491 6.27344 15.7611 6.45244 16.2971 6.81244C16.8441 7.17244 17.2711 7.71044 17.5811 8.43044C17.8871 9.15044 18.0441 10.0304 18.0441 11.0714C18.0441 12.9114 17.6221 14.3244 16.7801 15.3114C15.9501 16.2874 14.8231 16.7754 13.3931 16.7754C12.9901 16.7754 12.6121 16.7254 12.2491 16.6204C11.9214 16.5272 11.615 16.371 11.3471 16.1604V18.0874C11.3471 18.6534 11.4971 19.0444 11.7901 19.2654C12.0841 19.4814 12.5401 19.5944 13.1551 19.5944V20.0004L12.6151 19.9804C11.6736 19.9525 10.7319 19.9335 9.79008 19.9234C9.38708 19.9234 8.54508 19.9504 7.26508 20.0004V19.5944C7.70408 19.5944 8.01408 19.4974 8.18708 19.3044C8.37208 19.1214 8.46908 18.7844 8.46908 18.2814V8.63944C8.46908 8.04744 8.36908 7.61744 8.16708 7.34644C7.98208 7.07644 7.65108 6.94044 7.18408 6.94044V6.53344C7.61108 6.57244 8.02608 6.59144 8.42908 6.59144C9.59208 6.59144 10.5671 6.50244 11.3561 6.32044V8.09344C11.6147 7.52741 12.0428 7.05569 12.5811 6.74344C13.1041 6.43344 13.7321 6.27344 14.4531 6.27344Z" fill="white"/>
</svg>
