<svg width="55" height="67" viewBox="0 0 55 67" fill="none" xmlns="http://www.w3.org/2000/svg">
<path d="M43.7651 0.923828H3.22607C1.52337 0.923828 0.143066 2.30413 0.143066 4.00683V55.5348C0.143066 57.2375 1.52337 58.6178 3.22607 58.6178H43.7651C45.4678 58.6178 46.8481 57.2375 46.8481 55.5348V4.00683C46.8481 2.30413 45.4678 0.923828 43.7651 0.923828Z" fill="white"/>
<path d="M13.8812 11.912C13.8812 9.63605 12.0361 7.79102 9.76016 7.79102C7.48419 7.79102 5.63916 9.63605 5.63916 11.912C5.63916 14.188 7.48419 16.033 9.76016 16.033C12.0361 16.033 13.8812 14.188 13.8812 11.912Z" fill="#E7ECF1"/>
<path d="M27.615 10.5391H19.374C18.6152 10.5391 18 11.154 18 11.9126C18 12.6711 18.6152 13.2861 19.374 13.2861H27.615C28.3738 13.2861 28.989 12.6711 28.989 11.9126C28.989 11.154 28.3738 10.5391 27.615 10.5391Z" fill="#E7ECF1"/>
<path d="M12.5072 22.9023H7.01316C6.25432 22.9023 5.63916 23.5173 5.63916 24.2758C5.63916 25.0344 6.25432 25.6493 7.01316 25.6493H12.5072C13.266 25.6493 13.8812 25.0344 13.8812 24.2758C13.8812 23.5173 13.266 22.9023 12.5072 22.9023Z" fill="#E7ECF1"/>
<path d="M12.5072 29.7715H7.01316C6.25432 29.7715 5.63916 30.3864 5.63916 31.145C5.63916 31.9035 6.25432 32.5185 7.01316 32.5185H12.5072C13.266 32.5185 13.8812 31.9035 13.8812 31.145C13.8812 30.3864 13.266 29.7715 12.5072 29.7715Z" fill="#E7ECF1"/>
<path d="M39.9803 47.6289H34.4863C33.7275 47.6289 33.1123 48.2438 33.1123 49.0024C33.1123 49.761 33.7275 50.3759 34.4863 50.3759H39.9803C40.7391 50.3759 41.3543 49.761 41.3543 49.0024C41.3543 48.2438 40.7391 47.6289 39.9803 47.6289Z" fill="#E7ECF1"/>
<path d="M31.736 22.9023H19.374C18.6152 22.9023 18 23.5173 18 24.2758C18 25.0344 18.6152 25.6493 19.374 25.6493H31.736C32.4948 25.6493 33.11 25.0344 33.11 24.2758C33.11 23.5173 32.4948 22.9023 31.736 22.9023Z" fill="#E7ECF1"/>
<path d="M31.736 29.7715H19.374C18.6152 29.7715 18 30.3864 18 31.145C18 31.9035 18.6152 32.5185 19.374 32.5185H31.736C32.4948 32.5185 33.11 31.9035 33.11 31.145C33.11 30.3864 32.4948 29.7715 31.736 29.7715Z" fill="#E7ECF1"/>
<path d="M26.2442 47.6289H7.01316C6.25432 47.6289 5.63916 48.2438 5.63916 49.0024C5.63916 49.761 6.25432 50.3759 7.01316 50.3759H26.2442C27.003 50.3759 27.6182 49.761 27.6182 49.0024C27.6182 48.2438 27.003 47.6289 26.2442 47.6289Z" fill="#E7ECF1"/>
<path d="M39.9802 40.7617H7.01316C6.25432 40.7617 5.63916 41.3767 5.63916 42.1352C5.63916 42.8938 6.25432 43.5087 7.01316 43.5087H39.9802C40.739 43.5087 41.3542 42.8938 41.3542 42.1352C41.3542 41.3767 40.739 40.7617 39.9802 40.7617Z" fill="#E7ECF1"/>
<path d="M54.1021 57.1953C54.1021 52.0867 49.9607 47.9453 44.8521 47.9453C39.7434 47.9453 35.6021 52.0867 35.6021 57.1953C35.6021 62.3039 39.7434 66.4453 44.8521 66.4453C49.9607 66.4453 54.1021 62.3039 54.1021 57.1953Z" fill="white"/>
<path fill-rule="evenodd" clip-rule="evenodd" d="M45.4302 59.8429L48.0842 57.1889C48.138 57.1351 48.2019 57.0924 48.2721 57.0633C48.3424 57.0342 48.4177 57.0192 48.4937 57.0192C48.5698 57.0192 48.6451 57.0342 48.7154 57.0633C48.7856 57.0924 48.8495 57.1351 48.9032 57.1889C48.957 57.2426 48.9997 57.3065 49.0288 57.3767C49.0579 57.447 49.0729 57.5223 49.0729 57.5984C49.0729 57.6744 49.0579 57.7497 49.0288 57.82C48.9997 57.8902 48.957 57.9541 48.9032 58.0079L45.2612 61.6499C45.2076 61.7036 45.1438 61.7463 45.0736 61.7754C45.0034 61.8045 44.9282 61.8194 44.8522 61.8194C44.7763 61.8194 44.701 61.8045 44.6309 61.7754C44.5607 61.7463 44.4969 61.7036 44.4432 61.6499L40.8012 58.0079C40.7449 57.9547 40.6999 57.8908 40.6687 57.82C40.6375 57.7491 40.6208 57.6727 40.6197 57.5953C40.6185 57.5179 40.6329 57.4411 40.662 57.3693C40.6911 57.2976 40.7343 57.2324 40.789 57.1776C40.8437 57.1228 40.9088 57.0796 40.9805 57.0504C41.0522 57.0212 41.1291 57.0068 41.2065 57.0078C41.2839 57.0089 41.3603 57.0254 41.4312 57.0565C41.5021 57.0876 41.566 57.1326 41.6192 57.1889L44.2732 59.8439V53.1469C44.2732 52.9934 44.3342 52.8463 44.4427 52.7378C44.5512 52.6293 44.6983 52.5684 44.8517 52.5684C45.0052 52.5684 45.1523 52.6293 45.2608 52.7378C45.3693 52.8463 45.4302 52.9934 45.4302 53.1469V59.8439V59.8429Z" fill="#727F96"/>
</svg>
