<svg width="25" height="17" viewBox="0 0 25 17" fill="none" xmlns="http://www.w3.org/2000/svg">
<path d="M4.8433 0.593235H10.8433C11.0313 0.583866 11.2187 0.620376 11.3894 0.699614C11.5601 0.778852 11.709 0.898439 11.8232 1.04806C11.9374 1.19767 12.0134 1.37283 12.0448 1.5584C12.0762 1.74397 12.0619 1.9344 12.0033 2.11324L9.2133 14.1132C9.10134 14.5296 8.85781 14.8987 8.51903 15.1654C8.18024 15.4321 7.76433 15.5822 7.3333 15.5932H1.3333C1.14584 15.6042 0.958503 15.5698 0.787117 15.4931C0.615731 15.4163 0.465331 15.2995 0.348625 15.1524C0.231919 15.0053 0.152336 14.8322 0.116599 14.6479C0.0808616 14.4635 0.0900208 14.2733 0.143303 14.0932L2.9333 2.09324C3.04298 1.66828 3.2894 1.29121 3.63456 1.02014C3.97972 0.749068 4.40446 0.599059 4.8433 0.593235Z" fill="#E21836"/>
<path d="M10.3333 0.59375H17.2233C18.0633 0.59375 17.6833 1.27375 17.4833 2.11375L14.6933 14.1138C14.5033 14.9438 14.5633 15.6237 13.6933 15.6237H6.83328C6.64487 15.6313 6.45741 15.5933 6.28688 15.5128C6.11635 15.4323 5.9678 15.3118 5.85388 15.1616C5.73996 15.0113 5.66404 14.8357 5.63259 14.6498C5.60115 14.4639 5.61511 14.2731 5.67328 14.0938L8.46328 2.09375C8.57108 1.67525 8.81153 1.30293 9.14863 1.03253C9.48574 0.762121 9.90136 0.60818 10.3333 0.59375Z" fill="#00447C"/>
<path d="M16.9535 0.593216H22.9535C23.1439 0.578665 23.335 0.611354 23.5097 0.688381C23.6845 0.765408 23.8375 0.88439 23.9552 1.03476C24.073 1.18514 24.1517 1.36225 24.1846 1.55039C24.2174 1.73852 24.2033 1.93185 24.1435 2.11322L21.3535 14.1132C21.2401 14.5345 20.9921 14.9071 20.6472 15.1743C20.3024 15.4415 19.8797 15.5886 19.4435 15.5932H13.4435C13.2566 15.602 13.0705 15.5655 12.9008 15.4868C12.7312 15.4081 12.583 15.2895 12.4691 15.1412C12.3552 14.9929 12.2788 14.8192 12.2465 14.635C12.2141 14.4508 12.2268 14.2615 12.2835 14.0832L15.0735 2.08322C15.1836 1.66498 15.4263 1.29371 15.7653 1.02507C16.1042 0.756434 16.5211 0.604909 16.9535 0.593216Z" fill="#007B84"/>
<path d="M6.40309 4.43359C6.12016 4.45509 5.83602 4.45509 5.55309 4.43359C5.55309 4.54359 5.11309 6.43359 5.11309 6.43359C5.0849 6.74847 4.95096 7.04453 4.73309 7.27359C4.61242 7.38147 4.45486 7.43876 4.29309 7.43359C4.23631 7.43908 4.17902 7.43294 4.12469 7.41556C4.07036 7.39817 4.02015 7.3699 3.97711 7.33247C3.93406 7.29505 3.8991 7.24924 3.87434 7.19786C3.84958 7.14647 3.83554 7.09058 3.83309 7.03359V6.96359L3.91309 6.43359C3.91309 6.43359 4.35309 4.69359 4.43309 4.43359C4.1008 4.47091 3.76538 4.47091 3.43309 4.43359C3.43526 4.4769 3.43526 4.52029 3.43309 4.56359L2.99309 6.56359V6.73359L2.92309 7.27359C2.90562 7.3799 2.90902 7.48859 2.93309 7.59359C3.13309 7.95359 3.71309 8.00359 4.04309 8.00359C4.42286 8.03036 4.80283 7.95437 5.14309 7.78359C5.32592 7.66041 5.48149 7.50099 5.60018 7.31521C5.71887 7.12943 5.79815 6.92126 5.83309 6.70359L5.88309 6.51359C5.88309 6.51359 6.33309 4.69359 6.41309 4.45359L6.40309 4.43359ZM7.93309 5.89359C7.76645 5.89952 7.60292 5.94041 7.45309 6.01359L7.26309 6.11359L7.32309 5.91359C6.94309 5.99359 6.85309 6.00359 6.51309 6.05359C6.46223 6.4746 6.38542 6.89206 6.28309 7.30359L6.10309 8.03359C6.36288 8.01889 6.6233 8.01889 6.88309 8.03359L7.01309 7.37359C7.01309 7.18359 7.14309 6.75359 7.18309 6.60359C7.25549 6.56804 7.33316 6.54441 7.41309 6.53359C7.58309 6.53359 7.56309 6.68359 7.56309 6.74359C7.56309 6.80359 7.48309 7.18359 7.42309 7.46359V7.64359C7.42309 7.78359 7.35309 7.91359 7.32309 8.05359C7.57621 8.03884 7.82997 8.03884 8.08309 8.05359C8.14309 7.68359 8.14309 7.59359 8.24309 7.13359L8.29309 6.92359C8.38309 6.51359 8.43309 6.30359 8.36309 6.13359C8.3258 6.05342 8.26416 5.98706 8.18695 5.94396C8.10974 5.90087 8.0209 5.88324 7.93309 5.89359ZM9.64309 6.32359L9.22309 6.40359L8.80309 6.46359L8.74309 6.85359C8.71607 7.03542 8.67935 7.21568 8.63309 7.39359C8.63309 7.56359 8.57309 7.62359 8.55309 7.69359C8.51119 7.78709 8.47772 7.88414 8.45309 7.98359H9.29309C9.29309 7.83359 9.29309 7.78359 9.29309 7.71359C9.29309 7.64359 9.29309 7.51359 9.40309 7.21359C9.40309 7.06359 9.47309 6.92359 9.50309 6.78359C9.53309 6.64359 9.57309 6.49359 9.60309 6.35359L9.64309 6.32359ZM9.64309 5.74359C9.53495 5.69606 9.4163 5.67752 9.29881 5.6898C9.18133 5.70207 9.06907 5.74474 8.97309 5.81359C8.77309 5.95359 8.74309 6.14359 8.91309 6.24359C9.02123 6.29112 9.13988 6.30967 9.25737 6.29739C9.37485 6.28512 9.48711 6.24245 9.58309 6.17359C9.79309 6.03359 9.81309 5.84359 9.65309 5.74359H9.64309ZM10.6431 8.06359C10.8265 8.07676 11.0106 8.05056 11.1831 7.98675C11.3556 7.92293 11.5124 7.82298 11.6431 7.69359C11.8014 7.48256 11.9139 7.2407 11.9731 6.98359C12.022 6.85135 12.0403 6.70971 12.0264 6.56938C12.0125 6.42905 11.967 6.29371 11.8931 6.17359C11.7963 6.0758 11.6783 6.00151 11.5483 5.95644C11.4183 5.91137 11.2797 5.89671 11.1431 5.91359C10.8145 5.89842 10.4926 6.00931 10.2431 6.22359C10.0314 6.43531 9.89148 6.70813 9.84309 7.00359C9.77309 7.28359 9.70309 7.80359 10.1731 8.00359C10.3346 8.05455 10.5041 8.07489 10.6731 8.06359H10.6431ZM10.6431 7.06359C10.7231 6.71359 10.8131 6.42359 11.0531 6.42359C11.2931 6.42359 11.2531 6.64359 11.1731 6.99359C11.1379 7.16501 11.0773 7.33018 10.9931 7.48359C10.9711 7.52435 10.9396 7.55924 10.9013 7.58534C10.863 7.61143 10.8191 7.62798 10.7731 7.63359C10.7731 7.63359 10.5931 7.63359 10.5931 7.41359C10.5956 7.2815 10.6158 7.15033 10.6531 7.02359L10.6431 7.06359ZM12.8231 8.06359L12.9531 7.40359C12.9531 7.21359 13.0831 6.78359 13.1231 6.63359C13.195 6.59679 13.2729 6.57308 13.3531 6.56359C13.5231 6.56359 13.5031 6.71359 13.4931 6.77359C13.4636 7.01589 13.4202 7.25629 13.3631 7.49359V7.67359C13.3631 7.81359 13.2931 7.94359 13.2631 8.08359C13.5162 8.06895 13.77 8.06895 14.0231 8.08359C14.0731 7.77359 14.0931 7.68359 14.1931 7.22359V7.01359C14.2931 6.60359 14.3431 6.39359 14.2731 6.22359C14.2358 6.14342 14.1742 6.07706 14.097 6.03396C14.0197 5.99087 13.9309 5.97324 13.8431 5.98359C13.6763 5.98829 13.5125 6.02924 13.3631 6.10359L13.1731 6.21359L13.2231 6.00359C12.8431 6.08359 12.7531 6.09359 12.4031 6.14359C12.3522 6.5646 12.2754 6.98206 12.1731 7.39359C12.1131 7.63359 12.0531 7.88359 12.0031 8.12359C12.2629 8.10889 12.5233 8.10889 12.7831 8.12359L12.8231 8.06359ZM15.4131 8.06359L15.5631 7.31359C15.5631 7.31359 15.6831 6.84359 15.6831 6.82359L15.7531 6.76359H15.8131C16.3248 6.81867 16.8406 6.7064 17.2831 6.44359C17.587 6.21191 17.7966 5.87796 17.8731 5.50359C17.8884 5.39748 17.8884 5.28971 17.8731 5.18359C17.8811 5.03412 17.8389 4.88626 17.7531 4.76359C17.5331 4.45359 17.0931 4.44359 16.5831 4.44359H16.3331C15.6831 4.44359 15.4231 4.44359 15.3331 4.44359C15.2431 4.44359 15.3331 4.57359 15.3331 4.57359L15.1431 5.59359C15.1431 5.59359 14.5931 7.89359 14.5631 8.00359C15.1431 8.02359 15.3231 8.02359 15.4231 8.03359L15.4131 8.06359ZM15.8431 6.14359L16.1431 5.04359V4.94359H16.2431H16.7631C16.8651 4.98777 16.946 5.06973 16.9889 5.17227C17.0318 5.27481 17.0333 5.38996 16.9931 5.49359C16.9691 5.60839 16.9199 5.71641 16.849 5.80981C16.7781 5.90322 16.6872 5.97966 16.5831 6.03359C16.4021 6.10527 16.2074 6.136 16.0131 6.12359H15.8431V6.14359ZM17.3931 7.07359C17.3231 7.35359 17.2531 7.86359 17.7131 8.07359C17.852 8.11892 18.0006 8.12583 18.1431 8.09359C18.2917 8.07602 18.4314 8.01318 18.5431 7.91359V8.03359H19.3431C19.4031 7.71359 19.4531 7.41359 19.5931 6.81359C19.6531 6.53359 19.7231 6.24359 19.7931 5.96359L18.9531 6.09359V6.18359C18.8936 6.08315 18.802 6.00566 18.6931 5.96359C18.5346 5.94442 18.3738 5.96346 18.2242 6.01913C18.0746 6.0748 17.9405 6.16548 17.8331 6.28359C17.6238 6.49303 17.4841 6.76191 17.4331 7.05359L17.3931 7.07359ZM18.1831 7.07359C18.2631 6.73359 18.3531 6.43359 18.5931 6.43359C18.8331 6.43359 18.8231 6.57359 18.8031 6.81359C18.8068 6.87687 18.8068 6.94032 18.8031 7.00359C18.7823 7.10836 18.7556 7.21186 18.7231 7.31359C18.7064 7.37753 18.6793 7.43832 18.6431 7.49359C18.6052 7.53604 18.559 7.57033 18.5075 7.5944C18.4559 7.61847 18.4 7.6318 18.3431 7.63359C18.3431 7.63359 18.1431 7.59359 18.1431 7.40359C18.1457 7.28864 18.1625 7.17444 18.1931 7.06359L18.1831 7.07359ZM22.3031 5.93359C21.9331 6.00359 21.8631 6.02359 21.5231 6.06359C21.2631 6.64359 21.2731 6.52359 21.0631 6.98359V6.92359L21.0131 5.92359C20.6231 5.99359 20.6131 6.01359 20.2531 6.05359C20.2531 6.28359 20.2531 6.23359 20.3331 6.59359C20.3331 6.77359 20.3331 6.95359 20.4031 7.13359C20.4731 7.31359 20.4531 7.57359 20.4931 8.01359C20.2531 8.42359 20.1931 8.57359 19.9631 8.92359L19.8031 9.18359C19.7885 9.20834 19.7678 9.22899 19.7431 9.24359H19.5431L19.4031 9.69359H19.8731C19.981 9.70006 20.0884 9.67517 20.1824 9.62194C20.2765 9.56871 20.3531 9.4894 20.4031 9.39359L20.7031 8.89359C20.9031 8.47359 22.4031 5.89359 22.4031 5.89359L22.3031 5.93359ZM17.3931 11.8636H17.1931L17.9231 9.44359H18.1431L18.2231 9.19359V9.47359C18.2231 9.64359 18.3431 9.79359 18.7031 9.77359H19.1431L19.2831 9.30359H19.1431C19.0531 9.30359 19.0131 9.30359 19.0231 9.23359V8.94359H18.2431C18.0031 8.94359 17.2431 8.94359 17.1231 9.00359C16.9908 9.04773 16.866 9.1118 16.7531 9.19359L16.8231 8.94359H16.1431L15.9931 9.43359L15.2531 11.8836H15.1031L14.9631 12.3536H16.3731V12.5036H17.0631L17.1131 12.3536H17.3031L17.4631 11.8536L17.3931 11.8636ZM16.8131 9.93359C16.7001 9.96886 16.5898 10.0123 16.4831 10.0636L16.6731 9.44359H17.2331L17.1431 9.88359C17.0466 9.87571 16.9496 9.87571 16.8531 9.88359L16.8131 9.93359ZM16.8131 10.8136H16.5131C16.4031 10.8136 16.1931 10.9636 16.1931 10.9636L16.3831 10.3136H16.9431L16.8131 10.7636V10.8136ZM16.4931 11.8136H15.9331L16.0931 11.2736H16.6531L16.4931 11.8136ZM17.8531 10.3136H18.6731L18.5531 10.6936H17.7431L17.6231 11.1136H18.3431L17.8031 11.8836C17.7722 11.9201 17.735 11.9506 17.6931 11.9736C17.6438 11.9851 17.5924 11.9851 17.5431 11.9736H17.3431L17.2031 12.4236H17.7231C17.8325 12.4278 17.9411 12.4044 18.039 12.3555C18.1369 12.3065 18.2209 12.2336 18.2831 12.1436L18.6531 11.6336L18.7331 12.1536C18.7419 12.1907 18.7591 12.2254 18.7834 12.2548C18.8076 12.2843 18.8383 12.3078 18.8731 12.3236C18.9261 12.3638 18.9877 12.3912 19.0531 12.4036H19.4931L19.6431 11.8936H19.5431C19.4838 11.9066 19.4224 11.9066 19.3631 11.8936C19.3593 11.857 19.3593 11.8202 19.3631 11.7836L19.2831 11.2636H18.9431L19.0931 11.0936H19.9131L20.0431 10.6736H19.2831L19.3931 10.2936H20.1431L20.2931 9.83359H18.0131L17.8731 10.2936L17.8531 10.3136ZM10.9831 11.9236L11.1731 11.2936H11.9531L12.0931 10.8236H11.3131L11.4331 10.4336H12.1931L12.3331 9.97359H10.4431L10.3131 10.4336H10.7431L10.6231 10.8236H10.1931L10.0431 11.2936H10.4831L10.2231 12.1336C10.2231 12.2436 10.2231 12.2836 10.2731 12.3436C10.3058 12.3931 10.3557 12.4287 10.4131 12.4436H10.6131H11.4931L11.6531 11.9236L11.2631 11.9836C11.1431 12.0436 10.9831 12.0336 11.0031 11.9636L10.9831 11.9236ZM11.0731 8.92359L10.8731 9.28359C10.8484 9.34136 10.8108 9.39268 10.7631 9.43359C10.7041 9.44884 10.6421 9.44884 10.5831 9.43359H10.4831L10.3431 9.88359H10.6831C10.8051 9.88104 10.9249 9.85023 11.0331 9.79359C11.1031 9.79359 11.1131 9.79359 11.1631 9.73359L11.2831 9.63359H12.3531L12.4931 9.15359H11.7131L11.8531 8.89359L11.0731 8.92359ZM12.6531 11.9236C12.6531 11.9236 12.6531 11.8536 12.6531 11.7536L12.9431 10.7536H14.3231C14.4106 10.7425 14.4954 10.7154 14.5731 10.6736C14.6464 10.6329 14.7083 10.5745 14.7531 10.5036C14.8331 10.3766 14.8938 10.2384 14.9331 10.0936L15.3031 8.87359H14.2631C14.1002 8.89619 13.9396 8.933 13.7831 8.98359C13.6547 9.04618 13.5339 9.12335 13.4231 9.21359L13.5231 8.87359H12.8531L11.9131 11.9736L11.8531 12.2336C11.8531 12.2336 11.9331 12.3436 11.9731 12.3836C12.045 12.4042 12.1212 12.4042 12.1931 12.3836H13.0731L13.2331 11.8536H12.7731C12.7735 11.8822 12.7636 11.9101 12.7453 11.9321C12.7269 11.9541 12.7013 11.9688 12.6731 11.9736L12.6531 11.9236ZM13.1431 10.1836H14.2431L14.1731 10.3936C14.1731 10.3936 14.1731 10.3936 14.0231 10.3936H13.1431V10.1836ZM13.3631 9.45359H14.4631L14.3831 9.71359C14.3831 9.71359 13.8731 9.71359 13.7831 9.71359C13.5703 9.74795 13.3703 9.83761 13.2031 9.97359L13.3631 9.45359ZM14.1931 11.1236C14.1931 11.1236 14.1931 11.1836 14.1931 11.1936C14.1931 11.2036 14.1331 11.1936 14.0831 11.1936H13.9231V10.9336H13.2731V12.2236C13.2731 12.3236 13.2731 12.3736 13.3531 12.4136C13.5324 12.4774 13.7243 12.4979 13.9131 12.4736H14.3231L14.4731 11.9936H14.1131H14.0031H13.9531C13.9531 11.9936 13.9531 11.9936 13.9531 11.9036V11.5936H14.3331C14.3973 11.5976 14.4616 11.5881 14.5219 11.5657C14.5822 11.5433 14.6371 11.5085 14.6831 11.4636C14.7475 11.4065 14.7899 11.3287 14.8031 11.2436L14.8731 10.9536H14.3631L14.2931 11.1536L14.1931 11.1236Z" fill="#FEFEFE"/>
</svg>
