<svg width="25" height="17" viewBox="0 0 25 17" fill="none" xmlns="http://www.w3.org/2000/svg">
<path d="M21.8931 0.84375H2.39307C1.2885 0.84375 0.393066 1.73918 0.393066 2.84375V14.3438C0.393066 15.4483 1.2885 16.3438 2.39307 16.3438H21.8931C22.9976 16.3438 23.8931 15.4483 23.8931 14.3438V2.84375C23.8931 1.73918 22.9976 0.84375 21.8931 0.84375Z" fill="white" stroke="black" stroke-opacity="0.2" stroke-width="0.5"/>
<path d="M2.93307 6.50375C2.36883 6.20186 1.76686 5.97654 1.14307 5.83375L1.17307 5.70375H3.90307C4.28307 5.71375 4.58307 5.83375 4.67307 6.22375L5.27307 9.06375L5.45307 9.91375L7.12307 5.71375H8.92307L6.24307 11.8638H4.44307L2.94307 6.49375L2.93307 6.50375ZM10.2431 11.8737H8.54307L9.60307 5.70375H11.3031L10.2431 11.8737ZM16.4131 5.85375L16.1831 7.19375L16.0231 7.12375C15.7231 7.00375 15.3131 6.87375 14.7531 6.88375C14.0831 6.88375 13.7831 7.15375 13.7731 7.42375C13.7731 7.70375 14.1431 7.89375 14.7331 8.18375C15.7131 8.62375 16.1731 9.16375 16.1631 9.86375C16.1531 11.1438 14.9931 11.9637 13.2031 11.9637C12.4431 11.9637 11.7031 11.8138 11.3031 11.6438L11.5431 10.2537L11.7731 10.3538C12.3231 10.5838 12.6831 10.6838 13.3731 10.6838C13.8531 10.6838 14.3731 10.4837 14.3831 10.0837C14.3831 9.81375 14.1631 9.61375 13.5031 9.31375C12.8631 9.01375 12.0031 8.51375 12.0131 7.63375C12.0131 6.43375 13.2131 5.59375 14.8831 5.59375C15.5431 5.59375 16.0831 5.73375 16.4131 5.85375ZM18.6731 9.69375H20.0831L19.6931 7.90375L19.5731 7.37375L19.3531 7.97375L18.6731 9.69375ZM20.7731 5.70375L22.1431 11.8737H20.5631L20.3631 10.9537H18.1831L17.8231 11.8737H16.0431L18.5631 6.21375C18.7431 5.81375 19.0531 5.71375 19.4631 5.71375H20.7631L20.7731 5.70375Z" fill="#1434CB"/>
</svg>
