<svg width="60" height="26" viewBox="0 0 60 26" fill="none" xmlns="http://www.w3.org/2000/svg">
<path fill-rule="evenodd" clip-rule="evenodd" d="M59.7831 14.9226H51.7231C51.9131 16.8526 53.3231 17.4726 54.9231 17.4726C56.5631 17.4726 57.8831 17.1026 58.9731 16.5226V19.8426C57.5898 20.6385 56.0071 21.0203 54.4131 20.9426C50.4031 20.9426 47.5831 18.4426 47.5831 13.4626C47.5831 9.27258 49.9731 5.94258 53.8831 5.94258C57.8031 5.94258 59.8431 9.22258 59.8431 13.4426C59.8431 13.8426 59.8031 14.7026 59.7831 14.9226ZM53.8631 9.30258C52.8331 9.30258 51.6931 10.0326 51.6931 11.8826H55.9431C55.9431 10.0326 54.8731 9.30258 53.8631 9.30258ZM41.0931 20.9426C39.6531 20.9426 38.7731 20.3426 38.1931 19.9026L38.1731 24.5326L34.0531 25.4026V6.21258H37.8131L37.8931 7.23258C38.7652 6.40537 39.9211 5.94373 41.1231 5.94258C44.0231 5.94258 46.7431 8.54258 46.7431 13.3426C46.7431 18.5726 44.0431 20.9426 41.0931 20.9426ZM40.1431 9.59258C39.1931 9.59258 38.6031 9.93258 38.1731 10.4026L38.1931 16.5226C38.5931 16.9626 39.1731 17.3026 40.1431 17.3026C41.6631 17.3026 42.6831 15.6526 42.6831 13.4326C42.6831 11.2826 41.6431 9.59258 40.1431 9.59258ZM28.3831 6.21258H32.5131V20.6526H28.3831V6.21258ZM28.3831 1.51258L32.5131 0.642578V4.00258L28.3831 4.88258V1.52258V1.51258ZM24.0631 10.8626V20.6526H19.9431V6.21258H23.6431L23.7631 7.43258C24.7631 5.66258 26.8331 6.02258 27.3831 6.21258V10.0026C26.8631 9.83258 25.0931 9.57258 24.0631 10.8626ZM15.5131 15.5826C15.5131 18.0126 18.1131 17.2626 18.6331 17.0426V20.4026C18.0831 20.7026 17.0931 20.9426 15.7431 20.9426C15.1804 20.959 14.6203 20.8608 14.0968 20.6539C13.5733 20.447 13.0974 20.1358 12.6979 19.7392C12.2985 19.3425 11.9839 18.8688 11.7734 18.3468C11.5628 17.8247 11.4606 17.2653 11.4731 16.7026L11.4831 3.53258L15.5031 2.67258V6.21258H18.6431V9.74258H15.5131V15.5926V15.5826ZM10.6031 16.2826C10.6031 19.2526 8.29307 20.9426 4.87307 20.9426C3.33838 20.9414 1.82032 20.6249 0.413066 20.0126V16.0826C1.79307 16.8326 3.51307 17.3926 4.87307 17.3926C5.79307 17.3926 6.40307 17.1526 6.40307 16.3926C6.40307 14.4126 0.143066 15.1526 0.143066 10.5926C0.143066 7.68258 2.42307 5.94258 5.76307 5.94258C7.12307 5.94258 8.48307 6.14258 9.85307 6.69258V10.5726C8.58702 9.90626 7.18341 9.54338 5.75307 9.51258C4.89307 9.51258 4.31307 9.76258 4.31307 10.4126C4.31307 12.2626 10.6031 11.3826 10.6031 16.2926V16.2826Z" fill="white"/>
</svg>
